<svg xmlns="http://www.w3.org/2000/svg" width="410" height="316" viewBox="0 0 410 316">
    <defs>
        <linearGradient id="prefix__a" x1="49.999%" x2="49.999%" y1="100%" y2="0%">
            <stop offset="0%" stop-color="gray" stop-opacity=".25"/>
            <stop offset="54%" stop-color="gray" stop-opacity=".12"/>
            <stop offset="100%" stop-color="gray" stop-opacity=".1"/>
        </linearGradient>
        <linearGradient id="prefix__b" x1="50.014%" x2="50.014%" y1="99.998%" y2="-.009%">
            <stop offset="0%" stop-color="gray" stop-opacity=".25"/>
            <stop offset="54%" stop-color="gray" stop-opacity=".12"/>
            <stop offset="100%" stop-color="gray" stop-opacity=".1"/>
        </linearGradient>
    </defs>
    <g fill="none" fill-rule="evenodd">
        <path fill="#D59D15" fill-rule="nonzero" d="M400.063 214.638c-.367.268-.705.528-1.065.782-1.33.938-2.72 1.786-4.164 2.536-7.563 3.983-16.886 5.929-25.967 7.25-20.367 2.966-41.16 3.542-61.864 4.108-55.944 1.534-112.023 3.065-167.83-.47-22.05-1.395-44.585-3.73-64.566-10.888-2.864-1.023-5.672-2.15-8.423-3.384-5.567-2.5-10.914-5.543-15.361-9.177-4.179-3.407-7.567-7.32-9.592-11.77-4.222-9.264-1.988-19.671 2.834-28.753 2.002-3.674 4.26-7.203 6.758-10.56 3.723-5.114 7.827-10.08 11.572-15.19 13.326-18.164 22.02-41.143 9.72-59.773-3.535-5.352-8.643-10.05-11.524-15.638-3.675-7.147-3.392-15.083-2.224-22.792.152-.979.313-1.948.482-2.907C60.844 26.58 64.6 14.265 76.179 7.129 88.209-.286 105.29.09 120.218 2.724c23.214 4.14 44.628 12.76 66.27 20.542 21.642 7.782 44.283 14.893 68.067 15.656 21.002.676 45.5-4.38 59.439-17.517 13.538-12.76 38.987-13.733 57.329-6.024 12.59 5.29 21.983 14.82 25.945 25.538.802 2.152 1.38 4.381 1.723 6.652.318 2.075.421 4.177.309 6.273-.055 1.035-.162 2.06-.309 3.073-3.065 21.151-25.125 37.835-38.535 56.729-6.553 9.228-11.18 20.314-6.674 30.266 6.872 15.164 30.77 20.556 45.202 31.84 2.716 2.054 5.107 4.504 7.093 7.269 7 10.043 4.417 23.607-6.013 31.617z" opacity=".1"/>
        <path stroke="#535461" stroke-width="2" d="M94.626 119.948S77.754 89.941 52.33 81.298c-10.67-3.63-19.982-10.454-26.35-19.781-3.014-4.429-5.617-9.126-7.776-14.032"/>
        <path fill="#D59D15" fill-rule="nonzero" d="M2.215 41.93c2.898 2.809 16.388 5.753 16.388 5.753s-3.3-13.443-6.206-16.266c-2.906-2.761-7.484-2.665-10.271.217-2.788 2.882-2.748 7.478.09 10.31v-.014zM9.848 66.258c3.958.787 16.872-4.12 16.872-4.12s-10.068-9.482-14.03-10.27c-3.915-.691-7.664 1.885-8.437 5.799-.774 3.914 1.712 7.731 5.595 8.59zM37.632 92.591c3.814-1.325 12.47-12.099 12.47-12.099s-13.453-3.088-17.264-1.763c-2.546.794-4.46 2.915-4.993 5.537-.534 2.621.396 5.326 2.428 7.059 2.031 1.732 4.841 2.218 7.333 1.266h.026zM63.123 107.753c3.983-.662 14.341-9.81 14.341-9.81s-12.738-5.326-16.721-4.667c-3.984.66-6.68 4.435-6.023 8.433.658 3.998 4.42 6.704 8.403 6.044zM37.958 51.633c0 4.05-7.299 15.803-7.299 15.803S23.346 55.69 23.342 51.64c-.06-2.659 1.32-5.142 3.606-6.49 2.286-1.347 5.119-1.347 7.404 0 2.286 1.348 3.666 3.831 3.606 6.49v-.007zM67.55 69.77c-1.206 3.864-11.678 12.883-11.678 12.883s-3.477-13.417-2.285-17.3c1.33-3.695 5.325-5.681 9.06-4.506 3.735 1.174 5.886 5.093 4.878 8.89l.025.032zM93.9 91.321c-.536 4.016-9.338 14.68-9.338 14.68s-5.686-12.618-5.135-16.634c.592-3.964 4.245-6.716 8.203-6.182 3.957.534 6.756 4.157 6.285 8.136H93.9z"/>
        <path fill="#000" fill-rule="nonzero" d="M2.215 41.93c2.898 2.809 16.388 5.753 16.388 5.753s-3.3-13.443-6.206-16.266c-2.906-2.761-7.484-2.665-10.271.217-2.788 2.882-2.748 7.478.09 10.31v-.014zM9.848 66.258c3.958.787 16.872-4.12 16.872-4.12s-10.068-9.482-14.03-10.27c-3.915-.691-7.664 1.885-8.437 5.799-.774 3.914 1.712 7.731 5.595 8.59zM37.632 92.591c3.814-1.325 12.47-12.099 12.47-12.099s-13.453-3.088-17.264-1.763c-2.546.794-4.46 2.915-4.993 5.537-.534 2.621.396 5.326 2.428 7.059 2.031 1.732 4.841 2.218 7.333 1.266h.026zM63.123 107.753c3.983-.662 14.341-9.81 14.341-9.81s-12.738-5.326-16.721-4.667c-3.984.66-6.68 4.435-6.023 8.433.658 3.998 4.42 6.704 8.403 6.044zM37.958 51.633c0 4.05-7.299 15.803-7.299 15.803S23.346 55.69 23.342 51.64c-.06-2.659 1.32-5.142 3.606-6.49 2.286-1.347 5.119-1.347 7.404 0 2.286 1.348 3.666 3.831 3.606 6.49v-.007zM67.55 69.77c-1.206 3.864-11.678 12.883-11.678 12.883s-3.477-13.417-2.285-17.3c1.33-3.695 5.325-5.681 9.06-4.506 3.735 1.174 5.886 5.093 4.878 8.89l.025.032zM93.9 91.321c-.536 4.016-9.338 14.68-9.338 14.68s-5.686-12.618-5.135-16.634c.592-3.964 4.245-6.716 8.203-6.182 3.957.534 6.756 4.157 6.285 8.136H93.9z" opacity=".25"/>
        <path stroke="#535461" stroke-width="2" d="M93.654 119.352s-3.3-34.3-23.063-52.542c-8.286-7.657-14.044-17.669-16.102-28.8-.966-5.276-1.447-10.63-1.438-15.994"/>
        <path fill="#D59D15" fill-rule="nonzero" d="M40.672 10.447c1.512 3.758 12.665 11.911 12.665 11.911s2.403-13.638.895-17.396C52.723 1.201 48.462-.62 44.714.894c-3.747 1.515-5.562 5.792-4.053 9.553h.011zM37.815 35.79c3.301 2.33 17.081 3.092 17.081 3.092s-5.344-12.758-8.645-15.088c-3.3-2.338-7.865-1.548-10.194 1.765-2.33 3.313-1.543 7.893 1.758 10.231zM52.6 71.157c4.035.342 16.3-5.985 16.3-5.985s-11.051-8.293-15.075-8.632c-2.635-.282-5.216.89-6.745 3.063-1.529 2.172-1.766 5.005-.62 7.403 1.146 2.399 3.495 3.987 6.14 4.151zM69.78 95.393c3.91 1.016 17.074-3.137 17.074-3.137s-9.496-10.049-13.402-11.065c-3.88-.943-7.796 1.412-8.798 5.29-1.001 3.878 1.282 7.845 5.13 8.912h-.004zM69.432 33.854C67.8 37.557 56.378 45.328 56.378 45.328s-1.944-13.708-.312-17.415c1.03-2.441 3.29-4.135 5.914-4.432 2.624-.297 5.204.85 6.748 3 1.545 2.15 1.814 4.968.704 7.373zM89.165 62.448c-2.663 3.044-15.878 7.03-15.878 7.03s2.23-13.663 4.896-16.707c1.723-1.97 4.36-2.866 6.921-2.353 2.56.512 4.653 2.357 5.49 4.838.838 2.482.293 5.223-1.43 7.192zM104.57 92.886c-2.113 3.453-14.466 9.622-14.466 9.622s-.103-13.848 2.01-17.3c2.112-3.457 6.617-4.54 10.06-2.419 3.444 2.12 4.523 6.64 2.41 10.097h-.014z"/>
        <ellipse cx="150" cy="308.5" fill="#D59D15" fill-rule="nonzero" opacity=".1" rx="41" ry="5.5"/>
        <g fill-rule="nonzero" transform="translate(54 284)">
            <ellipse cx="13.591" cy="23.93" fill="#D59D15" opacity=".1" rx="12.486" ry="2.133"/>
            <path fill="#D59D15" d="M16.303.177s2.024 2.644-.936 6.62c-2.959 3.976-5.398 7.357-4.422 9.847 0 0 4.463-7.412 8.108-7.515 3.644-.103 1.253-4.495-2.75-8.952z"/>
            <path fill="#000" d="M16.303.177c.177.255.316.535.413.83 3.545 4.157 5.436 8.038 2.027 8.133-3.173.092-6.983 5.757-7.894 7.187.03.111.066.22.107.328 0 0 4.463-7.412 8.108-7.515 3.644-.103 1.242-4.506-2.76-8.963z" opacity=".1"/>
            <path fill="#FFD037" d="M20.066 3.546c0 .93-.103 1.684-.232 1.684-.13 0-.236-.735-.236-1.684 0-.95.133-.493.262-.493s.206-.438.206.493z"/>
            <path fill="#FFD037" d="M21.36 4.657c-.819.445-1.534.713-1.596.6-.063-.115.553-.567 1.37-1.012.819-.445.495-.122.557 0 .063.121.487-.034-.331.412z"/>
            <path fill="#D59D15" d="M5.609.177s-2.023 2.644.936 6.62c2.96 3.976 5.399 7.357 4.422 9.847 0 0-4.463-7.412-8.107-7.515C-.785 9.026 1.614 4.634 5.609.177z"/>
            <path fill="#000" d="M5.609.177c-.177.255-.316.535-.413.83C1.651 5.165-.24 9.046 3.17 9.14c3.177.092 6.984 5.757 7.894 7.187-.028.112-.064.221-.107.328 0 0-4.463-7.412-8.107-7.515-3.645-.103-1.235-4.506 2.76-8.963z" opacity=".1"/>
            <path fill="#FFD037" d="M1.846 3.546c0 .93.103 1.684.232 1.684.13 0 .236-.735.236-1.684 0-.95-.132-.493-.261-.493-.13 0-.207-.438-.207.493z"/>
            <path fill="#FFD037" d="M.556 4.657c.819.445 1.53.713 1.592.6.063-.115-.552-.567-1.37-1.012-.819-.445-.494-.122-.557 0-.063.121-.483-.034.335.412z"/>
            <path fill="#A8A8A8" d="M2.491 16.309s5.66-.177 7.37-1.387 8.705-2.663 9.129-.717c.424 1.946 8.505 9.67 2.115 9.721-6.39.052-14.847-.993-16.55-2.026-1.703-1.034-2.064-5.591-2.064-5.591z"/>
            <path fill="#000" d="M21.216 23.25c-6.39.051-14.848-.993-16.55-2.027-1.298-.79-1.814-3.62-1.987-4.921h-.188s.369 4.553 2.06 5.59c1.692 1.038 10.16 2.079 16.55 2.027 1.843 0 2.484-.67 2.448-1.64-.255.595-.959.96-2.333.97z" opacity=".2"/>
            <path fill="#D59D15" d="M191.52 16.092s-15.58-.938-13.741 9.96c0 0-.369 1.924 1.382 2.8 0 0 .03-.806 1.6-.534.558.094 1.126.121 1.69.081.766-.05 1.494-.35 2.072-.853 0 0 4.378-1.803 6.08-8.95 0 0 1.26-1.559 1.213-1.96l-2.632 1.104s.9 1.894.192 3.468c0 0-.085-3.398-.59-3.31-.103 0-1.367.655-1.367.655s1.548 3.31.369 5.693c0 0 .442-4.046-.863-5.454l-1.842 1.077s1.806 3.406.582 6.187c0 0 .313-4.263-.97-5.925l-1.676 1.305s1.695 3.358.66 5.665c0 0-.133-4.962-1.025-5.337 0 0-1.474 1.29-1.691 1.839 0 0 1.16 2.435.442 3.722 0 0-.442-3.31-.807-3.31 0 0-1.474 2.207-1.614 3.678 0 0 .066-2.233 1.26-3.903-.843.16-1.62.563-2.237 1.159 0 0 .229-1.549 2.58-1.685 0 0 1.209-1.662 1.533-1.761 0 0-2.359-.2-3.788.434 0 0 1.256-1.472 4.22-.799l1.654-1.346s-3.103-.426-4.423.044c0 0 1.519-1.294 4.869-.367l1.805-1.075s-2.65-.57-4.227-.367c0 0 1.666-.898 4.754.073l1.29-.577s-1.942-.368-2.51-.438c-.567-.07-.596-.217-.596-.217 1.229-.204 2.49-.064 3.644.405 0 0 2.757-1.008 2.709-1.181z"/>
            <ellipse cx="180.79" cy="29.8" fill="#D59D15" opacity=".1" rx="11.026" ry="1.861"/>
            <path fill="#D59D15" d="M164.224 16.673s-8.785-.53-7.738 5.617c-.109.639.206 1.275.78 1.578 0 0 0-.457.904-.302.314.051.633.067.95.048.432-.032.841-.2 1.169-.482 0 0 2.469-1.019 3.43-5.046 0 0 .708-.88.682-1.104l-1.474.629s.505 1.07.107 1.957c0 0-.048-1.917-.332-1.872-.058 0-.77.367-.77.367s.87 1.84.214 3.211c0 0 .247-2.291-.486-3.078l-1.043.61s1.017 1.92.328 3.487c0 0 .177-2.405-.55-3.34l-.943.736s.955 1.894.369 3.193c0 0-.078-2.8-.579-3.009-.359.302-.68.647-.954 1.026 0 0 .656 1.376.25 2.1 0 0-.25-1.864-.453-1.872 0 0-.826 1.236-.91 2.082.037-.785.281-1.546.707-2.207-.475.09-.913.316-1.26.651 0 0 .129-.875 1.474-.949 0 0 .678-.938.862-.993 0 0-1.33-.114-2.137.243 0 0 .711-.824 2.38-.449l.933-.761s-1.75-.24-2.491.026c0 0 .855-.736 2.745-.199l1.014-.603c-.781-.173-1.582-.242-2.381-.206 0 0 .94-.504 2.68.04l.736-.323s-1.105-.217-1.411-.25c-.306-.034-.34-.122-.34-.122.694-.115 1.406-.036 2.057.228 0 0 1.507-.563 1.481-.662z"/>
            <ellipse cx="158.173" cy="24.405" fill="#D59D15" opacity=".1" rx="6.217" ry="1.048"/>
            <path fill="#D59D15" d="M180.944 3.649s-10.602-.64-9.353 6.779c-.131.772.25 1.54.944 1.905 0 0 0-.548 1.087-.368.38.06.765.08 1.15.055.52-.037 1.015-.24 1.411-.58 0 0 2.981-1.23 4.139-6.096 0 0 .858-1.059.825-1.331l-1.791.761s.612 1.291.133 2.362c0 0-.06-2.314-.406-2.259-.066 0-.928.445-.928.445s1.054 2.248.258 3.877c0 0 .302-2.766-.586-3.715l-1.26.736s1.23 2.317.397 4.211c0 0 .214-2.902-.663-4.046l-1.142.887s1.157 2.284.453 3.854c0 0-.092-3.376-.7-3.634 0 0-1 .88-1.15 1.24 0 0 .792 1.659.298 2.534 0 0-.298-2.247-.545-2.258 0 0-.995 1.471-1.106 2.512.048-.945.343-1.86.855-2.656-.573.11-1.102.383-1.522.787 0 0 .155-1.055 1.77-1.147 0 0 .821-1.13 1.042-1.2 0 0-1.607-.132-2.58.299 0 0 .855-.997 2.875-.545l1.128-.915s-2.116-.291-3.011.029c0 0 1.032-.88 3.317-.24l1.227-.735s-1.802-.368-2.875-.246c0 0 1.132-.61 3.236.048l.877-.39s-1.323-.261-1.71-.302c-.387-.04-.405-.147-.405-.147.836-.139 1.695-.043 2.48.276 0 0 1.868-.67 1.831-.787z"/>
            <ellipse cx="173.644" cy="12.98" fill="#D59D15" opacity=".1" rx="7.507" ry="1.265"/>
        </g>
        <g fill-rule="nonzero">
            <path fill="url(#prefix__a)" d="M350.669 180.301V.199H.276v169.77c4.475 3.734 9.856 6.875 15.47 9.456 2.764 1.274 5.588 2.438 8.47 3.494h322.272l4.18-2.618z" transform="translate(50 35)"/>
            <path fill="#FFF" d="M349.99 180.375V5.354H1.043v164.994c4.457 3.63 9.816 6.683 15.396 9.206 2.755 1.227 5.569 2.359 8.441 3.394h320.939l4.173-2.573z" transform="translate(50 35)"/>
            <path fill="#5A5773" d="M1.046 0.711H349.991V9.968H1.046z" transform="translate(50 35)"/>
        </g>
        <g fill="#FFF" fill-rule="nonzero" transform="translate(56 38)">
            <ellipse cx="2.483" cy="2.5" rx="2.388" ry="2.5"/>
            <ellipse cx="8.912" cy="2.5" rx="2.388" ry="2.5"/>
            <ellipse cx="15.34" cy="2.5" rx="2.388" ry="2.5"/>
        </g>
        <g fill-rule="nonzero">
            <path fill="#D59D15" d="M79.658 0.118H137.121V36.349000000000004H79.658z" transform="translate(61 65)"/>
            <path fill="#5A5773" d="M.095.118H57.558V36.349000000000004H.095zM159.221.118H216.684V36.349000000000004H159.221zM.095 51.914H57.558V88.14500000000001H.095zM79.658 51.914H137.121V88.14500000000001H79.658zM159.221 51.914H216.684V88.14500000000001H159.221zM.095 103.707H57.558V139.938H.095zM79.658 103.707H137.121V139.938H79.658zM159.221 103.707H216.684V139.938H159.221z" opacity=".2" transform="translate(61 65)"/>
        </g>
        <g fill-rule="nonzero" transform="translate(127 75)">
            <path fill="url(#prefix__b)" d="M61.011 81.787s-10.364-18.866-8.617-21.935c1.748-3.07 3.035-7.513 3.035-7.513s3.827-2.607 3.827-3.672 3.031-3.529 4.628-4.6c1.596-1.073.796-6.137 0-6.75-.797-.613-2.062-2.761-2.062-2.761s1.107-3.066 0-3.988c-1.106-.921.163-1.836 0-2.76-.162-.926 0-4.293 0-4.293-1.294-1.792-2.728-2.63-4.078-2.938l-.118-.485-.682-2.86s3.319-6.334-2.064-9.65c-.381-.237-.78-.446-1.191-.624 0 0 0-.154-.03-.415-.074-.947-.299-3.304-.782-4.85-.28-.889-.645-1.487-1.106-1.352-.113.033-.217.092-.302.173-.22.198-.412.424-.572.672-.006.015-.015.028-.025.04-.612 1.093-1.04 2.277-1.269 3.507-.163.727-.286 1.463-.368 2.203-.234.441-.44.896-.616 1.362-.653 1.686-1.416 4.605-.026 6.764 1.18 1.836 2.769 4.359 3.923 6.194l.037.06.07.113-.122.077v.283l.107 1.546.893 13.358c-.269-.077-.542-.135-.819-.173-.394-.057-.793-.083-1.19-.077-.779-3.044-2.914-5.875-3.32-9.054-.039-.318-.06-.638-.062-.959.033-2.001.535-4.01.494-6.007 0-.367 0-.734-.037-1.102 0-.099-.018-.202-.03-.304-.409-2.95-2.253-5.51-4.93-6.841-.925-.459-1.927-.764-2.827-1.267-2.08-1.16-3.41-3.253-5.299-4.689-1.404-1.068-3.502-1.641-5.07-1.101-.83.124-1.654.293-2.466.506-1.98.516-3.88 1.302-5.645 2.336-.24.143-.48.29-.708.459-.5.324-.895.784-1.14 1.325-.158.459-.218.945-.176 1.429 0 .348 0 .705.022 1.053-.103 5.875-6.46 10.421-6.984 16.157 0 .135-.022.271-.03.407v1.087c.093 2.515 1.406 4.858 1.645 7.362.022.224.033.444.037.668-.04 1.15-.26 2.288-.652 3.371-.8.212-1.569.523-2.29.926-1.932 1.237-5.42 3.374-6.692 7.46-.327 1.062-.49 2.166-.483 3.276-.022 3.922-.382 7.835-1.077 11.695-.16.973-.388 1.933-.678 2.875-.028.092-.035.188-.023.283l-.767 9.914-.136 1.744-.192 2.482s.056.15.137.404c.12.377.22.759.302 1.146.214.84.248 1.716.1 2.57-.076.363-.264.693-.539.944-.023.02-.044.044-.062.07-.218.304-.413 1.211-.583 2.526-.066.514-.129 1.101-.192 1.71-.368 3.911-.597 9.764-.737 14.604-.133 4.773-.18 8.544-.18 8.544.62.4 1.284.727 1.98.977-.052.129-.108.26-.16.4-.626 1.62-1.03 3.318-1.201 5.045-.31 3.61.704 7.62 5.759 9.683.323.134.654.247.992.338 1.106.294 1.92.213 2.522-.154 0 .216.026.426.037.635.051.896.096 1.715.118 2.401.158 4.297 1.228 11.81 1.228 11.81s.368 3.069.047 3.987c-.32.918 0 4.6 0 4.6s1.107 1.837 0 2.762c-1.106.925-1.434 5.508-1.106 6.136.01.022.017.045.019.07.243 1.523-1.132 24.164-1.132 24.164s-1.302 3.466-2.338 7.065c-1.01 3.503-1.77 7.13-.833 7.81.464.338 1.545.591 2.916.786 0 .15-.022.3-.036.455-.133 1.62-.343 3.363-.646 3.804-.439.624-.9 5.464-1.124 8.078l-.022.29c-.473 1.116-.87 2.261-1.188 3.43 0 0-3.528 8.812-2.334 11.1.112.205.26.388.44.54.034.037.073.071.113.102 1.7 1.355 5.959 1.638 7.504 1.7l-.06 2.181v.081h2.01v-.055c0-.275.045-1.538.11-3.227 0-.301.023-.617.038-.94 0-.254.026-.51.037-.775.592-1.567.888-3.228.873-4.902.003-1.92.263-3.832.775-5.684.253-.954.594-1.882 1.021-2.772 0 0 .627-3.305-.247-5.644-.167-.465-.416-.895-.737-1.27v-.236-.268-.23c-.02-1.583.138-3.162.472-4.708-.002-.025-.002-.05 0-.074.03-.128.062-.25.095-.367l.023-.08.652.021c2.002.055 3.474.055 3.474.055s1.596-8.13 1.438-11.654v-.477c-.056-3.503.966-8.266.966-8.266l1.286-12.43s-.638-2.15 0-3.671c.395-.947 1.21-2.706 1.778-3.918.265-.562.475-1.002.564-1.193l.051-.103c-.2-.069-.392-.164-.568-.283-.52-.345-.984-1.02.572-2.016 2.393-1.535 1.597-5.368 1.597-5.368s-.705-1.38.125-2.607c.83-1.226 0-5.827 0-5.827.683-1.217 1.232-2.503 1.637-3.837.594-1.836 2.094-10.814 2.802-15.143.233-1.421.369-2.34.369-2.34l.022.225.022.242.2 2.045.025.272.369 3.867s.737 10.163.276 14.147v.074c-.036.413-.126.819-.269 1.208-.848 1.91-.693 9.495-.649 11.173v.338c0 .092-.6 1.498-.45 2.593.031.277.131.542.292.77.22.358.32.776.284 1.194v.037c-.004.177-.02.353-.045.528-.111.711-.3 1.408-.56 2.079 0 0-.855 2.24-.531 3.41.039.153.11.294.21.416.075.135.117.286.122.44-.002.014-.002.027 0 .04.298 2.472-.472 13.381-.93 19.352-.184 2.357-.316 3.943-.316 3.943l-1.265 13.035.125.088c.144.103.413.28.775.492v.03l-.056.393c-.18 1.256-.424 2.717-.69 3.833-.021.085-.04.165-.062.243-.484.084-.945.268-1.353.54-2.684 4.747-1.497 8.51 0 9.605.424.308.711 1.171.903 2.243l.369 4.733v.544c0 .147.024.293.07.433l.114 1.436.155 1.997h1.224v-2.42h.067c1.932.067 5.047.148 6.404.041h.037c.144 0 .266-.026.369-.04.073-.011.145-.031.214-.06.719-.344 2.51-5.404.896-6.553-1.615-1.15-1.973-4.407-1.973-4.407-.14-.426-.28-.83-.424-1.215v-.25c-.044-1.575-.026-3.282.192-4.208.243-1.017.368-3.154.42-5.026V207.872c.28-.07.555-.16.822-.268l.06-.026c.493-.205.956-.479 1.375-.811l4.513-19.916.475-2.317 2.71-13.179s-.955-4.6 0-5.364c.35-.28.447-1.469.424-2.846-.036-2.409-.424-5.438-.424-5.438s1.276-1.994 1.918-3.22c.641-1.227 0-4.447 0-4.447l1.257-7.373s1.438-8.743 4.944-16.105c2.581-5.416.937-20.04-.737-27.825-.044-.202-.088-.4-.133-.591v-.03c.79-.389 1.755-.859 2.788-1.351l.39-.184c1.31-.613 2.696-1.244 3.939-1.77l.08-.033c.895-.388 1.81-.729 2.74-1.02.274-.084.556-.142.84-.173 2.217-.143-4.483-11.798-4.483-11.798zm-49.89 24.95h.663c-.077.144-.151.29-.225.438-.044.088-.088.172-.129.26-.243.503-.468 1.017-.652 1.52.073-.543.165-1.134.269-1.766.026-.14.051-.304.073-.451zm-1.793 9.573c.002-.017.002-.034 0-.051l-.055-.173c-.04-.117-.077-.235-.114-.367.228-.068.46-.146.697-.231h.048v.121c-.019.173-.04.345-.063.514.002.022.002.044 0 .066 0 .14-.033.272-.048.404l-.096.767c-.07-.23-.14-.459-.214-.683-.073-.12-.114-.246-.155-.367z"/>
            <path fill="#EFB7B9" d="M57.188 22.935l-3.982 1.402-1.446-2.387c-1.106-1.835-2.64-4.347-3.772-6.172-1.998-3.21.616-8.1.616-8.1s.472-4.91 2.153-6.422c1.682-1.513 2.15 6.422 2.15 6.422 6.751 3.055 3.134 10.24 3.134 10.24l.656 2.85.49 2.167z"/>
            <path fill="#000" d="M57.188 22.935l-3.982 1.402-1.446-2.387v-.209s2.283-1.56 4.945-.973l.483 2.167z" opacity=".1"/>
            <path fill="#FF6484" d="M50.757 39.017l1.995-1.681-1-15.136s5.163-3.517 8.983 1.987c0 0-.155 3.363 0 4.281.155.918-1.073 1.836 0 2.75 1.073.915 0 3.977 0 3.977s1.213 2.14 1.98 2.75c.767.61 1.537 5.659 0 6.727-1.538 1.069-4.421 3.518-4.421 4.586 0 1.069-3.687 3.672-3.687 3.672l-3.238-4.263-.612-9.65z"/>
            <path fill="#EFB7B9" d="M7.618 130.895c-7.441-3.143-5.79-10.821-4.388-14.688.28-.783.609-1.548.984-2.29l4.174-2.523s.852 2.162 1.763 5.063c2.112 6.75 4.542 17.43-2.533 14.438zM17.846 200.95c-.504.978-.876 2.018-1.106 3.092-.369 1.73-.53 3.496-.48 5.262.03 1.223.133 2.023.133 2.023l-8.289 5.677s.048-.664.13-1.641c.213-2.6.66-7.425 1.08-8.049.291-.433.494-2.174.623-3.79.129-1.615.18-3.032.18-3.032s9.974-3.724 7.729.459zM37.42 205.023s0 1.579-.058 3.415c-.06 1.836-.17 4.002-.402 5.012-.214.925-.229 2.625-.188 4.193.055 1.836.188 3.488.188 3.488s-8.462-7.968-7.6-8.6c.233-.168.462-.847.672-1.75.258-1.102.49-2.571.664-3.82.206-1.487.335-2.684.335-2.684l6.39.746z"/>
            <path fill="#000" d="M17.846 200.95c-.504.978-.876 2.018-1.106 3.092-2.27-.059-4.533-.232-6.785-.517.126-1.58.181-3.033.181-3.033s9.955-3.724 7.71.459zM37.42 205.023s0 1.579-.058 3.415c-2.64.672-5.354-.672-6.666-1.47.206-1.486.335-2.683.335-2.683l6.39.738z" opacity=".1"/>
            <path fill="#444053" d="M54.747 126.922c-3.378 7.344-4.76 16.053-4.76 16.053l-1.228 7.344s.616 3.21 0 4.432c-.616 1.223-1.844 3.213-1.844 3.213s.922 7.49 0 8.254c-.921.764 0 5.35 0 5.35l-3.071 15.422-4.3 19.872c-4.144 3.368-9.66-.914-9.66-.914l1.217-12.995s1.844-22.765 1.077-23.698c-.767-.933.306-3.822.306-3.822s1.076-2.754.31-3.823c-.767-1.068.15-3.363.15-3.363s-.305-9.327.616-11.467c.922-2.141 0-15.382 0-15.382l-.368-4.123-.214-2.284-.019-.224s-.14.914-.368 2.331c-.679 4.315-2.124 13.256-2.696 15.095-.388 1.326-.916 2.607-1.574 3.823 0 0 .796 4.586 0 5.809-.796 1.222-.122 2.6-.122 2.6s.767 3.822-1.537 5.35c-2.305 1.527 0 2.294 0 2.294s-1.689 3.672-2.301 5.196c-.612 1.524 0 3.672 0 3.672l-1.228 12.381s-1.076 5.196-.922 8.714c.155 3.517-1.382 11.618-1.382 11.618s-11.821 0-13.643-1.377c-1.821-1.377 3.042-14.81 3.042-14.81s1.383-23.543 1.073-24.153c-.31-.61 0-5.2 1.077-6.113 1.076-.915 0-2.754 0-2.754s-.306-3.672 0-4.586c.306-.915-.048-3.977-.048-3.977s-1.029-7.49-1.18-11.772c-.151-4.282-.922-13.91-.922-13.91s.804-5.955.926-8.79c.044-1.042.512-2.346 1.106-3.572.664-1.385 1.428-2.72 2.286-3.995 0 0 36.374-10.708 37.9-9.643.406.283.996 2.203 1.578 4.983 1.622 7.766 3.208 22.343.723 27.741z"/>
            <ellipse cx="32.336" cy="22.935" fill="#A1616A" rx="10.593" ry="10.549"/>
            <path fill="#000" d="M54.024 99.188c-1.22.625-2.039 1.054-2.039 1.054s-17.193 8.104-22.082 7.645c-3.783-.367-13.44-.158-17.647-.055.665-1.385 1.429-2.72 2.286-3.995 0 0 36.378-10.704 37.904-9.639.406.29.996 2.203 1.578 4.99z" opacity=".1"/>
            <path fill="#FF6484" d="M24.966 39.781s-9.812 1.542-12.127 3.055c-2.316 1.513-6.903 4.436-6.903 10.704 0 6.267-1.073 12.69-1.688 14.522-.616 1.832 9.671 16.663 9.671 16.663L10.232 107.2s14.748-.459 19.66 0c4.911.46 22.097-7.644 22.097-7.644s10.132-5.35 12.282-5.508c2.15-.158-4.3-11.772-4.3-11.772s-9.98-18.8-8.292-21.859c1.689-3.059 2.928-7.49 2.928-7.49l-1.844-15.591s-2.762-.918-5.066.763c-2.304 1.682-10.132.764-10.132.764l-12.6.918z"/>
            <path fill="#000" d="M8.31 66.993l-3.849 1.069-1.065 14.386s1.383 3.823 0 5.045c-1.383 1.223-1.689 27.367-1.689 27.367s4.454 3.21 9.672.764c0 0-.767-2.905 1.537-13.454 2.305-10.55 2.3-15.9 2.3-15.9s0-13.148 1.078-15.289c1.076-2.14 0-7.49 0-7.49s-2.15-2.905-1.999-3.974c.151-1.068-5.984 7.476-5.984 7.476z" opacity=".1"/>
            <path fill="#000" d="M10.15 116.468c-2.26.758-4.72.67-6.92-.25.28-.783.609-1.548.984-2.29l4.174-2.523s.867 2.162 1.763 5.063z" opacity=".1"/>
            <path fill="#FF6484" d="M8.079 66.993L4.24 68.062 3.167 82.448s1.383 3.823 0 5.045C1.785 88.716 1.48 114.86 1.48 114.86s4.457 3.205 9.67.749c0 0-.766-2.904 1.535-13.454 2.3-10.55 2.304-15.899 2.304-15.899s0-13.149 1.073-15.29c1.073-2.14 0-7.49 0-7.49s-2.15-2.905-1.995-3.973c.155-1.069-5.987 7.49-5.987 7.49z"/>
            <path fill="#000" d="M47.38 69.285s-1.995 17.122-7.832 20.334c0 0 13.05-3.668 7.832-20.334zM18.06 70.816s7.212 3.514 5.53 5.96c-1.68 2.445-5.53-5.96-5.53-5.96zM18.06 77.847s4.605 4.74 3.687 6.423c-.918 1.681-3.687-6.423-3.687-6.423zM55.208 38.558s1.806 3.055 1.98 5.046c.173 1.99-1.98-5.046-1.98-5.046zM55.208 34.431s.907-.767 3.222 0c2.316.768-3.222 0-3.222 0zM46.344 123.786c-3.804.538-7.683.043-11.228-1.432l-1.935 4.935-.214-2.284c.317-1.916.933-3.969 2.15-4.487 0 0 4.262 3.382 11.227 3.268zM14.852 130.208s9.443 1.95 12.09 1.605l-12.09-1.605zM15.833 132.672s4.03-.172 6.043.632l-6.043-.632zM16.294 134.336c1.838.389 3.705.634 5.582.734l-5.582-.734zM16.061 155.375c.174-.113 8.06-1.95 9.041-.631l-9.04.631zM16.061 157.784s6.851-.804 7.024 0c.174.804-7.024 0-7.024 0zM16.061 159.962s7.312-1.506 8.175-1.139c.862.367-8.175 1.139-8.175 1.139zM16.408 211.331l-8.289 5.677s.048-.665.13-1.642c1.843-4.516 4.243-6.899 4.243-6.899 1.87-.485 3.05-.037 3.783.84.03 1.22.133 2.024.133 2.024z" opacity=".1"/>
            <path fill="#444053" d="M17.215 216.431c-1.171 2.661-1.76 5.54-1.729 8.446.047 2.382-.56 4.732-1.755 6.796-.173.291-.368.569-.583.83 0 0-5.759-.048-7.776-1.711-.226-.179-.411-.404-.542-.66-1.154-2.292 2.246-11.064 2.246-11.064 1.784-6.764 5.409-10.377 5.409-10.377 6.456-1.663 4.73 7.74 4.73 7.74z"/>
            <path fill="#000" d="M13.73 231.655c-.172.29-.367.568-.582.83 0 0-5.759-.048-7.776-1.711.992-3.268 4.156-13.157 5.638-11.475 1.394 1.579 2.363 9.176 2.72 12.356z" opacity=".1"/>
            <path fill="#444053" d="M12.942 219.912l-.402 14.813h1.932s.313-12.995 1.176-14.813c.863-1.817-2.706 0-2.706 0z"/>
            <path fill="#000" d="M36.96 221.131s-8.462-7.968-7.6-8.6c.233-.168.462-.847.672-1.75 1.626-.283 4.424.392 6.74 6.862.055 1.836.188 3.488.188 3.488z" opacity=".1"/>
            <path fill="#444053" d="M38.225 230.017c-.065.028-.133.048-.203.059-.996.173-4.664.073-6.718 0-.782-.026-1.403-.664-1.405-1.443 0-.55 0-1.223-.044-1.939-.096-2.262-.369-4.953-1.184-5.559-1.441-1.102-2.58-4.84 0-9.573 0 0 4.948-3.763 8.518 7.55 0 0 .346 3.227 1.898 4.373 1.553 1.146-.17 6.205-.862 6.532z"/>
            <path fill="#000" d="M38.015 230.076c-.996.173-4.665.073-6.718 0-.783-.026-1.404-.664-1.405-1.443 0-.55 0-1.223-.045-1.939.624-2.739 1.52-5.559 2.674-6.202.007-.003 3.499-.396 5.494 9.584z" opacity=".1"/>
            <path fill="#444053" d="M29.298 220.158L30.227 232.485 31.407 232.485 31.407 219.108z"/>
            <path fill="#000" d="M32.181 6.125c-3.344.248-6.582 1.283-9.446 3.022-.737.444-1.475.984-1.78 1.78-.266.69-.156 1.47-.145 2.204.1 6.323-6.98 11.107-6.758 17.426.088 2.508 1.353 4.844 1.585 7.344.387 4.171-2.09 8.008-4.465 11.464 2.446.148 4.856-.648 6.73-2.222 2.505 8.317 2.828 17.135.94 25.612h3.395c.336-.025.673.016.992.12.298.142.565.34.785.585 3.175 3.146 5.303 7.799 4.09 12.095l7.226-2.7c1.73-.645 3.485-1.303 4.989-2.368 1.504-1.064 2.765-2.61 3.082-4.424.196-1.102.133-2.416 1.044-3.055.449-.238.927-.414 1.423-.525 1.984-.698 2.861-2.982 3.267-5.038.494-2.523.649-5.1.46-7.663-.32-4.296-1.596-8.658-.545-12.852.594-2.353 1.914-4.546 2.02-6.976.174-4.006-2.971-7.458-3.44-11.442-.328-2.776.68-5.585.35-8.36-.369-2.909-2.14-5.454-4.744-6.82-.89-.455-1.844-.76-2.722-1.263-2.002-1.156-3.281-3.238-5.099-4.67s-4.845-1.972-6.213-.11l2.98-1.164z" opacity=".1"/>
            <path fill="#925978" d="M32.181 5.666c-3.344.248-6.582 1.283-9.446 3.022-.737.444-1.475.984-1.78 1.78-.266.69-.156 1.47-.145 2.204.1 6.323-6.98 11.107-6.758 17.43.088 2.504 1.353 4.84 1.585 7.344.387 4.171-2.09 8.008-4.465 11.467 2.446.143 4.854-.652 6.73-2.221 2.504 8.314 2.828 17.13.94 25.604h3.395c.336-.024.673.019.992.124.299.139.566.336.785.58 3.175 3.151 5.303 7.8 4.09 12.096l7.226-2.7c1.73-.645 3.485-1.303 4.989-2.367 1.504-1.065 2.765-2.611 3.082-4.425.196-1.102.133-2.416 1.044-3.055.449-.238.927-.414 1.423-.525 1.984-.698 2.861-2.982 3.267-5.038.498-2.525.657-5.104.472-7.67-.32-4.297-1.597-8.659-.546-12.852.594-2.354 1.914-4.546 2.02-6.977.174-4.006-2.971-7.457-3.44-11.441-.327-2.776.68-5.581.351-8.361-.371-2.907-2.142-5.452-4.745-6.819-.889-.455-1.844-.76-2.722-1.26-2.002-1.16-3.281-3.241-5.099-4.673-1.818-1.433-4.845-1.972-6.213-.11l2.968-1.157z"/>
            <g fill="#000" opacity=".1">
                <path d="M9.741.129C9.727.27 9.72.412 9.72.554c.011-.14.019-.282.022-.425zM36.54 14.827c.132-1.946.567-3.9.405-5.838-.121 1.946-.557 3.9-.405 5.838zM4.576 24.502c-.214-2.276-1.28-4.406-1.53-6.679-.05.417-.069.837-.056 1.256.089 2.479 1.324 4.796 1.575 7.263.06-.612.064-1.227.01-1.84zM38.015 33.546c-.346 1.494-.47 3.03-.37 4.56.038-.892.161-1.778.37-2.647.593-2.353 1.913-4.545 2.02-6.976.018-.432-.002-.864-.059-1.293-.288 2.185-1.434 4.22-1.961 6.356zM6.84 33.745c-1.538 1.283-3.442 2.054-5.443 2.203-.42.653-.855 1.292-1.286 1.924 2.445.143 4.853-.652 6.729-2.222 1.347 4.464 2.069 9.091 2.146 13.751.109-5.298-.615-10.581-2.146-15.656zM38.085 54.046c-.406 2.057-1.284 4.34-3.267 5.034-.497.11-.976.289-1.423.53-.911.638-.849 1.96-1.044 3.054-.317 1.814-1.574 3.356-3.082 4.406-1.508 1.05-3.26 1.726-4.99 2.373l-6.894 2.57c-.036.69-.147 1.372-.332 2.038l7.227-2.7c1.73-.645 3.484-1.303 4.989-2.367 1.504-1.065 2.765-2.611 3.082-4.425.195-1.102.133-2.416 1.044-3.055.448-.238.927-.414 1.423-.525 1.983-.698 2.861-2.982 3.267-5.038.42-2.14.594-4.32.52-6.5-.05 1.547-.223 3.087-.52 4.605zM12.964 60.05c-.22-.246-.487-.444-.785-.584-.32-.104-.657-.147-.992-.125H8.174c-.118.64-.243 1.278-.368 1.913h3.396c.335-.023.672.02.991.125.299.138.566.336.786.58 2.323 2.306 4.081 5.413 4.384 8.6.372-3.812-1.611-7.733-4.399-10.51z" transform="translate(11.061 11.016)"/>
            </g>
            <path fill="#000" d="M7.179 83.58s2.743-1.146 3.355 0c.612 1.145-3.355 0-3.355 0zM8.149 85.544s2.743-1.146 3.359 0c.615 1.145-3.36 0-3.36 0z" opacity=".1"/>
        </g>
        <g fill="#D59D15" fill-rule="nonzero" opacity=".1">
            <path d="M40.708 8.291s-14.054-.854-12.396 9.093c0 0-.329 1.758 1.249 2.556 0 0 .025-.746 1.44-.489.504.086 1.016.111 1.526.075.688-.048 1.341-.322 1.861-.78 0 0 3.949-1.645 5.485-8.168 0 0 1.138-1.425 1.109-1.79L38.61 9.812s.81 1.728.17 3.165c0 0-.074-3.105-.532-3.03-.092 0-1.23.597-1.23.597s1.393 3.011.34 5.201c0 0 .399-3.709-.776-4.981l-1.677 1.004s1.63 3.108.525 5.645c0 0 .284-3.892-.875-5.407l-1.515 1.19s1.533 3.05.61 5.154c0 0-.122-4.534-.928-4.873 0 0-1.322 1.179-1.521 1.664 0 0 1.045 2.239.395 3.395 0 0-.4-3.015-.739-3.03 0 0-1.319 2-1.455 3.359.064-1.268.455-2.496 1.134-3.564-.76.146-1.462.514-2.017 1.06 0 0 .203-1.414 2.342-1.541 0 0 1.09-1.515 1.381-1.608 0 0-2.127-.18-3.416.399 0 0 1.134-1.336 3.808-.746l1.477-1.232s-2.8-.373-3.989.041c0 0 1.367-1.179 4.392-.32l1.625-.982s-2.386-.522-3.808-.332c0 0 1.5-.817 4.285.067l1.163-.526s-1.75-.347-2.26-.403c-.51-.056-.54-.198-.54-.198 1.108-.186 2.245-.057 3.284.373 0 0 2.486-.906 2.445-1.063zM20.677.224S8.857 7.95 16.027 14.97c0 0 .765 1.612 2.504 1.314 0 0-.413-.612.876-1.258.457-.232.884-.52 1.274-.854.526-.451.893-1.063 1.045-1.743 0 0 2.217-3.694-.37-9.866 0 0 .082-1.828-.169-2.097l-1.308 2.24s1.666.906 1.995 2.443c0 0-1.88-2.451-2.216-2.12-.067.068-.643 1.221-.643 1.221s2.892 1.59 3.324 3.981c0 0-1.846-3.227-3.55-3.544l-.767 1.79s3.14 1.53 3.738 4.236c0 0-2.058-3.306-3.879-3.832l-.517 1.865s3.029 1.553 3.513 3.806c0 0-2.756-3.574-3.605-3.358 0 0-.37 1.739-.251 2.239 0 0 2.15 1.164 2.312 2.5 0 0-2.09-2.19-2.36-2.008 0 0 .11 2.4.801 3.586-.69-1.06-1.095-2.282-1.175-3.548-.527.572-.876 1.288-1.004 2.06 0 0-.665-1.262.986-2.642 0 0 0-1.866.166-2.124 0 0-1.817 1.12-2.519 2.366 0 0 .133-1.754 2.641-2.866l.48-1.884s-2.482 1.366-3.187 2.422c0 0 .41-1.769 3.346-2.888l.739-1.765s-2.216 1.011-3.265 2.015c0 0 .738-1.56 3.494-2.511l.628-1.12s-1.614.769-2.058 1.03c-.443.261-.55.164-.55.164.783-.813 1.774-1.39 2.863-1.668 0 0 1.444-2.224 1.318-2.328zM2.689 9.228S-4.377 21.54 5.164 24.5c0 0 1.407 1.086 2.822 0 0 0-.64-.35.218-1.519.297-.417.545-.867.738-1.343.267-.643.32-1.357.152-2.034 0 0 .314-4.305-4.765-8.623 0 0-.739-1.664-1.108-1.787l-.159 2.612s1.891.045 2.877 1.265c0 0-2.777-1.325-2.918-.88-.03.089-.025 1.38-.025 1.38s3.32.1 4.798 2.033c0 0-3.103-2.026-4.754-1.533l.118 1.948s3.483-.075 5.23 2.063c0 0-3.324-2.004-5.17-1.638l.369 1.9s3.398 0 4.838 1.783c0 0-4.063-1.926-4.724-1.355 0 0 .447 1.724.787 2.124 0 0 2.438.052 3.184 1.167 0 0-2.848-.996-3.007-.705 0 0 1.178 2.086 2.327 2.825-1.09-.624-2-1.525-2.64-2.612-.213.751-.203 1.55.029 2.295 0 0-1.16-.817-.31-2.806 0 0-.85-1.664-.802-1.967 0 0-1.108 1.84-1.182 3.261 0 0-.672-1.623 1.064-3.76l-.418-1.904S1.134 19.045.98 20.31c0 0-.429-1.765 1.688-4.105l-.14-1.906S.996 16.22.524 17.589c0 0-.052-1.723 1.983-3.839l.055-1.287s-1.108 1.421-1.37 1.865c-.262.444-.417.381-.417.381.333-1.084.957-2.054 1.802-2.802 0 0 .266-2.646.111-2.68z" transform="translate(264 3)"/>
        </g>
        <path fill="#D59D15" fill-rule="nonzero" d="M326.493 150.438c-2.927 0-5.299 2.365-5.299 5.281 0 2.917 2.372 5.281 5.299 5.281 2.926 0 5.299-2.364 5.299-5.28-.009-2.914-2.376-5.274-5.3-5.282zM311 109v5.28h5.299l9.538 19.257-3.988 6.469c-.435.765-.663 1.63-.662 2.51 0 3.535 2.425 5.28 5.713 5.28h30.982v-5.078h-30.334c-.179.011-.354-.055-.48-.181-.127-.127-.194-.301-.183-.48.07-.228.165-.448.282-.656l2.647-4.167h19.74c1.945.016 3.735-1.054 4.636-2.77l9.543-16.353c.186-.415.277-.866.266-1.32-.007-.687-.293-1.342-.793-1.814-.5-.473-1.17-.724-1.858-.696H322.13L319.613 109H311zm41.58 41.438c-2.926.002-5.297 2.368-5.296 5.284.002 2.916 2.374 5.279 5.3 5.278 2.926 0 5.298-2.365 5.298-5.28-.008-2.915-2.378-5.276-5.302-5.282z"/>
        <path fill="#FFF" fill-rule="nonzero" d="M346 124.364L341.636 124.364 341.636 120 338.364 120 338.364 124.364 334 124.364 334 127.636 338.364 127.636 338.364 132 341.636 132 341.636 127.636 346 127.636z"/>
    </g>
</svg>
