<svg xmlns="http://www.w3.org/2000/svg" width="459" height="316" viewBox="0 0 459 316">
    <defs>
        <linearGradient id="prefix__a" x1=".043%" x2="99.991%" y1="49.996%" y2="49.996%">
            <stop offset="0%" stop-color="gray" stop-opacity=".25"/>
            <stop offset="54%" stop-color="gray" stop-opacity=".12"/>
            <stop offset="100%" stop-color="gray" stop-opacity=".1"/>
        </linearGradient>
    </defs>
    <g fill="none">
        <path fill="#D59D15" d="M259.46 43.131c-29.357.04-57.614-8.298-84.643-17.56C147.79 16.307 120.97 5.935 92.158 1.54c-18.53-2.825-39.6-2.566-54.084 7.692-13.942 9.869-17.98 26.202-19.927 41.291-1.465 11.352-2.14 23.266 3.346 33.65 3.81 7.209 10.329 13.15 14.924 20.02 16.04 23.9 6.394 54.43-9.194 78.884-7.309 11.473-15.87 22.471-21.396 34.602C.3 229.81-1.965 243.566 3.67 255.54c5.584 11.867 18.199 20.48 31.737 26.363 27.491 11.97 59.5 14.535 90.647 15.522 68.95 2.192 138.032-2.278 206.93-6.748 25.496-1.653 51.106-3.317 76.076-8.105 13.864-2.656 28.14-6.599 37.97-15.24 12.478-10.97 15.03-28.88 5.95-41.755-15.226-21.594-55.376-25.666-66.294-49.03-6.02-12.864-.828-27.615 6.818-40.013 16.4-26.603 44.63-50.432 45.106-80.186.326-20.433-14.355-40.367-36.281-49.247-22.983-9.302-54.32-6.91-70.422 10.427-16.557 17.86-46.527 25.575-72.448 25.603z" opacity=".1"/>
        <path fill="#D59D15" d="M389.403 254.039s-5.022-3.747-10-1.082c0 0 1.533 3.336 7.834 3.022l2.166-1.94z"/>
        <path fill="#D59D15" d="M390.072 254s1.684 5.95-2.54 10c0 0-2.54-2.453 0-8.462l2.54-1.538zM396.403 249.186s-.354-4.331-11-2.894c0 0-.05 2.794 3.686 4.117 3.737 1.323 5.45.208 7.314-1.223zM397.362 249s4.267 1.39.462 11c0 0-2.816-.637-3.322-4.462-.505-3.825.993-5.144 2.86-6.538zM403.396 241.111s.654-7.858-10.975-7.053c0 0-.832 7.097 8.924 8.942l2.051-1.889zM409.403 232.847s-1.447-9.039-12-6.346c0 0-.038 7.815 10.278 8.499l1.722-2.153zM414.403 223.43s-2.447-8.497-13-5.956c0 0 2.512 7.644 12.299 7.525l.701-1.569zM420.403 214.505s-2.47-8.597-13-6.025c0 0 3.514 8.168 12.303 7.479l.697-1.454zM423.403 207.323s-1.783-11.5-11-8.955c0 0 2.678 10.463 10.323 10.632l.677-1.677zM427.403 195.414s-2.241-11.024-12-7.835c0 0 3.825 10.42 11.307 9.343l.693-1.508zM428.403 186.791s-3.525-11.084-11-10.785c0 0 3.602 11.706 10.375 12.994l.625-2.209zM429.403 177.842s-3.867-13.85-10-12.783c0 0 2.676 10.587 9.783 14.941l.217-2.158zM430.403 166s-3.752-11.538-10-12c0 0 2.552 11.354 9.876 15l.124-3zM430.403 155.202s-4.782-10.954-9-11.202c0 0 2.078 10.787 8.591 13l.409-1.798zM430.403 146.094s-2.462-12.09-6-13.094c0 0 .483 9.891 5.644 14l.356-.906zM433.403 134.55s-2.847-10.022-6-11.55c0 0 .622 11.817 5.273 14l.727-2.45zM434.625 126.014l.778-17.014s-8.013 12.826-1.357 20l.579-2.986zM438.828 108.811s4.488-12.133 5.575-12.811c0 0-8.801 7.873-7.94 18l2.365-5.189zM403.118 242.025s7.504-1.012 7.28 9.929c0 0-6.78 1.14-8.995-7.91l1.715-2.02z"/>
        <path fill="#D59D15" d="M409.183 232s8.916-.027 8.176 10.944c0 0-7.487 1.317-9.956-8.87l1.78-2.074zM416.12 224.686s8.1-3.6 13.283 5.694c0 0-7.481 2.998-14-4.191l.717-1.503zM420.096 214.845s8.384-4.034 13.307 5.527c0 0-8.735 2.972-14-4.014l.693-1.513zM422.776 205.974s8.136-6.742 14.627.076c0 0-8.31 5.55-15 1.426l.373-1.502zM426.698 196.368s8.23-7.812 14.705.359c0 0-9.235 6.417-15 1.281l.295-1.64zM428.403 185.514s6.43-10.52 14-8.172c0 0-6.672 11.138-13.927 10.642l-.073-2.47zM429.559 177.006s6.086-11.824 11.844-9.765c0 0-4.39 9.089-12 11.759l.156-1.994zM430.025 165.297s6.39-9.343 12.378-8.2c0 0-5.226 9.474-13 10.903l.622-2.703zM430.403 155.125s4.965-11.05 9-11.125c0 0-2.383 10.97-8.665 13l-.335-1.875zM430.403 146.034s5.71-11.01 10-11.034c0 0-2.921 9.415-9.81 12l-.19-.966zM432.403 134.499s3.829-9.43 7-10.499c0 0-1.914 11.494-6.577 13l-.423-2.501z"/>
        <path fill="#D59D15" d="M434.805 124.268L444.403 110s-2.46 14.074-11 17l1.402-2.732zM440.991 109.459s11.012-7.282 11.412-8.459c0 0-5.6 10.199-16 12l4.588-3.541zM441.723 107s13.288-12.012 16.68-12c0 0-10.96.47-17 11.36l.32.64z"/>
        <path fill="#444053" d="M432.403 136.94l.45.06c2.327-18.366 5.72-29.234 9.55-30.565l-.149-.435c-4.062 1.422-7.477 12.124-9.851 30.94zM428.403 179.945l.683.055c.145-1.702.255-3.443.33-5.18.651-15.087 1.66-28.943 2.987-39.33l-.392-.49c-1.331 10.41-2.627 24.682-3.278 39.793-.075 1.725-.185 3.458-.33 5.152zM375.769 263c.117-.051 12.038-5.424 24.412-18.236 7.249-7.504 13.272-16.12 17.845-25.53 5.722-11.755 9.21-26.2 10.377-40.234l-.704.334c-2.628 31.5-16.838 53.023-28.137 64.747-12.253 12.698-24.042 18.016-24.159 18.067l.366.852z"/>
        <path fill="#3F3D56" d="M408.042 34H30.764c-1.856 0-3.361 1.487-3.361 3.322V47h384v-9.678c0-.881-.354-1.726-.984-2.35-.63-.622-1.486-.972-2.377-.972z"/>
        <path fill="#FFF" d="M27.403 47v221.197c0 3.757 3.034 6.803 6.777 6.803h370.446c3.743 0 6.777-3.046 6.777-6.803V47h-384z"/>
        <circle cx="33.403" cy="40" r="2" fill="#FA5959" opacity=".8"/>
        <circle cx="38.403" cy="40" r="2" fill="#FED253" opacity=".8"/>
        <circle cx="42.403" cy="40" r="2" fill="#8CCF4D" opacity=".8"/>
        <path fill="#000" d="M64.403 84H372.403V220H64.403z" opacity=".05"/>
        <path fill="#3F3D56" d="M65.403 86H369.403V218H65.403z"/>
        <path fill="#D59D15" d="M148.403 119c-16.568 0-30 13.431-30 30 0 16.569 13.432 30 30 30 16.569 0 30-13.431 30-30 0-7.956-3.16-15.587-8.787-21.213C163.99 122.16 156.36 119 148.403 119zm5.38 30.72v14.206h-10.605v-14.205c-3.01-2.278-4.227-6.224-3.026-9.802 1.202-3.578 4.555-5.989 8.329-5.989 3.774 0 7.127 2.41 8.329 5.989 1.201 3.578-.017 7.524-3.026 9.802z"/>
        <path fill="#000" d="M148.403 119c-16.568 0-30 13.431-30 30 0 16.569 13.432 30 30 30 16.569 0 30-13.431 30-30 0-7.956-3.16-15.587-8.787-21.213C163.99 122.16 156.36 119 148.403 119zm5.38 30.72v14.206h-10.605v-14.205c-3.01-2.278-4.227-6.224-3.026-9.802 1.202-3.578 4.555-5.989 8.329-5.989 3.774 0 7.127 2.41 8.329 5.989 1.201 3.578-.017 7.524-3.026 9.802z" opacity=".05"/>
        <path fill="#D59D15" d="M148.403 110c-21.54 0-39 17.46-39 39s17.46 39 39 39 39-17.46 39-39c0-10.343-4.109-20.263-11.423-27.577S158.746 110 148.403 110zm6.992 39.938v18.464h-13.787v-18.464c-3.914-2.962-5.499-8.093-3.937-12.746 1.563-4.653 5.922-7.788 10.83-7.788 4.909 0 9.269 3.135 10.83 7.788 1.563 4.653-.022 9.784-3.936 12.746z"/>
        <path fill="#FFF" d="M203.403 144H329.403V157H203.403z"/>
        <path fill="#D59D15" d="M302.403 169H329.403V182H302.403zM215.236 150.338h-1.93l1.717-1.717c.064-.066.064-.17 0-.237-.031-.032-.074-.05-.118-.05-.045 0-.087.018-.119.05l-1.716 1.72v-1.937c0-.092-.075-.167-.167-.167-.091.002-.165.076-.167.167v1.937l-1.713-1.73c-.031-.032-.074-.05-.118-.05-.045 0-.087.018-.119.05-.064.066-.064.171 0 .237l1.717 1.717h-1.933c-.092.002-.165.076-.167.167 0 .092.075.167.167.167h1.933l-1.717 1.72c-.064.066-.064.171 0 .237.067.063.17.063.237 0l1.713-1.72v1.934c0 .092.075.167.167.167.092 0 .167-.075.167-.167v-1.934l1.716 1.72c.067.063.17.063.237 0 .064-.066.064-.17 0-.237l-1.717-1.72h1.93c.092 0 .167-.075.167-.167-.005-.088-.078-.157-.167-.157zM224.236 150.338h-1.93l1.717-1.717c.064-.066.064-.17 0-.237-.031-.032-.074-.05-.118-.05-.045 0-.087.018-.119.05l-1.716 1.72v-1.937c0-.092-.075-.167-.167-.167-.091.002-.165.076-.167.167v1.937l-1.713-1.73c-.031-.032-.074-.05-.118-.05-.045 0-.087.018-.119.05-.064.066-.064.171 0 .237l1.717 1.717h-1.933c-.092.002-.165.076-.167.167 0 .092.075.167.167.167h1.933l-1.717 1.72c-.064.066-.064.171 0 .237.067.063.17.063.237 0l1.713-1.72v1.934c0 .092.075.167.167.167.092 0 .167-.075.167-.167v-1.934l1.716 1.72c.067.063.17.063.237 0 .064-.066.064-.17 0-.237l-1.717-1.72h1.93c.092 0 .167-.075.167-.167-.005-.088-.078-.157-.167-.157zM231.236 150.338h-1.93l1.717-1.717c.064-.066.064-.17 0-.237-.031-.032-.074-.05-.118-.05-.045 0-.087.018-.119.05l-1.716 1.72v-1.937c0-.092-.075-.167-.167-.167-.091.002-.165.076-.167.167v1.937l-1.713-1.73c-.031-.032-.074-.05-.118-.05-.045 0-.087.018-.119.05-.064.066-.064.171 0 .237l1.717 1.717h-1.933c-.092.002-.165.076-.167.167 0 .092.075.167.167.167h1.933l-1.717 1.72c-.064.066-.064.171 0 .237.067.063.17.063.237 0l1.713-1.72v1.934c0 .092.075.167.167.167.092 0 .167-.075.167-.167v-1.934l1.716 1.72c.067.063.17.063.237 0 .064-.066.064-.17 0-.237l-1.717-1.72h1.93c.092 0 .167-.075.167-.167-.005-.088-.078-.157-.167-.157zM239.236 150.338h-1.93l1.717-1.717c.064-.066.064-.17 0-.237-.031-.032-.074-.05-.118-.05-.045 0-.087.018-.119.05l-1.716 1.72v-1.937c0-.092-.075-.167-.167-.167-.091.002-.165.076-.167.167v1.937l-1.713-1.73c-.031-.032-.074-.05-.118-.05-.045 0-.087.018-.119.05-.064.066-.064.171 0 .237l1.717 1.717h-1.933c-.092.002-.165.076-.167.167 0 .092.075.167.167.167h1.933l-1.717 1.72c-.064.066-.064.171 0 .237.067.063.17.063.237 0l1.713-1.72v1.934c0 .092.075.167.167.167.092 0 .167-.075.167-.167v-1.934l1.716 1.72c.067.063.17.063.237 0 .064-.066.064-.17 0-.237l-1.717-1.72h1.93c.092 0 .167-.075.167-.167-.005-.088-.078-.157-.167-.157zM248.236 150.338h-1.93l1.717-1.717c.064-.066.064-.17 0-.237-.031-.032-.074-.05-.118-.05-.045 0-.087.018-.119.05l-1.716 1.72v-1.937c0-.092-.075-.167-.167-.167-.091.002-.165.076-.167.167v1.937l-1.713-1.73c-.031-.032-.074-.05-.118-.05-.045 0-.087.018-.119.05-.064.066-.064.171 0 .237l1.717 1.717h-1.933c-.092.002-.165.076-.167.167 0 .092.075.167.167.167h1.933l-1.717 1.72c-.064.066-.064.171 0 .237.067.063.17.063.237 0l1.713-1.72v1.934c0 .092.075.167.167.167.092 0 .167-.075.167-.167v-1.934l1.716 1.72c.067.063.17.063.237 0 .064-.066.064-.17 0-.237l-1.717-1.72h1.93c.092 0 .167-.075.167-.167-.005-.088-.078-.157-.167-.157zM256.236 150.338h-1.93l1.717-1.717c.064-.066.064-.17 0-.237-.031-.032-.074-.05-.118-.05-.045 0-.087.018-.119.05l-1.716 1.72v-1.937c0-.092-.075-.167-.167-.167-.091.002-.165.076-.167.167v1.937l-1.713-1.73c-.031-.032-.074-.05-.118-.05-.045 0-.087.018-.119.05-.064.066-.064.171 0 .237l1.717 1.717h-1.933c-.092.002-.165.076-.167.167 0 .092.075.167.167.167h1.933l-1.717 1.72c-.064.066-.064.171 0 .237.067.063.17.063.237 0l1.713-1.72v1.934c0 .092.075.167.167.167.092 0 .167-.075.167-.167v-1.934l1.716 1.72c.067.063.17.063.237 0 .064-.066.064-.17 0-.237l-1.717-1.72h1.93c.092 0 .167-.075.167-.167-.005-.088-.078-.157-.167-.157zM265.236 150.338h-1.93l1.717-1.717c.064-.066.064-.17 0-.237-.031-.032-.074-.05-.118-.05-.045 0-.087.018-.119.05l-1.716 1.72v-1.937c0-.092-.075-.167-.167-.167-.091.002-.165.076-.167.167v1.937l-1.713-1.73c-.031-.032-.074-.05-.118-.05-.045 0-.087.018-.119.05-.064.066-.064.171 0 .237l1.717 1.717h-1.933c-.092.002-.165.076-.167.167 0 .092.075.167.167.167h1.933l-1.717 1.72c-.064.066-.064.171 0 .237.067.063.17.063.237 0l1.713-1.72v1.934c0 .092.075.167.167.167.092 0 .167-.075.167-.167v-1.934l1.716 1.72c.067.063.17.063.237 0 .064-.066.064-.17 0-.237l-1.717-1.72h1.93c.092 0 .167-.075.167-.167-.005-.088-.078-.157-.167-.157zM273.236 150.338h-1.93l1.717-1.717c.064-.066.064-.17 0-.237-.031-.032-.074-.05-.118-.05-.045 0-.087.018-.119.05l-1.716 1.72v-1.937c0-.092-.075-.167-.167-.167-.091.002-.165.076-.167.167v1.937l-1.713-1.73c-.031-.032-.074-.05-.118-.05-.045 0-.087.018-.119.05-.064.066-.064.171 0 .237l1.717 1.717h-1.933c-.092.002-.165.076-.167.167 0 .092.075.167.167.167h1.933l-1.717 1.72c-.064.066-.064.171 0 .237.067.063.17.063.237 0l1.713-1.72v1.934c0 .092.075.167.167.167.092 0 .167-.075.167-.167v-1.934l1.716 1.72c.067.063.17.063.237 0 .064-.066.064-.17 0-.237l-1.717-1.72h1.93c.092 0 .167-.075.167-.167-.005-.088-.078-.157-.167-.157zM281.236 150.338h-1.93l1.717-1.717c.064-.066.064-.17 0-.237-.031-.032-.074-.05-.118-.05-.045 0-.087.018-.119.05l-1.716 1.72v-1.937c0-.092-.075-.167-.167-.167-.091.002-.165.076-.167.167v1.937l-1.713-1.73c-.031-.032-.074-.05-.118-.05-.045 0-.087.018-.119.05-.064.066-.064.171 0 .237l1.717 1.717h-1.933c-.092.002-.165.076-.167.167 0 .092.075.167.167.167h1.933l-1.717 1.72c-.064.066-.064.171 0 .237.067.063.17.063.237 0l1.713-1.72v1.934c0 .092.075.167.167.167.092 0 .167-.075.167-.167v-1.934l1.716 1.72c.067.063.17.063.237 0 .064-.066.064-.17 0-.237l-1.717-1.72h1.93c.092 0 .167-.075.167-.167-.005-.088-.078-.157-.167-.157zM289.236 150.338h-1.93l1.717-1.717c.064-.066.064-.17 0-.237-.031-.032-.074-.05-.118-.05-.045 0-.087.018-.119.05l-1.716 1.72v-1.937c0-.092-.075-.167-.167-.167-.091.002-.165.076-.167.167v1.937l-1.713-1.73c-.031-.032-.074-.05-.118-.05-.045 0-.087.018-.119.05-.064.066-.064.171 0 .237l1.717 1.717h-1.933c-.092.002-.165.076-.167.167 0 .092.075.167.167.167h1.933l-1.717 1.72c-.064.066-.064.171 0 .237.067.063.17.063.237 0l1.713-1.72v1.934c0 .092.075.167.167.167.092 0 .167-.075.167-.167v-1.934l1.716 1.72c.067.063.17.063.237 0 .064-.066.064-.17 0-.237l-1.717-1.72h1.93c.092 0 .167-.075.167-.167-.005-.088-.078-.157-.167-.157zM297.236 150.338h-1.93l1.717-1.717c.064-.066.064-.17 0-.237-.031-.032-.074-.05-.118-.05-.045 0-.087.018-.119.05l-1.716 1.72v-1.937c0-.092-.075-.167-.167-.167-.091.002-.165.076-.167.167v1.937l-1.713-1.73c-.031-.032-.074-.05-.118-.05-.045 0-.087.018-.119.05-.064.066-.064.171 0 .237l1.717 1.717h-1.933c-.092.002-.165.076-.167.167 0 .092.075.167.167.167h1.933l-1.717 1.72c-.064.066-.064.171 0 .237.067.063.17.063.237 0l1.713-1.72v1.934c0 .092.075.167.167.167.092 0 .167-.075.167-.167v-1.934l1.716 1.72c.067.063.17.063.237 0 .064-.066.064-.17 0-.237l-1.717-1.72h1.93c.092 0 .167-.075.167-.167-.005-.088-.078-.157-.167-.157z"/>
        <path fill="url(#prefix__a)" d="M360.912 198.007c-.011-.474-.07-.945-.177-1.407-.352-1.326-1.148-2.93-2.457-3.33-1.352-.413-2.657-.965-3.896-1.646-.235-4.204.729-8.506-.322-12.58-.392-1.49-1.038-2.917-1.21-4.442-.216-1.898.301-3.922-.455-5.67-.596-1.38-1.905-2.353-3.312-2.863-1.408-.51-2.924-.647-4.418-.784-1.881-.153-7.972-.875-10.097.807-.146.114-.278.246-.392.393-.046.064-.088.132-.125.203l-.02.032c-.042.082-.078.167-.105.255-.03.096-.052.194-.067.294v.706c.027.353.078.705.078 1.054.005.174-.011.348-.047.518-.13.463-.351.894-.65 1.27l-.07.102c-.044.063-.087.122-.126.185-.04.063-.07.11-.102.164-.032.055-.063.09-.09.142-.038.064-.072.131-.102.2 0 .039-.043.074-.06.113-.048.106-.087.217-.117.33-.091.34-.1.698-.023 1.043.106.44.287.858.537 1.235.098.16.204.318.313.474l.275.373c-.051.364-.079.73-.083 1.098 0 2.488 1.142 4.838 3.097 6.376.155 1.656.138 3.323-.051 4.976-.035.345-.078.694-.125 1.039-.048.345-.083.573-.13.859-.573.082-1.158.038-1.713-.13-.256-.114-.517-.215-.784-.302-1.14-.286-2.304.851-3.433.506 0 .055-.031.106-.051.157-.236-.146-.507-.226-.784-.231-.67-.032-1.215-.518-1.701-.977l-1.493-1.407c-.098-.087-.185-.184-.26-.29-.08-.153-.14-.315-.18-.483-.25-.812-.858-1.459-1.446-2.074-.111-.14-.259-.248-.427-.31-.065-.01-.131-.01-.196 0-.04-.055-.083-.107-.13-.157-.1-.116-.21-.226-.325-.33-.713-.658-.784-1.223-1.403-1.96-.54-.703-1.03-1.443-1.466-2.215-.05-.412-.121-.836-.207-1.263-.198-.978-.485-1.937-.859-2.862l-.784-1.738-.09.09c-.568-.846-1.176-1.309-1.72-1.2-.914.189-1.365 1.961-1.22 4.279l.314 2.353c0 .058.027.117.043.176-.056.279-.085.563-.086.847 0 .33.306.573.466.867.258.398.394.862.392 1.337-.02.168-.07.33-.078.494.021.368.15.722.368 1.02l1.96 3.293.392.69.024.032c.123.24.303.448.525.604.077.824.295 1.63.647 2.38.066.149.14.29.219.431.527.867 1.147 1.673 1.85 2.404l.933 1.047c.921 1.027 1.842 2.058 2.842 3.007.357.381.79.684 1.27.89.478.192 1.022.113 1.426-.207v1.458c.297.019.56.196.688.464.129.267.103.584-.068.826-.824 2.114-1.655 4.247-2.901 6.141.88.521 1.695 1.144 2.43 1.855.477.528.901 1.102 1.266 1.713.035.29.063.577.079.863.29 4.674-1.517 9.313-3.136 13.768-.467 1.262-.976 2.584-.937 3.897-.307.19-.6.4-.878.632.322.839.196 1.588.16 2.486-.01.538-.121 1.07-.324 1.568-.17.346-.36.682-.565 1.008-1.015 1.792-1.238 3.921-1.442 5.968-.122 1.235.356 2.745-.204 3.85-.968 1.899-1.827 3.922-1.96 6.032-.005.474-.065.947-.18 1.407-.122.392-.337.726-.447 1.11-.113.515-.14 1.045-.078 1.569.074 1.88-.205 3.756-.823 5.532-.49 1.4-1.031 2.898-.647 4.337-.946.994-1.53 2.277-1.658 3.643-.01.35-.052.697-.126 1.04-.12.349-.277.684-.47 1-.789 1.437-1.158 3.067-1.066 4.705-1.176 1.596-1.764 3.564-2.113 5.52-.349 1.957-.501 3.95-.948 5.883-.596 2.556-1.674 5.14-1.886 7.76-1.27.811-1.818 2.384-2.061 3.87-.243 1.486-.282 3.047-.906 4.42-.321.713-.784 1.352-1.09 2.081-.214.581-.371 1.181-.47 1.792-.188.957-.352 2.024-.121 2.941-.333.353-.72.648-1.149.875.063-.243.114-.486.157-.733-1.011.917-2.845.596-3.653 1.697-.504.739-.33 1.744.392 2.27.253.155.526.272.811.35 1.96.627 3.975 1.259 5.99.925.238-.025.468-.099.678-.215.262-.193.477-.443.63-.73.302-.478.604-.957.902-1.435.722.216 1.456.387 2.2.514.074.627.128 1.255.156 1.882.392.078.917.102 1.101-.263.056-.138.079-.287.067-.435 0-.278.04-.647.063-1.024h.078c1.196.049 2.386-.192 3.469-.701-.42-3.475.964-6.87 2.163-10.156 1.266-3.459 2.352-6.98 3.446-10.502.784-2.478 1.65-4.878 2.418-7.36.967-3.137 1.938-6.274 2.912-9.41.424-1.38.85-2.746 1.337-4.118 1.023-2.777 2.237-5.48 3.633-8.09.392-.74.784-1.474 1.106-2.242.392-.938.67-1.918.983-2.886.684-1.988 1.506-3.924 2.462-5.796.027-.051.047-.098.074-.145.318 1.298.635 2.615.847 3.921.286 1.601.309 3.238.067 4.847-.189 1.094-.545 2.176-.502 3.286.059 1.533.878 2.925 1.282 4.403.26 1.107.407 2.237.439 3.373.11 1.764 1.066 3.744.392 5.38-2.097 5.18-1.082 11.03-2.278 16.469-.615 2.792-2.5 5.415-2.351 8.27.104 2.026.282 4.046.533 6.062.06.636.226 1.257.49 1.839.156.306.335.6.537.878-.173.067-.318.243-.443.616-.322.98 0 2.196.87 2.745.354.19.737.322 1.133.392.532.151 1.084.228 1.638.227.172-.009.344-.03.513-.062.606.254 1.225.477 1.854.666 0 .161.032.322.051.483.002.17.076.33.204.443.098.045.206.064.314.055h2.128v-.534c.492.052.984-.108 1.352-.439.189-.24.322-.518.392-.816.58-1.968 1.156-3.938 1.729-5.909.686-2.179.971-4.464.842-6.744-.756-7.227.906-14.478.365-21.724-.326-4.356-.102-8.735.666-13.034.177-.973.392-1.96.47-2.93.173-1.827-.039-3.674.09-5.49.044-.634.13-1.266.208-1.897.537-3.918.819-7.868.843-11.823-.012-1.31-.093-2.619-.243-3.92.409-.105.78-.322 1.07-.628.349-.455.259-1.094.255-1.675 0-1.388.584-2.697 1.054-4.007.604-1.807 1.099-3.648 1.482-5.513.405-1.504.626-3.051.658-4.608 0-.157-.007-.314-.023-.47.148-.103.27-.237.36-.392.103-.23.166-.475.189-.726.14-1 .286-2.004.427-3.008.104-.718.208-1.436.31-2.152l1.246-8.702c.106-.756.215-1.51.321-2.262l.326-2.25c.035-.268.074-.534.102-.785.956-1.6.043-3.733-.06-5.553zm-10.399 32.578c-.462-1.098-.893-2.223-.784-3.407h-.043c.103-.365.085-.753-.05-1.106-.122-.287-.334-.53-.463-.816-.14-.35-.211-.722-.212-1.098-.097-2.385.09-4.773.56-7.113l.157-.827c.165-.095.315-.213.447-.35.206-.234.377-.499.506-.784.443-.89.846-1.796 1.219-2.717.121-.298.298-.643.6-.718-.063 2.294.172 4.635-.761 6.706-.177.334-.309.69-.392 1.058-.086.585.157 1.177.07 1.757-.042.302-.172.58-.223.879-.079.297.008.615.228.83.051.037.108.066.168.087-.023.157-.043.318-.059.47-.031.322-.047.624-.066.812-.09.96-.126 1.923-.106 2.886 0 1.04.039 2.079.023 3.137.015.304-.036.608-.149.89-.077.146-.178.279-.297.393-.114-.353-.24-.663-.373-.969z"/>
        <ellipse cx="318.419" cy="179.203" fill="#FBBEBE" rx="2.213" ry="6.269" transform="rotate(-11.58 318.42 179.203)"/>
        <path fill="#3F3D56" d="M337.528 311.56c-.329.881 0 1.983.889 2.462.36.17.747.29 1.149.356.543.136 1.105.204 1.67.202.692-.028 1.356-.27 2.05-.355.079-.018.164-.008.235.028.07.067.103.159.088.249.008.35.037.698.088 1.045.002.154.078.3.209.401.1.041.21.059.32.05h2.17c.05-1.692-.16-3.382-.62-5.024-.03-.126-.085-.246-.16-.355-.185-.18-.427-.303-.693-.355-.53-.196-1.104-.285-1.678-.26-.7.082-1.285.483-1.882.817-.596.334-1.409.63-2.134.459-.724-.17-1.329-.707-1.701.28z"/>
        <path fill="#FBBEBE" d="M306.961 308.833c-.58.66-1.293 1.176-2.084 1.507l-.35.178c-.05.02-.09.055-.119.101-.013.064 0 .131.038.183.6.985 1.742 1.427 2.797 1.081.227-.06.437-.177.614-.34.29-.366.456-.826.472-1.304.115-.494.096-1.013-.057-1.495-.53-1.269-.724-.693-1.31.089z"/>
        <path fill="#3F3D56" d="M315.31 314.249c.013.144-.01.288-.064.422-.18.35-.684.33-1.076.255-.059-1.29-.217-2.575-.472-3.842-.745-.034-1.282.666-1.682 1.293l-1.029 1.617c-.149.278-.358.52-.614.707-.206.112-.431.183-.664.21-1.966.323-3.951-.29-5.848-.898-.28-.074-.547-.187-.795-.335-.703-.511-.873-1.482-.384-2.198.795-1.065 2.58-.761 3.571-1.644-.103.621-.273 1.23-.507 1.815 1.325-.198 2.216-1.4 3.283-2.203.268-.225.591-.377.937-.44.259-.022.52.005.768.079 1.23.307 2.382.868 3.379 1.647.403.316 1.033.76 1.21 1.248.187.582-.012 1.647-.012 2.267z"/>
        <circle cx="341.903" cy="177.5" r="8.5" fill="#FBBEBE"/>
        <path fill="#3F3D56" d="M358.403 224.449c-.031 1.485-.24 2.961-.624 4.396-.365 1.782-.836 3.54-1.411 5.265-.445 1.253-1.001 2.509-.997 3.836 0 .553.09 1.166-.247 1.602-.299.307-.676.524-1.09.628-.419.112-.76.418-.919.824-.35-.528-.613-1.11-.777-1.722-.67-2.066-1.292-4.144-1.867-6.232-.107-.244-.087-.526.053-.752.094-.083.205-.146.324-.185.383-.157.734-.384 1.035-.669.141-.126.258-.278.343-.448.109-.269.159-.559.146-.85 0-.996 0-1.989-.026-2.986-.016-.92.02-1.84.104-2.756 0-.18.034-.47.064-.779.056-.59.168-1.275.485-1.504.475-.32 1.894.109 2.431.184.927.128 1.868.279 2.771.455.132.555.2 1.123.202 1.693zM325.381 186.01c-.317.618-1.08.916-1.667 1.307l-2.011 1.347c-.272.238-.632.359-.996.332-.331-.119-.599-.363-.743-.677.002-.01.002-.02 0-.03l-.416-.682-1.984-3.243c-.22-.29-.35-.637-.37-.998 0-.166.06-.321.076-.488.005-.467-.133-.925-.397-1.315-.159-.29-.476-.53-.468-.855-.015-.428.06-.853.222-1.25.208-.368.507-.679.87-.906.186-.131.376-.255.575-.387.105-.07.222-.122.345-.155.33-.065.655.202.988.213 1.432.937 1.984 2.709 3.111 3.986.635.728.698 1.285 1.417 1.935.115.1.226.209.333.321.142.151.262.32.357.503.131.333.92.724.758 1.041z"/>
        <path fill="#FBBEBE" d="M339.002 185.07c.575 1.258 1.024 2.64.858 4.02-.034.375-.15.737-.337 1.059-.556.882-1.723 1.042-2.74 1.094-.432-.038-.86.106-1.19.399-.279.42-.248.98.074 1.365.327.36.732.634 1.182.799 1.608.73 3.343 1.333 5.09 1.166.81-.08 1.6-.324 2.407-.447.88-.099 1.765-.15 2.65-.152 1.052-.04 2.099-.148 3.146-.256l2.774-.283c.152.002.299-.053.414-.156.204-.247-.058-.61-.313-.798-1.473-1.126-3.347-1.9-4.185-3.594-.386-.798-.506-1.748-.792-2.61-.286-.863-.742-1.642-.92-2.52-.095-.77-.137-1.547-.127-2.324.01-.783-.267-1.541-.773-2.124-.553-.53-1.353-.666-2.102-.698-1.847-.084-3.814.37-5.124 1.716-.352.364-.653.799-1.016 1.126-.363.328-.858.424-.618.855.24.43.71.698.966 1.078.258.409.484.839.676 1.285z"/>
        <path fill="#3F3D56" d="M355.234 196.19c-.49 3.054-1.286 6.047-2.376 8.933-.548 1.303-1.015 2.64-1.397 4.004-.3 1.229-.241 2.545-.517 3.778-.341 1.534-.683 3.072-.959 4.618-.462 2.361-.647 4.77-.55 7.176 0 .379.071.754.209 1.106.128.285.334.53.454.824.182.521.143 1.096-.109 1.586-.199.454-.469.872-.8 1.237-3.617 1.102-7.488.741-11.257.975-3.474.214-6.987.944-10.411.337-.388-1.586.26-3.247.815-4.793 1.611-4.491 3.393-9.17 3.106-13.875-.03-.549-.091-1.096-.183-1.637-.563-3.334.05-6.787 1.033-10.018.61-2.014.582-4.159.442-6.256-.069-.681-.078-1.367-.027-2.05.056-.697.31-1.362.73-1.914 0-.028.035-.056.054-.084.02-.027.171-.023.291 0 .062.027.133.027.195 0l.042-.027c.034-.025.08-.025.113 0 .09.055.14.245.334.281.286.044.575.072.865.083.349.01.695.061 1.033.151h.046c.505.087 1.023.042 1.507-.13.321-.083.632-.205.924-.366.085-.095.62-.182.73-.25.353-.217.275-1.24.349-1.66.04-.422.138-.835.29-1.23.36-.59.982-.96 1.662-.986.669-.017 1.337.044 1.992.182 1.448.21 2.93.174 4.351.515.715.17 1.495.428 2.15.095.18.044.207.203.207.397-.017.184-.054.367-.11.543-.248 1.094.595 2.101 1.371 2.894.328.374.715.689 1.145.932.389.182.777.257 1.165.455.314.172.581.421.776.726.224.35.375.742.443 1.154.083.767.04 1.543-.128 2.295z"/>
        <path fill="#000" d="M354.232 197.072c-.502 3.039-1.32 6.018-2.44 8.89-.562 1.297-1.041 2.628-1.435 3.985-.306 1.223-.247 2.533-.53 3.76-.35 1.527-.701 3.058-.984 4.597-.084.047-.172.09-.26.13-.496.235-1.021.402-1.562.497-.972.117-1.956.085-2.918-.094l-5.69-.754c-2.271-.304-4.691-.67-6.378-2.194-.936-.836-1.55-1.94-2.224-3.006-.031-.547-.094-1.09-.187-1.63-.578-3.318.051-6.755 1.06-9.97.626-2.005.598-4.14.454-6.227-.07-.678-.08-1.36-.027-2.04.057-.694.318-1.356.749-1.906.116-.033.235-.06.355-.078.08-.017.161-.027.243-.032h.116c.134 0 .268.016.398.047.272.086.538.187.798.304h.047c.342.112.701.162 1.06.15.527 0 1.07-.083 1.595-.118.65-.1 1.316.017 1.89.335.37.295.722.613 1.052.951.4.31.848.552 1.328.714 3.432 1.297 7.239 1.217 10.612-.22.324-.183.692-.276 1.065-.27.275.054.536.165.765.324.24.139.474.273.717.395.23.348.385.739.455 1.148.091.772.05 1.554-.124 2.312z" opacity=".1"/>
        <path fill="#D59D15" d="M358.34 194.217c-1.547-.48-3.033-1.142-4.429-1.973-.224-.158-.478-.269-.746-.323-.364-.005-.723.088-1.041.268-3.286 1.438-6.995 1.517-10.338.221-.467-.164-.904-.405-1.294-.714-.323-.337-.665-.655-1.026-.95-1.278-.841-3.046.145-4.475-.395-.254-.115-.513-.217-.777-.304-1.131-.288-2.28.856-3.392.509-.413 1.14-.72 2.32-.913 3.519-.158 1.378-.242 2.763-.253 4.15 0 .832-.038 1.665 0 2.497.277.046.522.208.676.446.104.278.08.589-.062.848-.812 2.119-1.635 4.26-2.867 6.158.868.526 1.674 1.15 2.401 1.862 1.36 1.46 2.028 3.508 3.497 4.857 1.655 1.519 4.013 1.89 6.216 2.19l5.544.753c.939.178 1.899.211 2.848.098.526-.097 1.037-.266 1.519-.5.315-.134.602-.327.847-.569.204-.236.373-.502.5-.789.44-.891.84-1.803 1.209-2.726.128-.327.322-.71.672-.737 2.06-1.886 4.002-3.82 6.06-5.705.828-.696 1.57-1.491 2.211-2.367 1.022-1.535.094-3.708 0-5.562-.01-.475-.07-.947-.174-1.409-.334-1.345-1.12-2.955-2.413-3.353z"/>
        <path fill="#000" d="M325.383 185.753c-.292.672-.992.996-1.532 1.42l-1.848 1.462c-.25.259-.58.39-.915.361-.304-.13-.55-.394-.682-.735v-.302c-.014-.34.025-.68.116-1.004.181-.476.462-.891.817-1.21.687-.75 1.503-1.322 2.396-1.68.139-.063.29-.08.437-.051.057.017.111.044.16.08.131.164.242.347.329.546.146.344.871.769.722 1.113z" opacity=".1"/>
        <path fill="#D59D15" d="M330.068 190.685c-.674-.032-1.226-.53-1.718-1.002l-1.504-1.423c-.1-.087-.188-.187-.262-.299-.08-.157-.142-.324-.182-.497-.319-.817-.819-1.547-1.46-2.134-.112-.145-.262-.254-.433-.315-.161-.03-.328-.014-.48.048-.972.345-1.86.896-2.607 1.617-.386.307-.692.707-.889 1.164-.1.311-.143.639-.127.966.01 1.068.245 2.12.69 3.087.068.15.144.3.223.445.53.891 1.155 1.72 1.865 2.47l.944 1.074c.929 1.06 1.857 2.118 2.865 3.092.361.393.8.704 1.286.914.498.206 1.067.113 1.476-.243.19-.224.333-.485.42-.768.612-1.616 1.19-3.298 1.227-5.04.008-.697-.021-1.395-.088-2.09-.06-.735-.571-1.022-1.246-1.066z"/>
        <path fill="#33313F" d="M353.403 245.926c-.023 3.913-.303 7.82-.838 11.698-.078.626-.164 1.252-.207 1.878-.13 1.817.082 3.642-.09 5.447-.09.976-.294 1.945-.466 2.898-.766 4.253-.99 8.586-.666 12.895.54 7.17-1.116 14.343-.364 21.493.091 1.39.013 2.787-.231 4.159-.14.85-.343 1.69-.607 2.513-.572 1.947-1.146 3.892-1.723 5.835-.068.295-.201.572-.391.809-.404.347-.94.504-1.468.432-2.26-.07-4.386-1.04-6.437-1.984-.236-.093-.455-.224-.646-.39-.427-.439-.392-1.131-.58-1.711-.188-.58-.697-1.124-.986-1.72-.239-.562-.383-1.16-.427-1.77-.261-1.991-.439-3.99-.533-5.998-.149-2.824 1.73-5.423 2.35-8.17 1.174-5.399.18-11.187 2.266-16.31.658-1.619-.297-3.58-.391-5.322-.034-1.124-.18-2.242-.439-3.338-.391-1.462-1.217-2.84-1.276-4.356-.043-1.097.313-2.167.497-3.249.244-1.591.222-3.212-.066-4.796-.208-1.307-.525-2.614-.842-3.89l-.07.144c-.955 1.852-1.775 3.77-2.456 5.738-.313.953-.587 1.925-.978 2.851-.321.778-.717 1.49-1.104 2.221-1.39 2.58-2.6 5.25-3.622 7.994-.486 1.346-.912 2.723-1.335 4.073l-2.902 9.336c-.783 2.455-1.64 4.828-2.408 7.279-1.084 3.5-2.169 6.97-3.43 10.394-1.174 3.248-2.572 6.613-2.153 10.044-1.08.505-2.265.743-3.457.697-2.018-.178-3.998-.655-5.873-1.416-.748-.277-1.523-.588-2.028-1.198-.87-1.055-.654-2.599-.392-3.941.1-.605.256-1.2.47-1.774.298-.716.783-1.35 1.089-2.058.614-1.357.653-2.894.896-4.368.243-1.475.783-3.03 2.052-3.832.215-2.59 1.288-5.147 1.88-7.68.446-1.917.594-3.89.947-5.834.352-1.945.92-3.89 2.102-5.466-.093-1.624.276-3.242 1.065-4.668.19-.313.347-.646.466-.992.073-.338.115-.682.125-1.027.13-1.352.712-2.621 1.653-3.606-.392-1.42.152-2.902.642-4.28.616-1.756.895-3.613.822-5.473-.06-.519-.036-1.044.074-1.556.11-.389.325-.72.45-1.093.112-.457.171-.926.177-1.396.153-2.105 1.01-4.089 1.958-5.968.563-1.097.086-2.587.203-3.808.204-2.03.427-4.131 1.441-5.901.188-.335.392-.654.56-1 .204-.494.314-1.022.325-1.556.035-.89.16-1.63-.16-2.459 2.094-1.73 4.952-2.217 7.677-2.334 2.725-.116 5.482.129 8.148-.447.783-.175 1.566-.416 2.392-.533 1.876-.272 3.779.152 5.63.572-.129 1.167.302 2.287.784 3.373 1.88 4.396 2.866 9.118 2.901 13.895z"/>
        <path fill="#000" d="M343.403 246l-4.157 10c-.192-1.3-.485-2.6-.778-3.87l-.065.143v-.209l2.265-5.329 2.735-.735zM358.403 224.535c-.251.269-.55.43-.864.461-.48.025-.959-.069-1.416-.277l-3.41-1.221c-.106-.038-.21-.09-.31-.158.057-.852.17-1.84.492-2.171.482-.462 1.92.157 2.466.266.94.184 1.894.402 2.811.657.142.799.22 1.618.231 2.443z" opacity=".1"/>
        <path fill="#D59D15" d="M361.093 201.281c.076.333.183.662.247 1 .106.826.078 1.666-.084 2.483l-.326 2.296-.326 2.307-1.26 8.88-.31 2.2-.437 3.07c-.02.255-.085.505-.19.738-.265.443-.732.722-1.244.743-.504.016-1.006-.053-1.487-.205l-3.576-.907c-.157-.028-.306-.09-.437-.18-.223-.22-.31-.544-.23-.847.05-.305.182-.59.226-.895.087-.594-.16-1.204-.072-1.794.086-.376.22-.738.397-1.08 1.193-2.66.501-5.766.907-8.655.364-2.274 1.316-4.411 2.758-6.196.89-1.127 1.912-2.14 3.044-3.018.445-.35 1.152-1.068 1.713-1.204.719-.153.568.758.687 1.264z"/>
        <path fill="#33313F" d="M334.019 167.007c-.256.83.143 1.744-.039 2.59-.197.934-1.058 1.582-1.302 2.52-.388 1.427.798 2.728 1.667 3.914 3.216 4.406 2.794 10.504 1.693 15.878-.885 4.311-2.11 8.543-3.662 12.654-.485 1.277-1.02 2.574-1.973 3.531 1.783-.522 3.678-1.048 5.465-.542 2.263.641 4.216 2.883 6.51 2.373 1.38-.312 2.35-1.562 3.59-2.254 2.325-1.277 5.127-.474 7.72-.063.558.134 1.143.104 1.686-.087.414-.228.766-.558 1.023-.961 1.157-1.515 1.85-3.344 1.992-5.26.124-1.928-.569-3.82-1.903-5.192-.55-.53-1.21-.957-1.632-1.581-.41-.73-.63-1.555-.64-2.397-.305-4.35.733-8.79-.336-12.998-.388-1.499-1.02-2.934-1.19-4.469-.213-1.91.294-3.954-.45-5.702-.585-1.388-1.876-2.373-3.267-2.879-1.391-.506-2.88-.648-4.356-.79-2.124-.183-9.708-1.112-10.596 1.715z"/>
        <g fill="#000" opacity=".1">
            <path d="M5.79 26c-.884 4.265-2.106 8.452-3.655 12.52.268-.539.494-1.104.708-1.666 1.559-4.083 2.788-8.288 3.675-12.572C7.626 18.94 8.05 12.89 4.822 8.51 4.044 7.464 3.045 6.333 3.08 5.107c-.287.37-.511.788-.661 1.234-.389 1.418.801 2.71 1.672 3.889C7.32 14.602 6.895 20.66 5.791 26zM3.772 3.438c.312-.392.545-.842.685-1.324C4.517 1.53 4.5.94 4.41.36c-.3.228-.524.542-.646.9-.229.695.035 1.45.008 2.176zM26.95 38.826c-.257.4-.61.726-1.027.95-.543.195-1.131.225-1.691.087-2.602-.393-5.445-1.202-7.747.067-1.248.684-2.217 1.925-3.605 2.24-2.298.518-4.258-1.71-6.53-2.358-1.61-.452-3.305-.078-4.927.393-.322.694-.757 1.329-1.287 1.878 1.789-.519 3.69-1.041 5.483-.538 2.272.636 4.232 2.864 6.534 2.357 1.384-.31 2.356-1.552 3.6-2.24 2.334-1.268 5.146-.47 7.748-.062.56.133 1.147.103 1.691-.087.416-.226.77-.554 1.027-.954.705-.94 1.249-1.991 1.61-3.112-.26.48-.554.941-.879 1.38z" transform="translate(330.403 166)"/>
        </g>
    </g>
</svg>
