<svg xmlns="http://www.w3.org/2000/svg" width="382" height="296" viewBox="0 0 382 296">
    <g fill="none" fill-rule="evenodd" transform="translate(-33 -20)">
        <circle cx="235" cy="159" r="139" fill="#F2F2F2" fill-rule="nonzero"/>
        <path fill="#3F3D56" fill-rule="nonzero" d="M373 297.73c0 5.886-76.112 18.27-170 18.27S33 303.616 33 297.73c0-5.886 76.112-3.045 170-3.045s170-2.84 170 3.045z"/>
        <path fill="#000" fill-rule="nonzero" d="M373 297.73c0 5.886-76.112 18.27-170 18.27S33 303.616 33 297.73c0-5.886 76.112-3.045 170-3.045s170-2.84 170 3.045z" opacity=".1"/>
        <ellipse cx="203" cy="298.5" fill="#3F3D56" fill-rule="nonzero" rx="170" ry="10.5"/>
        <ellipse cx="204.5" cy="294.5" fill="#000" fill-rule="nonzero" opacity=".1" rx="68.5" ry="6.5"/>
        <path fill="#3F3D56" fill-rule="nonzero" d="M309 249c0 23.768 14.76 43 33 43"/>
        <path fill="#D59D15" fill-rule="nonzero" d="M342 291c0-23.768 16.549-43 37-43M321 251c0 22.11 9.393 40 21 40"/>
        <path fill="#3F3D56" fill-rule="nonzero" d="M342 291c0-30.4 19.232-55 43-55"/>
        <path fill="#A8A8A8" fill-rule="nonzero" d="M335 291.574s4.569-.147 5.946-1.17c1.376-1.021 7.027-2.242 7.369-.602.341 1.639 6.866 8.153 1.708 8.196-5.158.044-11.985-.837-13.36-1.71-1.374-.873-1.663-4.714-1.663-4.714z"/>
        <path fill="#000" fill-rule="nonzero" d="M350.116 297.466c-5.159.04-11.986-.781-13.36-1.595-1.047-.62-1.464-2.845-1.603-3.871l-.153.006s.29 3.583 1.664 4.397c1.374.814 8.201 1.636 13.36 1.596 1.489-.012 2.003-.527 1.975-1.29-.207.46-.775.749-1.883.757z" opacity=".2"/>
        <path fill="#3F3D56" fill-rule="nonzero" d="M166 248H250V297H166z"/>
        <path fill="#2F2E41" fill-rule="nonzero" d="M267.367 248h-61.734c-4.216 0-7.633-3.415-7.633-7.628V212.11c0-.83.341-1.622.944-2.193l32.712-30.987c2.716-2.572 6.972-2.572 9.688 0l31.19 29.545c1.574 1.491 2.466 3.564 2.466 5.732v26.166c0 4.213-3.417 7.628-7.633 7.628z"/>
        <path fill="#000" fill-rule="nonzero" d="M197 212h77v25.19c0 5.97-4.806 10.81-10.735 10.81h-55.53c-2.847 0-5.578-1.139-7.59-3.166-2.014-2.027-3.145-4.777-3.145-7.644V212z" opacity=".1"/>
        <rect width="57" height="57" x="208" y="188" fill="#D59D15" fill-rule="nonzero" rx="11.336"/>
        <path fill="#000" fill-rule="nonzero" d="M265 214L265 245 208 245 208 214 236.5 227.632z" opacity=".1"/>
        <path fill="#2F2E41" fill-rule="nonzero" d="M236.5 229.054l-36.382-17.904c-.457-.225-.996-.195-1.426.08-.43.275-.692.756-.692 1.273v30.804c0 1.245.486 2.438 1.35 3.318.864.88 2.037 1.375 3.26 1.375h67.78c2.546 0 4.61-2.101 4.61-4.693v-30.276c0-.632-.319-1.218-.844-1.554-.525-.335-1.183-.372-1.741-.098L236.5 229.054z"/>
        <path fill="#F2F2F2" fill-rule="nonzero" d="M213 193H229V195H213zM211 202H258V203H211zM211 206H258V207H211zM211 210H258V211H211z"/>
        <circle cx="209.5" cy="189.5" r="6.5" fill="#FFF" fill-rule="nonzero"/>
        <path fill="#57B894" fill-rule="nonzero" d="M210 181c-3.236 0-6.153 1.95-7.39 4.938-1.239 2.99-.555 6.43 1.733 8.719 2.288 2.288 5.73 2.972 8.719 1.734C216.05 195.153 218 192.236 218 189c-.013-4.413-3.587-7.987-8-8zm-1.642 12.265l-4.1-4.1 1.15-1.15 2.954 2.954 6.234-6.234 1.15 1.15-7.388 7.38z"/>
        <path fill="#3F3D56" fill-rule="nonzero" d="M243 61H415V133H243z"/>
        <path fill="#FF6584" fill-rule="nonzero" d="M312 116h-19.026c-1.299-7.61-1.299-15.39 0-23H312c-2.143 7.513-2.143 15.487 0 23zM367 116h-19.026c-1.299-7.61-1.299-15.39 0-23H367c-2.143 7.513-2.143 15.487 0 23z"/>
        <path fill="#D59D15" fill-rule="nonzero" d="M285 101h-19.026c-1.299-7.61-1.299-15.39 0-23H285c-2.143 7.513-2.143 15.487 0 23zM320 101h19.026c1.299-7.61 1.299-15.39 0-23H320c2.143 7.513 2.143 15.487 0 23zM373 101h19.026c1.299-7.61 1.299-15.39 0-23H373c2.143 7.513 2.143 15.487 0 23z"/>
        <path fill="#2F2E41" fill-rule="nonzero" d="M128.144 80.01c-.551-.046-1.102.077-1.582.35-.454.387-.82.867-1.07 1.407-1.156 2.024-2.723 3.786-4.6 5.175-1.367.998-3.105 2.241-2.87 4.08.123.607.348 1.19.666 1.722 1.26 2.535 4.702 4.494 4.363 7.387 1.253-2.089-.423-3.122.83-5.21.597-.995 1.634-2.118 2.534-1.493.302.209.5.584.814.767.75.438 1.547-.399 2.21-.992 2.288-2.045 5.54-1.51 8.387-.872 1.344.3 2.82.695 3.614 1.975 1.045 1.681-.992 3.498-1.507 5.399-.085.329-.003.678.22.936.222.257.557.389.897.353.854-.084 1.865-.152 1.916-.526 1.075.038 2.391-.083 2.852-1.197.14-.441.215-.9.22-1.363.17-1.872.967-3.58 1.496-5.36.528-1.782.758-3.87-.134-5.45-.318-.525-.712-1.002-1.168-1.414-5.061-4.878-11.715-5.682-18.088-5.675z"/>
        <path fill="#A0616A" fill-rule="nonzero" d="M123.25 104.744s1.139 9.15-3.04 9.883c-4.177.732 3.799 13.177 3.799 13.177L143 130l-4.558-14.641s-3.038-1.098-1.14-8.42c1.9-7.32-14.053-2.195-14.053-2.195zM113 265L114.44 285 122 285 119.84 265zM170 225.75L171.154 243 180 239.25 176.538 225z"/>
        <path fill="#2F2E41" fill-rule="nonzero" d="M107 185.947s.374 21.63 2.62 28.716c2.247 7.086 1.872 7.459 1.498 8.578-.374 1.118-.749.372-.749 2.237 0 1.865-.748 31.327 0 33.937.749 2.61-2.246 7.086 0 7.459 2.246.373 12.728 0 13.103-2.238.374-2.237-2.995-2.983-1.498-4.475 1.498-1.492 3.744-32.072 3.744-32.072l5.241-21.258 9.733-11.188h20.59l6.364 24.614s-2.62 7.086-.749 7.086c1.872 0 13.103 2.237 13.103-5.967 0-8.205-3.744-32.445-4.492-33.191-.749-.746.374-3.357-.749-4.476-1.123-1.118-14.226-8.95-19.092-10.442-4.867-1.492-11.694-3.267-11.694-3.267L107 185.947zM179.898 236.298s-5.574-1.862-8.174 3.723c-2.601 5.584-1.487 7.073-1.487 7.073s8.546 2.978 10.032 1.489c.647-.648 2.7-.873 4.813-.92 3.22-.073 4.076-4.636 1.036-5.698-.091-.032-.183-.06-.276-.083-2.972-.745-5.944-5.584-5.944-5.584z"/>
        <circle cx="132" cy="99" r="11" fill="#A0616A" fill-rule="nonzero"/>
        <path fill="#D59D15" fill-rule="nonzero" d="M117.404 119.242s18.43 3.737 22.945-2.242c4.513-5.98 6.394 16.816 6.394 16.816L149 157.73l-3.385 13.08s-17.68 14.2-23.321 15.32C116.65 187.254 108 188 108 188s2.633-41.48 2.633-42.227c0-.747 6.77-26.531 6.77-26.531z"/>
        <path fill="#575A89" fill-rule="nonzero" d="M122.906 112.065s-4.075-2.334-5.196-.091c-1.121 2.243-11.587 7.851-12.708 7.851-1.121 0 2.243 31.031.748 34.77-1.495 3.738-8.597 31.03-4.486 33.274 4.112 2.243 1.122-2.243 5.233 3.365 4.111 5.608 24.294 5.608 25.416 3.365 1.121-2.244-8.97-19.068-7.102-34.77 1.87-15.703 4.86-37.387 2.243-40.378-2.616-2.99-4.148-7.386-4.148-7.386zM137 114.799l.518-1.799s15.48 5.177 16.224 8.555c.744 3.377.372 27.022-2.232 28.898-2.605 1.877-6.325 4.879-3.72 9.383 2.604 4.503 5.58 9.382 7.812 9.758 2.232.375 6.325 3.002 5.209 5.63-1.116 2.626-14.51-2.253-14.51-2.253s-8.929-6.755-8.557-17.264C138.116 145.2 137 114.8 137 114.8z"/>
        <path fill="#A0616A" fill-rule="nonzero" d="M150.162 158l-9.118 16.881s-13.297 13.505-5.699 15.006c7.598 1.5 11.777-12.38 11.777-12.38l9.878-13.88-6.838-5.627z"/>
        <path fill="#2F2E41" fill-rule="nonzero" d="M128.453 83.007c-.454-.034-.909.055-1.318.256-.37.271-.674.621-.891 1.025-1.002 1.511-2.308 2.796-3.834 3.77-1.139.727-2.587 1.634-2.392 2.973.106.45.294.875.555 1.255 1.055 1.866 1.474 4.026 1.196 6.152l3.132-4.566c.497-.725 1.361-1.543 2.112-1.088.251.153.416.426.678.56.624.319 1.289-.291 1.842-.723 1.906-1.49 4.617-1.1 6.989-.636 1.12.22 2.35.507 3.011 1.439 1.1 1.549-.048 3.787.594 5.576.363-.255.608-.647.678-1.085.895.027 1.993-.061 2.376-.873.117-.318.18-.654.184-.993.141-1.364.806-2.608 1.246-3.906.44-1.298.632-2.82-.111-3.97-.272-.39-.6-.738-.974-1.031-4.217-3.554-9.762-4.14-15.073-4.135z"/>
        <path fill="#575A89" fill-rule="nonzero" d="M149.993 120l3.486.917s8.112 20.598 6.24 34.694c-1.87 14.096-2.992 11.128-2.992 11.128s-2.993-6.677-9.727-5.193L149.993 120z"/>
        <path fill="#2F2E41" fill-rule="nonzero" d="M113.144 282.103c-.902 1.238-.72 3.006-1.52 4.314-.692 1.133-1.998 1.727-2.864 2.731-.276.334-.523.692-.736 1.07-.804 1.358-1.457 3.1-.666 4.465.637 1.1 1.975 1.529 3.203 1.821 1.551.37 3.163.666 4.732.384 1.57-.283 3.103-1.253 3.662-2.76.11-.378.241-.75.392-1.115.85-1.69 3.518-1.708 4.389-3.388.609-1.175.049-2.596-.51-3.797l-1.71-3.666c-.568-1.216-2.868-.516-4.067-.808-1.563-.38-3.18-.799-4.305.75z"/>
        <path fill="#D59D15" fill-rule="nonzero" d="M120 198.09L126.635 207 152.507 193.816 154 193.059 121.674 191z"/>
        <path fill="#000" fill-rule="nonzero" d="M121 198.691L127.246 207 153 194z" opacity=".2"/>
        <path fill="#D59D15" fill-rule="nonzero" d="M118 209L119.194 200.98 154 193z"/>
        <path fill="#A0616A" fill-rule="nonzero" d="M100 165.609l15.785 24.225s9.772 12.3 12.779 6.709c3.007-5.59-10.524-14.908-10.524-14.908L107.893 163 100 165.609z"/>
        <path fill="#575A89" fill-rule="nonzero" d="M108.307 120.742l-3.03-.742s-6.06 1.855-7.575 9.648c-1.515 7.793-.379 38.964 1.515 39.335 1.894.371 9.353-5.428 10.547-4.198 1.194 1.23-2.593-5.08-1.457-8.419 1.136-3.34 0-35.624 0-35.624z"/>
    </g>
</svg>
