<svg xmlns="http://www.w3.org/2000/svg" width="570" height="423" viewBox="0 0 570 423">
    <g fill="none" fill-rule="evenodd">
        <path fill="#F2F2F2" fill-rule="nonzero" d="M410.219 250.584l4.486-2.767c.426-.27.847-.558 1.28-.828-19.822-3.407-34.605-20.133-35.54-40.21a42.355 42.355 0 0 1 3.699-19.506 42.912 42.912 0 0 1 27.51-23.718l-.222 17.644 9.699-19.205a.385.385 0 0 1 .12 0 42.857 42.857 0 0 1 30.847 11.116 42.805 42.805 0 0 1 13.946 29.66c.036.815 0 1.62 0 2.4 3.375-3.847 6.438-7.97 8.468-12.49 4.107-9.152 4.203-19.517 3.861-32.114-.649-24.967-1.723-50.12-3.129-75.2-20.919-2.322-37.047-19.494-38.043-40.505a49.4 49.4 0 0 1 0-3.89c0-.317 0-.641.048-.96.084-1.242.198-2.472.39-3.684 0-.204.072-.396.108-.6.176-1.029.387-2.045.63-3.05.097-.371.187-.75.29-1.122.3-1.092.6-2.166 1.014-3.229.126-.354.276-.696.408-1.044.307-.78.637-1.548.985-2.31.186-.403.367-.799.565-1.2.048-.103.09-.205.144-.307 9.33-18.417 30.487-27.55 50.3-21.714l-.288 22.963 9.608-18.966c16.177 9.254 24.45 27.948 20.418 46.135h.048c-.066.306-.162.6-.234.9a40.539 40.539 0 0 1-.432 1.68 50.996 50.996 0 0 1-.667 2.119c-.18.522-.354 1.056-.552 1.572-.289.757-.6 1.495-.95 2.233-.191.432-.365.87-.6 1.296a40.115 40.115 0 0 1-1.801 3.241c-.222.366-.475.714-.709 1.08-.456.709-.919 1.41-1.417 2.095-.306.42-.637.822-.961 1.236-.468.6-.949 1.2-1.447 1.747-.355.402-.715.798-1.087 1.2a41.133 41.133 0 0 1-1.622 1.615 30.8 30.8 0 0 1-1.123 1.044 42.338 42.338 0 0 1-1.957 1.614c-.337.264-.66.54-1.01.793a41.86 41.86 0 0 1-3.14 2.118c-.204.12-.42.222-.6.342-.901.534-1.802 1.033-2.769 1.5-.402.199-.823.373-1.237.559-.775.348-1.555.684-2.354.99-.463.174-.937.336-1.411.498-.787.27-1.586.516-2.402.738-.48.132-.955.264-1.442.378a38.96 38.96 0 0 1-2.672.535c-.06 0-.114 0-.174.036a2542.079 2542.079 0 0 1 1.58 31.754 42.81 42.81 0 0 1 25.717-22.102 42.841 42.841 0 0 1 33.735 3.527l-7.573 20.736 15.578-14.95a42.685 42.685 0 0 1 13.812 29.564 41.878 41.878 0 0 1-1.087 11.793c-4.005 17.091-18.046 30.006-35.421 32.578-17.375 2.573-34.56-5.72-43.35-20.917 0 1.074.077 2.154.107 3.229.283 11.115.637 24.942-4.906 37.294-3.753 8.372-9.8 15.172-15.776 21.263a262.843 262.843 0 0 1-12.046 11.517 42.836 42.836 0 0 1-15.47 12.856 268.503 268.503 0 0 1-21.079 14.68l-4.413 2.845c-4.078 2.526-8.258 5.119-12.36 7.802.721-.072 1.436-.15 2.169-.18 18.629-.873 35.684 10.394 42.18 27.865l-26.77 21.78 29.425-6.824a42.827 42.827 0 0 1-20.061 36.223 42.883 42.883 0 0 1-41.361 2.337c.66.829 1.327 1.65 1.988 2.473 1.315 1.638 2.624 3.265 3.903 4.88 17.416 22.043 22.268 42.977 13.638 58.935l-10.485-5.666c8.407-15.532-4.204-35.409-12.51-45.888-1.254-1.584-2.54-3.18-3.836-4.801-11.128-13.804-23.74-29.48-23.421-48.691.45-28.928 28.61-46.374 51.213-60.37z"/>
        <ellipse cx="273.5" cy="410.5" fill="#3F3D56" fill-rule="nonzero" rx="273.5" ry="12.5"/>
        <path stroke="#3F3D56" stroke-width="4" d="M494.516 406c1.763-3.315-.235-7.377-2.515-10.337-2.28-2.96-5.059-6.018-5-9.802.082-5.416 5.694-8.61 10.183-11.481a50.062 50.062 0 0 0 9.137-7.528 13.692 13.692 0 0 0 2.815-3.85c.922-2.119.899-4.525.84-6.848A507.591 507.591 0 0 0 508.86 333"/>
        <path fill="#57B793" fill-rule="nonzero" d="M518 332.11a8.517 8.517 0 0 0-4.24-6.966l-1.902 3.768.055-4.555a8.479 8.479 0 0 0-10.902 8.553 8.49 8.49 0 1 0 16.959-.8h.03zM502.059 389.39a8.501 8.501 0 0 1-16.044-4.393 8.5 8.5 0 0 1 16.45-2.467l-5.318 4.328 5.853-1.36a8.498 8.498 0 0 1-.941 3.892zM497.9 372.99a8.499 8.499 0 0 1-6.128-2.203 8.47 8.47 0 0 1-2.761-5.89 8.342 8.342 0 0 1 .734-3.869 8.522 8.522 0 0 1 5.457-4.71l-.042 3.505 1.928-3.814c4.698-.219 8.683 3.405 8.903 8.094.219 4.69-3.411 8.668-8.108 8.887h.018zM518.894 358.99c-4.686.221-8.664-3.4-8.884-8.09-.221-4.688 3.398-8.669 8.084-8.89a8.419 8.419 0 0 1 4.557 1.08l-1.503 4.123 3.09-2.971a8.493 8.493 0 0 1-5.344 14.748z"/>
        <path fill="#000" fill-rule="nonzero" d="M516.021 334.646c-1.995.216-3.934.82-5.935.94-2.001.12-4.2-.347-5.468-1.862-.683-.814-1.022-1.844-1.6-2.73a6.09 6.09 0 0 0-2.174-1.994 8.195 8.195 0 0 0 1.025 8.829c2.049 2.51 5.39 3.665 8.61 2.974 3.218-.691 5.75-3.107 6.521-6.223-.332.012-.659.036-.979.066zM519.034 358.99c-3.024.149-5.906-1.265-7.587-3.723a8.22 8.22 0 0 1-.612-8.267 6.312 6.312 0 0 1 1.732 1.696c.614.906.983 1.949 1.707 2.782 1.34 1.54 3.636 2.044 5.718 1.948 2.082-.096 4.085-.665 6.142-.851.283 0 .577-.048.866-.054-.877 3.65-4.128 6.291-7.966 6.468zM498.556 372.99c-2.168.109-4.288-.686-5.892-2.208-1.603-1.523-2.558-3.647-2.654-5.905a8.673 8.673 0 0 1 .706-3.877 6.839 6.839 0 0 1 1.748 1.73c.636.934 1.032 2.008 1.75 2.87 1.38 1.601 3.7 2.166 5.794 2.111 2.092-.055 3.975-.564 5.992-.722-1.02 3.432-3.996 5.832-7.444 6.001zM502 388.976c-1.894 4.287-6.846 6.2-11.06 4.274-4.216-1.926-6.097-6.963-4.203-11.25a8.735 8.735 0 0 1 1.837 1.668c.794.99 1.318 2.105 2.243 3.033 1.712 1.705 4.473 2.427 6.93 2.476 1.42.018 2.84-.048 4.253-.2z" opacity=".1"/>
        <path fill="#656380" fill-rule="nonzero" d="M481 401.72s6.713-.211 8.739-1.69c2.026-1.478 10.31-3.242 10.837-.87.528 2.373 10.098 11.802 2.511 11.84-7.587.036-17.623-1.243-19.643-2.485-2.02-1.242-2.444-6.795-2.444-6.795z"/>
        <path fill="#000" fill-rule="nonzero" d="M503.242 410.189c-7.588.06-17.64-1.2-19.662-2.4-1.536-.924-2.155-4.253-2.355-5.789H481s.425 5.357 2.428 6.599 12.068 2.448 19.663 2.4c2.191 0 2.95-.792 2.907-1.932-.285.678-1.123 1.11-2.756 1.122z" opacity=".2"/>
        <path stroke="#3F3D56" stroke-width="4" d="M116.367 387c-4.336-8.043.598-17.894 6.236-25.063 5.639-7.17 12.544-14.627 12.395-23.765-.215-13.13-14.12-20.88-25.231-27.84a123.263 123.263 0 0 1-22.656-18.247c-2.73-2.795-5.376-5.776-6.965-9.342-2.294-5.135-2.234-10.97-2.085-16.596A1177.88 1177.88 0 0 1 80.833 210"/>
        <path fill="#57B793" fill-rule="nonzero" d="M60.023 208.52a20.492 20.492 0 0 1 10.232-16.772l4.589 9.075-.138-10.986a20.5 20.5 0 0 1 21.919 32.321 20.5 20.5 0 0 1-36.602-13.62v-.017zM96.265 347.854a20.493 20.493 0 0 0 38.71-8.394 20.25 20.25 0 0 0-1.337-8.322A20.51 20.51 0 0 0 114.384 318a20.51 20.51 0 0 0-19.101 13.36l12.807 10.42L94 338.5a20.292 20.292 0 0 0 2.265 9.354zM106.538 307.978c10.416.476 19.533-6.926 21.197-17.208 1.664-10.283-4.655-20.178-14.69-23.004l.108 8.441-4.618-9.184h-.054c-11.323-.528-20.93 8.214-21.458 19.525-.529 11.311 8.222 20.909 19.545 21.436l-.03-.006zM56.532 273.976c8.69.424 16.699-4.7 19.967-12.774a20.52 20.52 0 0 0-5.447-23.092 20.447 20.447 0 0 0-23.564-2.474l3.589 9.926-7.412-7.17a20.416 20.416 0 0 0-6.64 14.15c-.095 1.895.08 3.796.52 5.642 2.091 8.924 9.844 15.372 18.987 15.792z"/>
        <path fill="#000" fill-rule="nonzero" d="M62.37 213.916c4.788.527 9.444 2.009 14.244 2.305 4.8.297 10.08-.847 13.117-4.574 1.636-2.009 2.455-4.55 3.837-6.74A14.706 14.706 0 0 1 98.793 200a20.675 20.675 0 0 1-2.209 22.066 20.762 20.762 0 0 1-20.936 7.415A20.723 20.723 0 0 1 60 213.741c.806.036 1.594.09 2.37.175zM56.25 273.978c7.283.329 14.21-3.097 18.255-9.028 4.046-5.931 4.619-13.5 1.511-19.95a15.204 15.204 0 0 0-4.178 4.085c-1.482 2.186-2.374 4.71-4.117 6.717-3.237 3.717-8.763 4.934-13.779 4.714-5.016-.22-9.855-1.62-14.847-2.066a35.086 35.086 0 0 0-2.095-.125c2.12 8.838 9.978 15.227 19.25 15.653zM106.594 307.977c7.096.336 13.857-3.06 17.857-8.969A20.693 20.693 0 0 0 126.21 279a16.587 16.587 0 0 0-4.321 4.21c-1.59 2.257-2.582 4.856-4.441 6.937-3.449 3.868-9.246 5.234-14.476 5.107-5.062-.108-9.94-1.36-14.972-1.75 2.553 8.283 9.987 14.07 18.594 14.473zM96 347.799c4.268 8.306 13.595 12.71 22.732 10.732 9.137-1.978 15.801-9.842 16.242-19.168.144-2.85-.314-5.7-1.346-8.363a20.663 20.663 0 0 0-4.525 4.031c-1.961 2.41-3.258 5.098-5.527 7.327-4.224 4.133-11.037 5.845-17.1 6.025-3.501.012-6.999-.183-10.476-.584z" opacity=".1"/>
        <path fill="#D59D15" fill-rule="nonzero" d="M259 398.77L179.59 415l-1.805-.18L108 407.787v-88.36L193.426 305l61.964 7.213.018.39.007.193z"/>
        <path fill="#000" fill-rule="nonzero" d="M259 398.833L179.8 415l-1.8-.18v-90.234L255.418 313z" opacity=".1"/>
        <path fill="#000" fill-rule="nonzero" d="M255 312.7l-.024.019L177.589 324 108 319.25 193.186 305l61.79 7.125.018.386z" opacity=".05"/>
        <path fill="#3F3D56" fill-rule="nonzero" d="M346 402.77L266.59 419l-1.805-.18L195 411.787v-88.36L280.426 309l61.964 7.213.018.39.007.193z"/>
        <path fill="#000" fill-rule="nonzero" d="M346 402.833L266.8 419l-1.8-.18v-90.234L342.418 317z" opacity=".1"/>
        <path fill="#000" fill-rule="nonzero" d="M342 316.7l-.024.019L264.589 328 195 323.25 280.186 309l61.79 7.125.018.386z" opacity=".05"/>
        <path fill="#3F3D56" fill-rule="nonzero" d="M291 315.77L211.59 332l-1.805-.18L140 324.787v-88.36L225.426 222l61.964 7.213.018.39.007.193z"/>
        <path fill="#000" fill-rule="nonzero" d="M291 315.833L211.8 332l-1.8-.18v-90.234L287.418 230z" opacity=".1"/>
        <path fill="#000" fill-rule="nonzero" d="M288 230.7l-.024.019L210.589 242 141 237.25 226.186 223l61.79 7.125.018.386z" opacity=".05"/>
        <path fill="#3F3D56" fill-rule="nonzero" d="M336 319.586L294.456 328l-.947-.095L257 324.258v-45.78L301.692 271l32.42 3.742.013.202v.096z"/>
        <path fill="#000" fill-rule="nonzero" d="M336 319.595L294.936 328l-.936-.095V281.02L334.146 275z" opacity=".1"/>
        <path fill="#000" fill-rule="nonzero" d="M334 275.051l-.012.012L293.45 281 257 278.499 301.62 271l32.368 3.752.012.204z" opacity=".05"/>
        <path fill="#3F3D56" fill-rule="nonzero" d="M225 230.591L183.456 239l-.947-.09L146 235.264v-45.786L190.692 182l32.42 3.742.013.203v.095z"/>
        <path fill="#000" fill-rule="nonzero" d="M225 230.6l-41.064 8.4-.936-.09v-46.889L223.146 186z" opacity=".1"/>
        <path fill="#000" fill-rule="nonzero" d="M223 186.051l-.012.012L182.45 192 146 189.499 190.62 182l32.368 3.752.012.204z" opacity=".05"/>
        <path fill="#D59D15" fill-rule="nonzero" d="M298 228.591L256.456 237l-.947-.09L219 233.264v-45.786L263.692 180l32.42 3.742.013.203v.095z"/>
        <path fill="#000" fill-rule="nonzero" d="M298 228.6l-41.064 8.4-.936-.09v-46.889L296.146 184z" opacity=".1"/>
        <path fill="#000" fill-rule="nonzero" d="M296 184.051l-.012.012L255.45 190 219 187.499 263.62 180l32.368 3.752.012.204z" opacity=".05"/>
        <path fill="#3F3D56" fill-rule="nonzero" d="M320 182.591L278.456 191l-.947-.09L241 187.264v-45.786L285.692 134l32.42 3.742.013.203v.095z"/>
        <path fill="#000" fill-rule="nonzero" d="M319 182.6l-41.064 8.4-.936-.09v-46.889L317.146 138z" opacity=".1"/>
        <path fill="#000" fill-rule="nonzero" d="M318 138.051l-.012.012L277.45 144 241 141.499 285.62 134l32.368 3.752.012.204z" opacity=".05"/>
        <path fill="#FFC0C6" fill-rule="nonzero" d="M347.948 88.187c-.433 3.893-3.38 7.031-4.473 10.78-1.64 5.66 1.188 11.74 5.085 16.171 6.345 7.113 15.249 11.37 24.727 11.822a10.56 10.56 0 0 0 4.087-.449 8.874 8.874 0 0 0 3.107-2.144c2.923-2.964 4.498-7.067 5.121-11.205.624-4.139.387-8.35.143-12.523 0-.864-.157-1.72-.463-2.528a6.41 6.41 0 0 0-1.61-1.994 37.442 37.442 0 0 0-6.922-5.073c-1.069-.599-2.216-1.198-2.899-2.234a7.353 7.353 0 0 1-.897-2.677l-.766-3.929a7.742 7.742 0 0 0-1.123-3.186c-1.349-1.833-3.933-2.084-6.197-2.174l-8.317-.33c-2.584-.101-5.983-.85-8.507-.335-2.377.473-1.575 2.665-1.147 4.654a33.9 33.9 0 0 1 1.051 7.354z"/>
        <path fill="#000" fill-rule="nonzero" d="M347.948 88.187c-.433 3.893-3.38 7.031-4.473 10.78-1.64 5.66 1.188 11.74 5.085 16.171 6.345 7.113 15.249 11.37 24.727 11.822a10.56 10.56 0 0 0 4.087-.449 8.874 8.874 0 0 0 3.107-2.144c2.923-2.964 4.498-7.067 5.121-11.205.624-4.139.387-8.35.143-12.523 0-.864-.157-1.72-.463-2.528a6.41 6.41 0 0 0-1.61-1.994 37.442 37.442 0 0 0-6.922-5.073c-1.069-.599-2.216-1.198-2.899-2.234a7.353 7.353 0 0 1-.897-2.677l-.766-3.929a7.742 7.742 0 0 0-1.123-3.186c-1.349-1.833-3.933-2.084-6.197-2.174l-8.317-.33c-2.584-.101-5.983-.85-8.507-.335-2.377.473-1.575 2.665-1.147 4.654a33.9 33.9 0 0 1 1.051 7.354z" opacity=".1"/>
        <path fill="#605D82" fill-rule="nonzero" d="M400.505 264.313l-3.558 39.055c-.928 10.243-1.874 20.529-3.695 30.64-.599 3.485-1.365 6.951-2.24 10.388-2.431 9.542-5.959 18.868-7.097 28.65-.035.281-.065.599-.095.857-.234 2.159-.438 4.342-1.198 6.357-.599 1.493-1.443 2.855-2.06 4.33-1.198 2.95-1.39 6.213-1.54 9.41a40.47 40.47 0 0 0-13.947-4.798c-2.396-.354-5.001-.6-6.588-2.399-1.797-1.955-1.587-4.948-1.288-7.575.942-8.156 1.88-16.308 2.815-24.457.311-3.506.912-6.98 1.797-10.387.323-1.134.712-2.25 1.108-3.365.545-1.535 1.096-3.07 1.509-4.648.573-2.534.97-5.105 1.186-7.694.964-8.205 2.126-16.391 3.144-24.59l.054-.431c1.527-12.427 2.689-24.913 2.353-37.43a144.637 144.637 0 0 0-.245-5.565c-.168-2.693-.414-4.12 1.796-5.806 2.462-1.859 5.702-3.16 8.516-4.378 1.516-.66 18.2-6.597 18.566-5.29a32.603 32.603 0 0 1 1.198 8.529 95.024 95.024 0 0 1-.491 10.597z"/>
        <path fill="#000" fill-rule="nonzero" d="M393 334.246c-.591 3.472-1.348 6.926-2.21 10.35-2.4 9.509-5.883 18.802-7.006 28.55-.035.28-.065.597-.094.854-7.342-10.602-13.525-22.005-20.69-32.72.538-1.53 1.082-3.06 1.49-4.632.587-2.54.998-5.117 1.23-7.715.95-8.176 2.098-16.333 3.103-24.503l.053-.43a25.565 25.565 0 0 0 1.773 5.026c4.812 9.885 16.245 14.88 21.837 24.341.185.295.356.588.514.879z" opacity=".1"/>
        <path fill="#605D82" fill-rule="nonzero" d="M333.033 246.211c.245 7.938 1.514 15.81 2.782 23.653l2.614 16.164c1.43 8.86 2.925 17.893 7.113 25.826 3.134 5.938 7.645 11.003 11.73 16.325 10.039 13.086 17.582 27.915 27.1 41.385 2.77 3.915 6.724 8.153 11.444 7.333 3.098-.533 5.348-3.119 7.776-5.106 2.872-2.347 6.33-4.065 8.59-7.01 2.262-2.946 2.705-7.83-.358-9.926-1.047-.713-2.321-.982-3.506-1.437-4.743-1.796-7.818-6.441-9.768-11.135-1.95-4.693-3.141-9.728-5.743-14.092-5.66-9.477-17.235-14.482-22.104-24.39-2.728-5.543-2.991-11.972-3.195-18.12l-.532-15.751c-.06-1.724-.102-3.514.598-5.089 1.86-4.19 7.484-4.585 12.042-5.118a41.106 41.106 0 0 0 14.758-4.658c2.626-1.418 5.186-3.226 6.58-5.86 1.28-2.395 1.454-5.215 1.604-7.933l1.579-28.55c.137-2.454.257-4.998-.598-7.297-2.172-5.783-9.47-7.675-15.638-7.4-11.473.516-22.062 5.455-32.901 8.795-2.686.826-5.384 1.568-8.154 2.125-2.393.485-5.384.288-7.681 1.066-4.116 1.389-4.014 10.404-4.594 14.14a118.792 118.792 0 0 0-1.538 22.06z"/>
        <path fill="#535070" fill-rule="nonzero" d="M394.265 378.573c1.003 1.03 1.329 2.536 1.59 3.958a137.09 137.09 0 0 1 2.254 23.923 4.017 4.017 0 0 0 .42 2.169 2.73 2.73 0 0 0 1.11.903c2.9 1.404 6.263-.554 8.683-2.705 4.479-3.982 8.269-9.331 8.524-15.374.065-1.554-.107-3.127.16-4.663.391-2.277 1.702-4.259 2.853-6.247a53.458 53.458 0 0 0 4.745-10.736c.439-1.41.735-3.18-.356-4.162a3.794 3.794 0 0 0-1.287-.681l-13.108-4.94c-1.14-.428-3.962 6.94-4.407 7.747-1.098 1.97-2.189 3.085-4.39 3.543-2.2.457-4.916-.205-7.016.933-3.559 1.922-1.785 4.278.225 6.332zM374.332 383.312a4.087 4.087 0 0 0-1.025-1.293 4.614 4.614 0 0 0-2.07-.698c-2.563-.436-5.602-.722-7.379 1.178-1.66 1.777-1.373 4.672-2.758 6.674-.44.607-1.038 1.153-1.416 1.82a6.797 6.797 0 0 0-.61 3.265c-.074 3.088-.147 6.189.072 9.271.177 2.585.61 5.297 2.24 7.324 2.613 3.252 7.325 3.72 11.5 3.926l3.387.176a6.752 6.752 0 0 0 2.771-.255 4.53 4.53 0 0 0 2.393-2.615c1.764-4.357-1.026-9.047-2.747-13.416-1.983-5.03-1.63-10.606-4.358-15.357z"/>
        <path fill="#3F3D56" fill-rule="nonzero" d="M346.466 66.301c-.043-.43.022-.865.187-1.266.49-.847 1.77-.592 2.735-.38 3.882.96 7.975.09 11.978.314 4.003.225 8.506 2.184 9.31 6.031a28.802 28.802 0 0 0 7.383-7.433c1.11-1.628 2.076-3.492 1.925-5.445-.217-2.817-2.626-4.924-4.83-6.711l-6.64-5.326a10.117 10.117 0 0 0-2.982-1.859c-1.534-.515-3.212-.266-4.83-.266-4.83 0-10.01-2.16-14.314 0-1.811.906-3.158 2.462-4.462 3.977l-5.934 6.889a3.66 3.66 0 0 0-.954 1.58c-.17.84.272 1.669.429 2.515.277 1.539-.399 3.184.12 4.664.864 2.45 3.906 2.799 5.766 4.207.688.521 1.775 2.303 2.602 2.279 1.455-.03 2.469-2.634 2.511-3.77z"/>
        <circle cx="357" cy="68" r="19" fill="#FFC0C6" fill-rule="nonzero"/>
        <path fill="#3F3D56" fill-rule="nonzero" d="M360.683 109.295c-1.319-3.75-4.927-6.223-8.924-6.118a2.698 2.698 0 0 1-1.651-.21 2.272 2.272 0 0 1-.681-.837 33.243 33.243 0 0 1-2.766-6.501c-.302-1-.717-2.18-1.736-2.437-.82-.21-1.657.318-2.205.958a20.976 20.976 0 0 1-1.58 1.97c-2.41 2.119-6.628.185-9.153 2.13-.415.318-.759.725-1.205 1.018a5.503 5.503 0 0 1-1.392.599 133.938 133.938 0 0 0-14.39 5.585c1.687 10.081 3.41 20.354 7.364 29.782 1.88 4.49 4.007 8.89 5.514 13.517 3.338 10.255 3.483 21.228 3.525 32.01 0 7.374 0 14.905-2.41 21.885-.543 1.58-1.206 3.149-1.356 4.79-.151 1.64.343 3.495 1.699 4.477a5.755 5.755 0 0 0 2.621.916c4.164.598 8.358-.491 12.456-1.437 10.985-2.526 22.194-3.975 33.372-5.388l18.741-2.394a11.02 11.02 0 0 0 3.88-1c3.43-1.862 3.755-6.986 1.622-10.242-1.019-1.563-2.459-2.844-3.32-4.496-.862-1.652-.928-3.975.548-5.119 3.013-2.334 2.109-6.662 2.254-10.446.401-10.583.347-21.16-.163-31.727a61.682 61.682 0 0 1-.109-6.585c.211-3.724 1.14-7.37 2.067-10.99l5.695-22.27c-1.488-2.335-4.339-3.82-7.032-4.49-2.694-.67-5.508-.868-8.166-1.688-5.423-1.676-10.292-5.926-15.975-5.531-.43.007-.854.11-1.241.3-1.278.723-1.079 2.555-1.157 4.016-.18 3.239-2.58 5.938-5.219 7.836-2.639 1.898-5.664 3.275-8.092 5.436a3.585 3.585 0 0 0-1.435 2.681z"/>
        <path fill="#FFC0C6" fill-rule="nonzero" d="M286.095 130.908a22.503 22.503 0 0 1-3.992 2.01c-1.326.513-2.743.92-3.828 1.815a5.95 5.95 0 0 0-1.333 1.609 7.01 7.01 0 0 0 .152 7.27c1.403 2.216 3.927 3.51 6.589 3.379 1.743-.089 3.389-.778 4.986-1.456l13.398-5.698c2.267-.961 4.715-2.08 5.788-4.261.123-.204.17-.444.133-.678a1.124 1.124 0 0 0-.555-.59 29.737 29.737 0 0 1-7.796-7.189c-.549-.73-1.206-2.452-2.002-2.894-2.834-1.538-9.267 5.245-11.54 6.683zM428.748 126l4.904 5.641c1.054 1.206 2.107 2.411 3.065 3.713a43.293 43.293 0 0 1 5.616 10.65c1.066 2.814 1.952 5.816 1.581 8.805a21.81 21.81 0 0 1-1.227 4.478 55.57 55.57 0 0 1-3.335 8.076 45.987 45.987 0 0 1-3.73 5.648 131.793 131.793 0 0 1-12.436 14.314c-1.676 1.67-2.395 4.375-3.107 6.63-1.347 4.164-4.55 7.413-7.646 10.487a21.108 21.108 0 0 1-3.287 2.844 10.605 10.605 0 0 1-5.987 1.712 6.549 6.549 0 0 1-2.688-.56c-2.12-1.013-3.197-3.478-3.419-5.829a12.55 12.55 0 0 1 1.03-6.244c2.814-6.274 10.04-8.992 15.148-13.572 2.993-2.683 5.286-6.058 7.55-9.39a32.633 32.633 0 0 0 3.813-6.733c1.138-3.067.695-6.696 1.695-9.806.419-1.32 1.197-2.507 1.622-3.815.425-1.308.569-2.857-.227-3.984a5.72 5.72 0 0 0-2.222-1.639c-3.263-1.663-6.915-3.81-7.537-7.443a8.008 8.008 0 0 1 1.46-5.684 23.44 23.44 0 0 1 4.114-4.34c1.419-1.289 3.82-2.717 5.25-3.959z"/>
        <path fill="#FFC0C6" fill-rule="nonzero" d="M282.99 138.018c-.875-1.77-1.974-3.576-3.748-4.455a6.913 6.913 0 0 0-5.466 0 20.731 20.731 0 0 0-4.786 2.885l-4.287 3.157a10.54 10.54 0 0 0-2.545 2.346 9.75 9.75 0 0 0-1.324 3.636c-.607 2.951-1.1 5.987-.674 8.975.68 4.848 3.595 9.042 6.802 12.727 2.004 2.29 4.482 4.606 7.53 4.709 1.319.042 2.782-.48 3.33-1.673.19-.474.29-.98.297-1.49.328-5.382-1.604-10.637-3.85-15.54-.608-1.333-1.264-2.714-1.216-4.175a1.125 1.125 0 0 1 .183-.703 1.18 1.18 0 0 1 .728-.358c3.08-.606 8.388 1.782 10.544-1.63 1.397-2.254-.522-6.406-1.518-8.411z"/>
        <path fill="#3F3D56" fill-rule="nonzero" d="M345.456 60.301a2.708 2.708 0 0 1 .193-1.266c.489-.853 1.77-.592 2.735-.38 3.883.96 7.976.09 11.98.314 4.003.225 8.5 2.184 9.31 6.031a28.996 28.996 0 0 0 7.384-7.433c1.111-1.634 2.077-3.498 1.926-5.45-.217-2.818-2.632-4.925-4.83-6.706l-6.642-5.326a10.087 10.087 0 0 0-2.976-1.859c-1.54-.515-3.213-.266-4.83-.266-4.831 0-10.012-2.16-14.317 0-1.811.906-3.158 2.462-4.462 3.977l-5.941 6.889c-.447.44-.773.983-.948 1.58-.17.84.272 1.669.429 2.515.277 1.539-.399 3.184.12 4.658.864 2.456 3.907 2.805 5.767 4.213.688.521 1.775 2.303 2.602 2.279 1.431-.03 2.445-2.634 2.5-3.77zM305.117 112.22a7.807 7.807 0 0 0-1.98 1.824c-.69 1.04-.834 2.377-1.428 3.446-1.272 2.341-4.254 3.179-6.108 5.098-.301.262-.51.611-.6.998a2.19 2.19 0 0 0 .498 1.438l8.964 13.95c3 .262 5.844-1.592 8.832-1.342 1.11.089 2.256.47 3.324.142a9.678 9.678 0 0 0 2.13-1.289c1.8-1.117 4.152-1.248 5.646-2.715 1.494-1.468 1.62-3.624 1.602-5.627a21.995 21.995 0 0 0-.534-5.169c-1.32-5.347-5.454-9.47-8.046-14.212-1.266-2.311-1.95-3.66-4.62-2.073-2.67 1.586-5.154 3.701-7.68 5.531zM414.428 104.792a21.123 21.123 0 0 1 4.524 3.974c1.365 1.77 2.142 3.944 3.459 5.756 1.317 1.811 3.008 3.116 4.452 4.735 2.195 2.452 3.681 5.435 5.137 8.4a125.828 125.828 0 0 1-11.622 13.167c-.466.55-1.08.953-1.769 1.16a2.828 2.828 0 0 1-2.49-1.021c-.65-.676-1.107-1.522-1.727-2.229a8.86 8.86 0 0 0-5.492-2.663 37.582 37.582 0 0 0-6.227-.09 2.398 2.398 0 0 1-1.33-.224 2.202 2.202 0 0 1-.721-.834c-2.406-4.155-1.654-9.373-.794-14.12l1.967-10.872a24.5 24.5 0 0 1 1.642-6.04c.746-1.6 2.407-4.317 4.464-3.834 2.057.483 4.789 3.479 6.527 4.735z"/>
        <path fill="#D59D15" fill-rule="nonzero" d="M243 184.591L201.456 193l-.947-.09L164 189.264v-45.786L208.692 136l32.42 3.742.013.203v.095z"/>
        <path fill="#000" fill-rule="nonzero" d="M243 184.6l-41.064 8.4-.936-.09v-46.889L241.146 140z" opacity=".1"/>
        <path fill="#000" fill-rule="nonzero" d="M241 139.051l-.012.012L200.45 145 164 142.499 208.62 135l32.368 3.752.012.204z" opacity=".05"/>
        <path fill="#3F3D56" fill-rule="nonzero" d="M265 138.586L223.456 147l-.947-.095L186 143.258v-45.78L230.692 90l32.42 3.742.013.202v.096z"/>
        <path fill="#000" fill-rule="nonzero" d="M265 138.595L223.936 147l-.936-.095V100.02L263.146 94z" opacity=".1"/>
        <path fill="#000" fill-rule="nonzero" d="M263 94.051l-.012.012L222.45 100 186 97.499 230.62 90l32.368 3.752.012.204z" opacity=".05"/>
    </g>
</svg>
