<svg xmlns="http://www.w3.org/2000/svg" width="277" height="158" viewBox="0 0 277 158">
    <defs>
        <linearGradient id="prefix__a" x1="49.984%" x2="49.984%" y1="100.023%" y2=".009%">
            <stop offset="0%" stop-color="gray" stop-opacity=".25"/>
            <stop offset="54%" stop-color="gray" stop-opacity=".12"/>
            <stop offset="100%" stop-color="gray" stop-opacity=".1"/>
        </linearGradient>
    </defs>
    <g fill="none">
        <path fill="#D59D15" d="M277 104.69c.015 7.993-2.173 15.836-6.325 22.672 0 8.361-3.908 15.94-10.247 21.463-1.586 1.383-3.295 2.62-5.104 3.697-.073.046-.148.09-.223.133l-.409.241-.128.075c-6 3.336-12.763 5.068-19.632 5.029H52.584c-12.574 0-23.957-4.367-32.204-11.424-8.247-7.056-13.329-16.823-13.329-27.594C2.433 111.89-.017 103.61 0 95.153c0-23.942 19.187-43.352 42.858-43.352.837 0 1.668.03 2.494.075C60.204 26.616 93.705 9 132.626 9c23.927 0 45.8 6.653 62.552 17.647 6.347-3.579 13.514-5.455 20.804-5.446 23.666 0 42.858 19.41 42.858 43.352-.004 1.515-.084 3.028-.242 4.535C270.175 77.262 277.04 90.543 277 104.69z" opacity=".1"/>
        <ellipse cx="100" cy="115" fill="#D59D15" opacity=".1" rx="95" ry="3"/>
        <g opacity=".7">
            <path fill="#65617D" d="M0 52.116H30.258V68.821H0z" transform="translate(34 45)"/>
            <path fill="#000" d="M10.651 55.021H19.849V56.958H10.651z" opacity=".1" transform="translate(34 45)"/>
            <path fill="#000" d="M11.801 55.263H18.7V56.716H11.801z" opacity=".1" transform="translate(34 45)"/>
            <path fill="#65617D" d="M30.742 52.116H61V68.821H30.742z" transform="translate(34 45)"/>
            <path fill="#000" d="M41.393 55.021H50.591V56.958H41.393z" opacity=".1" transform="translate(34 45)"/>
            <path fill="#000" d="M42.543 55.263H49.442V56.716H42.543z" opacity=".1" transform="translate(34 45)"/>
            <path fill="#65617D" d="M0 34.926H30.258V51.631H0z" transform="translate(34 45)"/>
            <path fill="#000" d="M10.651 37.831H19.849V39.768H10.651z" opacity=".1" transform="translate(34 45)"/>
            <path fill="#000" d="M11.801 38.073H18.7V39.526H11.801z" opacity=".1" transform="translate(34 45)"/>
            <path fill="#65617D" d="M30.742 34.926H61V51.631H30.742z" transform="translate(34 45)"/>
            <path fill="#000" d="M41.393 37.831H50.591V39.768H41.393z" opacity=".1" transform="translate(34 45)"/>
            <path fill="#000" d="M42.543 38.073H49.442V39.526H42.543z" opacity=".1" transform="translate(34 45)"/>
            <path fill="#65617D" d="M0 17.495H30.258V34.2H0z" transform="translate(34 45)"/>
            <path fill="#000" d="M10.651 20.4H19.849V22.337H10.651z" opacity=".1" transform="translate(34 45)"/>
            <path fill="#000" d="M11.801 20.642H18.7V22.095H11.801z" opacity=".1" transform="translate(34 45)"/>
            <path fill="#65617D" d="M30.742 17.495H61V34.2H30.742z" transform="translate(34 45)"/>
            <path fill="#000" d="M41.393 20.4H50.591V22.337H41.393z" opacity=".1" transform="translate(34 45)"/>
            <path fill="#000" d="M42.543 20.642H49.442V22.095H42.543z" opacity=".1" transform="translate(34 45)"/>
            <path fill="#65617D" d="M30.742 0.063H61V16.767999999999997H30.742z" transform="translate(34 45)"/>
            <path fill="#000" d="M41.393 2.968H50.591V4.905H41.393z" opacity=".1" transform="translate(34 45)"/>
            <path fill="#000" d="M42.543 3.21H49.442V4.663H42.543z" opacity=".1" transform="translate(34 45)"/>
        </g>
        <g opacity=".7">
            <path fill="#65617D" d="M0 52.116H30.258V68.821H0z" transform="translate(96 45)"/>
            <path fill="#000" d="M10.651 55.021H19.849V56.958H10.651z" opacity=".1" transform="translate(96 45)"/>
            <path fill="#000" d="M11.801 55.263H18.7V56.716H11.801z" opacity=".1" transform="translate(96 45)"/>
            <path fill="#65617D" d="M30.742 52.116H61V68.821H30.742z" transform="translate(96 45)"/>
            <path fill="#000" d="M41.393 55.021H50.591V56.958H41.393z" opacity=".1" transform="translate(96 45)"/>
            <path fill="#000" d="M42.543 55.263H49.442V56.716H42.543z" opacity=".1" transform="translate(96 45)"/>
            <path fill="#65617D" d="M0 34.926H30.258V51.631H0z" transform="translate(96 45)"/>
            <path fill="#000" d="M10.651 37.831H19.849V39.768H10.651z" opacity=".1" transform="translate(96 45)"/>
            <path fill="#000" d="M11.801 38.073H18.7V39.526H11.801z" opacity=".1" transform="translate(96 45)"/>
            <path fill="#65617D" d="M30.742 34.926H61V51.631H30.742z" transform="translate(96 45)"/>
            <path fill="#000" d="M41.393 37.831H50.591V39.768H41.393z" opacity=".1" transform="translate(96 45)"/>
            <path fill="#000" d="M42.543 38.073H49.442V39.526H42.543z" opacity=".1" transform="translate(96 45)"/>
            <path fill="#65617D" d="M0 17.495H30.258V34.2H0z" transform="translate(96 45)"/>
            <path fill="#000" d="M10.651 20.4H19.849V22.337H10.651z" opacity=".1" transform="translate(96 45)"/>
            <path fill="#000" d="M11.801 20.642H18.7V22.095H11.801z" opacity=".1" transform="translate(96 45)"/>
            <path fill="#65617D" d="M30.742 17.495H61V34.2H30.742z" transform="translate(96 45)"/>
            <path fill="#000" d="M41.393 20.4H50.591V22.337H41.393z" opacity=".1" transform="translate(96 45)"/>
            <path fill="#000" d="M42.543 20.642H49.442V22.095H42.543z" opacity=".1" transform="translate(96 45)"/>
            <path fill="#65617D" d="M30.742 0.063H61V16.767999999999997H30.742z" transform="translate(96 45)"/>
            <path fill="#000" d="M41.393 2.968H50.591V4.905H41.393z" opacity=".1" transform="translate(96 45)"/>
            <path fill="#000" d="M42.543 3.21H49.442V4.663H42.543z" opacity=".1" transform="translate(96 45)"/>
        </g>
        <path fill="#D59D15" d="M212.63.027s-19.764-1.248-17.44 13.248c0 0-.47 2.563 1.756 3.725 0 0 .035-1.074 2.028-.708.71.123 1.43.16 2.148.108.97-.07 1.89-.468 2.625-1.135 0 0 5.556-2.403 7.716-11.906 0 0 1.599-2.074 1.535-2.607l-3.336 1.491s1.141 2.519.235 4.612c0 0-.108-4.52-.749-4.423-.129.022-1.732.873-1.732.873s1.96 4.385.481 7.575c0 0 .561-5.406-1.094-7.258l-2.347 1.434s2.29 4.531.737 8.229c0 0 .399-5.67-1.233-7.88l-2.127 1.737s2.153 4.467.84 7.534c0 0-.17-6.602-1.3-7.101 0 0-1.861 1.72-2.145 2.423 0 0 1.474 3.243.558 4.953 0 0-.56-4.398-1.02-4.423 0 0-1.855 2.914-2.048 4.914 0 0 .08-2.973 1.599-5.191 0 0-1.794.321-2.84 1.54 0 0 .288-2.061 3.298-2.24 0 0 1.533-2.212 1.941-2.347 0 0-2.99-.26-4.805.58 0 0 1.596-1.944 5.354-1.06l2.101-1.795s-3.939-.563-5.61.059c0 0 1.922-1.72 6.176-.465l2.291-1.42s-3.359-.757-5.36-.491c0 0 2.114-1.192 6.032.1l1.643-.769s-2.46-.506-3.181-.587c-.72-.08-.758-.287-.758-.287 1.558-.272 3.159-.086 4.622.538 0 0 3.47-1.352 3.409-1.58zM187.833 4.013s-8.777-.589-7.75 6.235c0 0-.205 1.205.78 1.752 0 0 .015-.512.902-.335.315.059.635.076.954.051.431-.032.84-.22 1.167-.535 0 0 2.471-1.128 3.432-5.6 0 0 .709-.977.681-1.228l-1.483.701s.508 1.187.109 2.172c0 0-.049-2.129-.333-2.077-.057 0-.771.409-.771.409s.873 2.065.215 3.566c0 0 .25-2.543-.488-3.415l-1.044.675s1.021 2.131.328 3.871c0 0 .178-2.668-.547-3.707l-.945.816s.956 2.103.374 3.546c0 0-.076-3.108-.58-3.341 0 0-.826.808-.953 1.14 0 0 .656 1.536.25 2.329 0 0-.25-2.07-.463-2.077 0 0-.822 1.37-.91 2.302.041-.869.287-1.711.712-2.443-.476.1-.915.351-1.264.724 0 0 .13-.967 1.467-1.054 0 0 .693-1.039.864-1.103 0 0-1.33-.123-2.137.274 0 0 .71-.916 2.381-.499l.924-.844s-1.75-.256-2.494.028c0 0 .854-.808 2.746-.22l1.016-.673s-1.492-.358-2.383-.228c0 0 .94-.562 2.681.046l.728-.36s-1.095-.24-1.416-.277c-.321-.035-.337-.135-.337-.135.693-.128 1.405-.04 2.056.256 0 0 1.559-.635 1.53-.742z" opacity=".1"/>
        <ellipse cx="53.5" cy="154" fill="#D59D15" rx="9.5" ry="2"/>
        <path fill="#D59D15" d="M57.134 151.485c.402-.362.694-.85.838-1.401.11-.554-.105-1.21-.586-1.425-.538-.228-1.114.186-1.549.602-.435.416-.936.893-1.505.804.596-.6.865-1.5.709-2.374-.025-.178-.093-.346-.197-.484-.3-.354-.84-.204-1.199.075-1.137.885-1.455 2.596-1.461 4.133-.114-.554-.018-1.133-.02-1.694-.002-.561-.144-1.21-.58-1.508-.268-.16-.57-.238-.874-.227-.51-.022-1.081.036-1.429.45-.437.513-.321 1.374.055 1.936.376.561.951.922 1.48 1.312.424.279.785.66 1.057 1.115.033.064.06.131.079.201h3.207c.717-.404 1.382-.914 1.975-1.515z"/>
        <path fill="#3F3D56" d="M172.985 81.947c-.037-.369-.246-.692-.555-.858-.258-.118-.55-.119-.808-.001-.259.117-.462.343-.563.624l-4.946 11.198L165 137h1.781l.668-43.992 5.442-10.366c.099-.215.131-.458.094-.695z"/>
        <path fill="#D59D15" d="M261 148.666c-1.585 1.408-3.291 2.667-5.099 3.763-.028.04-.06.078-.094.113-.192.166-.42.282-.665.34-5.995 3.394-12.75 5.157-19.612 5.117H102.537C87.298 156.406 78 154.295 78 151.977c0-1.797 5.583-3.47 15.195-4.872.997-.147 2.036-.29 3.118-.428.666-.085 1.347-.167 2.044-.245l1.183-.14c.877-.102 1.778-.201 2.702-.298h.075l.967-.098c.818-.086 1.652-.168 2.504-.246l.619-.057 1.58-.142c1.025-.094 2.073-.183 3.144-.268l2.709-.212c9.303-.7 20.028-1.229 31.699-1.57l3.333-.116 1.122-.024 2.37-.055.952-.02.999-.019.71-.012 3.339-.054 1.715-.025h.35c4.056-.049 8.187-.074 12.394-.076 8.316 0 16.38.1 24.066.293 4.412.108 8.689.245 12.832.412h.038c11.944.477 22.636 1.18 31.484 2.053l.162.017c2.271.224 4.422.462 6.439.708 1.899.231 3.681.475 5.336.723.573.086 1.13.174 1.671.26l.138.025c2.293.376 4.306.76 6.011 1.175z" opacity=".1"/>
        <path fill="url(#prefix__a)" d="M254.846 151.64c-.029.04-.06.077-.095.111-.193.162-.421.276-.667.332-.49.136-.996.216-1.505.24h-.152c-.291.01-.582 0-.871-.029-.212-.03-.425-.044-.638-.04h-.03c-.31.042-.615.117-.91.223-.656.178-1.333.273-2.013.283h-.243c-.762 0-1.533-.027-2.297-.022h-.372c-1.31.034-2.613.24-3.923.262h-.42c-1.283-.031-2.596-.303-3.617-1.071-.206-.135-.373-.32-.485-.538-.087-.23-.116-.477-.085-.72.024-.435.109-.908.439-1.2.207-.158.445-.272.699-.335.444-.141.89-.278 1.334-.415.444-.137.951-.283 1.43-.423l.091-.029.267-.079.173-.057c.208-.067.409-.157.596-.27.248-.154.458-.362.614-.607.027-.043.056-.089.08-.134.025-.046 0-.075-.017-.113-.041-.3-.072-.608-.126-.9-.683-.157-1.305-.506-1.793-1.004-.419-.411-.771-.884-1.046-1.4-.604-1.124-.914-2.38-1.365-3.573-.692-1.816-1.699-3.492-2.713-5.154-.927-1.532-1.858-3.069-2.911-4.516-.702-.961-1.456-1.876-2.15-2.839-1.963-2.687-3.371-5.73-4.144-8.957-.118-.619-.286-1.227-.502-1.82-.418-1.008-1.182-1.83-1.774-2.752-.636-.994-1.072-2.1-1.283-3.258-.122-.658-.325-1.369-.988-1.441l-.07.137c-1.373 2.641-2.783 5.33-4.853 7.487-.33.317-.633.662-.904 1.03-.218.358-.412.728-.583 1.11-.327.685-.762 1.314-1.288 1.865-.157.157-.327.3-.51.425-.242.175-.512.309-.798.397-.113.034-.228.06-.344.077 0 .028.012.055.014.084.003.028.015.062.02.093.357 1.921.204 3.901-.444 5.747-.017.057-.037.112-.059.17-.1.269-.21.533-.327.792-.296.637-.648 1.247-.925 1.893-.046.11-.092.22-.133.331-.97 2.572-.728 5.444-.854 8.208-.011.604-.083 1.206-.216 1.796-.165.665-.43 1.352-.575 2.038-.133.515-.143 1.054-.031 1.573l-.059.022c-.26.096-.524.182-.788.264v.036l.281 1.611c.08.461.175.96.5 1.287.089.073.17.153.243.24.191.298.021.692.058 1.045.053.5.52.925.446 1.422-.066.301-.279.55-.567.667-.12.054-.245.093-.374.118l-.08.017c-.146.026-.291.04-.437.055-1.807.178-3.64.355-5.43.053-.354-.06-.706-.14-1.065-.168-.453-.02-.908-.002-1.358.055-3.322.311-6.663.375-9.994.192-.866-.048-1.86-.187-2.32-.92-.38-.607-.242-1.392-.05-2.086.054-.256.154-.5.293-.72.016-.025.034-.047.054-.068.446-.55 1.285-.584 2.008-.562l2.364.07c.232.018.466 0 .693-.053.384-.11.675-.413 1.034-.584.451-.213 1.019-.24 1.344-.605l.041-.053c.058-.077.111-.157.16-.24 0-.016.022-.033.034-.05.01-.015.019-.03.03-.043.298-.39.82-.519 1.244-.766.064-.037.125-.08.182-.128l.049-.043c-.457-.323-.856-.72-1.18-1.174-.124-.133-.216-.292-.269-.466-.03-.13-.02-.267.03-.391.01-.031.023-.06.038-.09l.012-.023c.165-.322.505-.613.692-.941.007-.01.013-.022.017-.034.257-.48.308-1.225-.073-1.611.194-3.163 1.072-6.244 1.266-9.416.078-1.256.047-2.516.105-3.777.058-1.26.194-2.483.337-3.72.32-2.826 1.097-5.595.988-8.433-.01-.265.002-.53.033-.792v-.058c.078-.582.262-1.145.542-1.662.351-.584.75-1.14 1.19-1.661 1.493-1.921 3.286-3.842 3.817-6.205.274-1.22.88-2.337 1.485-3.434.357-.653.728-1.323 1.298-1.804.309-.211.596-.452.857-.72.397-.509.412-1.213.647-1.818.122-.314.308-.602.4-.927 0-.033.018-.064.025-.098.054-.327.082-.658.085-.99 0-.095.014-.19.027-.283.141-.95.42-1.873.827-2.744.05-.11.1-.224.148-.334-1.12-.647-2.107-1.494-2.912-2.5-.272-.325-.51-.679-.706-1.054-.5-.982-.613-2.101-.849-3.177-.563-2.565-1.851-4.98-2.03-7.602-.054-.8 0-1.626-.282-2.383-.077-.204-.17-.403-.274-.595-.044-.082-.085-.163-.129-.24l-.048-.091-.124-.24-.199.153c-4.963 3.847-10.175 7.37-15.6 10.547l-.466.273c-.243.116-.454.287-.617.5-.019.031-.036.062-.053.093-.112.229-.14.48-.243.72-.218.55-.778.901-1.35 1.065-1.037.263-2.136.123-3.07-.392-.119-.06-.243-.122-.35-.192-.283.156-.582.282-.892.377-.97.279-1.987.267-2.992.264-1.004-.002-2.03 0-2.982.327-.635.214-1.252.567-1.911.6-.076.005-.153.005-.229 0-.376-.043-.742-.149-1.082-.314l-.199-.09c-.103-.048-.203-.101-.3-.16-.107-.065-.205-.142-.294-.228-.128-.128-.222-.286-.272-.459-.033-.125-.033-.257 0-.382.01-.056.039-.107.083-.144.043-.025.093-.038.143-.036.278-.003.556.02.83.07.16.022.323.03.485.026h.087c.29-.03.553-.178.728-.408.027-.035.048-.074.063-.115.03-.068.044-.14.044-.214v-.055c-.102-.046-.204-.091-.301-.147-.05-.026-.1-.055-.148-.084l-.03-.019c-.086-.059-.167-.125-.242-.2-.047-.046-.088-.097-.123-.153-.065-.087-.113-.184-.144-.288-.2-.041-.406-.036-.604.017-.264.072-.531.225-.793.278-.132.033-.271.027-.4-.017-.379-.134-.512-.59-.592-.982-.015-.074-.032-.151-.044-.228-.028-.147-.028-.299 0-.446.117-.336.341-.625.638-.824l.796-.66.058-.048c0-.065-.027-.13-.036-.195-.028-.148-.028-.3 0-.449.117-.335.34-.623.638-.821l1.761-1.467c.33-.274.69-.562 1.119-.591.638-.043 1.147.48 1.625.9.602.529 1.332.96 2.135 1.014.383.017.765-.035 1.128-.154l.207-.067c-.044-.09-.088-.178-.129-.267-.07-.146-.14-.295-.209-.444 1.034-.065 1.973-.627 2.757-1.3.783-.671 1.455-1.466 2.246-2.127.854-.72 1.834-1.256 2.7-1.95 2.014-1.616 3.351-3.99 5.506-5.414.747-.497 1.61-.894 2.12-1.633.158-.24.277-.48.44-.72.516-.721 1.402-1.052 2.132-1.552.73-.5 1.366-1.232 1.96-1.935.423-.502.847-1.004 1.25-1.52.371-.685.684-1.4 1.072-2.075.33-.57.714-1.107 1.148-1.604.1-.192.201-.384.31-.572.11-.187.19-.314.292-.48.07-.108.143-.211.218-.317-.22-.386-.432-.72-.531-.867l-.049-.065c-.214-.225-.443-.437-.684-.633-.254-.039-.505-.091-.752-.159-3.078-.835-5.211-3.606-5.207-6.764V47c.001-1.1.265-2.185.772-3.165.102-.197.21-.387.33-.571-.111-.035-.22-.078-.323-.13-.177-.086-.332-.212-.451-.367-.1-.139-.163-.299-.187-.466-.041-.396.019-.796.174-1.163.067-.176.142-.35.226-.518.007-.01.012-.02.017-.031 1.085-2.162 3.397-3.49 5.707-3.583 2.491-.099 4.917 1.059 6.883 2.716.586.476 1.11 1.022 1.562 1.625 1.026 1.412 1.49 3.218 1.626 5.007.05.553.041 1.11-.03 1.662-.025.196-.066.39-.12.58-.032.114-.073.227-.117.34-.044.112-.07.163-.11.24v.012c-.036.076-.077.148-.118.22l-.022.032-.032.05.063.14c.022.045.042.088.066.131h.03c.484.039.933.106 1.428.145.233.01.464.046.69.105.484.144.85.495 1.258.778 1.01.706 2.252 1.035 3.244 1.765 1.456 1.076 2.184 2.853 3.067 4.445 1.165 2.132 3.062 3.948 3.899 6.229.378 1.036.758 2.07 1.14 3.102.745 2.025 1.49 4.059 2.502 5.968 1.407 2.655 3.311 5.042 4.44 7.833.112.28.322.51.592.648 1.537 2.148 2.904 4.412 4.088 6.77.623 1.245 1.213 2.54 1.395 3.92.142 1.23.039 2.475-.303 3.665-.194.707-.431 1.401-.711 2.08-.11.237-.19.486-.243.741v.08c-.049.46.129.917.177 1.378.04.371-.002.746-.124 1.1-.019.055-.04.11-.063.165-.15.281-.278.573-.38.874-.01.037-.016.074-.02.11-.08.522.129 1.048.243 1.569.427 1.883.349 3.842.242 5.763-.056.96.728 1.731 1.383 2.44 1.213 1.328 2.162 2.881 3.077 4.428.499.785.919 1.616 1.254 2.483.347.989.485 2.036.677 3.061.619 3.17 2.64 5.97 3.188 9.147.254 1.455.902 2.814 1.875 3.933.294.3.564.62.808.96.17.271.304.562.4.865.24.706.352 1.448.333 2.192-.038.357-.018.717.06 1.067.229.737 1.044 1.143 1.381 1.837.337.694.104 1.582.243 2.37.108.635.455 1.206.97 1.599-.194.168-.398.322-.606.48.193.149.362.325.502.524.095.133.177.275.243.425.32.737.33 1.613.592 2.401.111.327.269.672.172 1.004-.042.095-.07.195-.083.297 0 .217.228.358.316.555.064.202.016.422-.126.579z"/>
        <path fill="#FBBEBE" d="M203.652 57c1.438-.383 2.72-1.182 3.974-1.973L212 52.279c-1.187-.092-2.212-.927-2.82-1.938-.609-1.01-.86-2.186-1.067-3.341-1.88.723-3.51 1.95-5.028 3.246-.601.512-1.88 1.287-2.065 2.087-.186.8.998 1.449 1.457 1.984.157.179 1.64 2.555 1.175 2.683z"/>
        <path fill="#000" d="M203.652 57c1.438-.383 2.72-1.182 3.974-1.973L212 52.279c-1.187-.092-2.212-.927-2.82-1.938-.609-1.01-.86-2.186-1.067-3.341-1.88.723-3.51 1.95-5.028 3.246-.601.512-1.88 1.287-2.065 2.087-.186.8.998 1.449 1.457 1.984.157.179 1.64 2.555 1.175 2.683z" opacity=".1"/>
        <path fill="#FBBEBE" d="M178.422 82.2c-.763.423-1.576.856-2.43.795-.768-.053-1.469-.503-2.046-1.054-.466-.438-.945-.984-1.558-.938-.41.03-.754.33-1.07.614l-1.688 1.527c-.284.206-.499.506-.612.855-.033.237-.02.479.04.71.076.407.204.883.567 1.021.364.139.76-.158 1.143-.272.478-.132.985.03 1.32.42.137.146.22.342.233.55 0 .454-.466.754-.894.777-.428.022-.838-.129-1.262-.101-.051-.007-.103.009-.144.044-.04.035-.067.086-.072.142-.053.323.05.653.272.876.221.218.479.389.76.503.325.174.676.285 1.037.327.715.05 1.371-.377 2.049-.627.912-.332 1.895-.342 2.858-.34.964.003 1.942.018 2.866-.273.924-.292 1.802-.939 2.162-1.903.043-.09.057-.192.04-.291-.036-.106-.105-.195-.196-.252-1.298-1.04-1.825-2.302-3.286-3.05l-.089-.06z"/>
        <path fill="#000" d="M178.422 82.2c-.763.423-1.576.856-2.43.795-.768-.053-1.469-.503-2.046-1.054-.466-.438-.945-.984-1.558-.938-.41.03-.754.33-1.07.614l-1.688 1.527c-.284.206-.499.506-.612.855-.033.237-.02.479.04.71.076.407.204.883.567 1.021.364.139.76-.158 1.143-.272.478-.132.985.03 1.32.42.137.146.22.342.233.55 0 .454-.466.754-.894.777-.428.022-.838-.129-1.262-.101-.051-.007-.103.009-.144.044-.04.035-.067.086-.072.142-.053.323.05.653.272.876.221.218.479.389.76.503.325.174.676.285 1.037.327.715.05 1.371-.377 2.049-.627.912-.332 1.895-.342 2.858-.34.964.003 1.942.018 2.866-.273.924-.292 1.802-.939 2.162-1.903.043-.09.057-.192.04-.291-.036-.106-.105-.195-.196-.252-1.298-1.04-1.825-2.302-3.286-3.05l-.089-.06z" opacity=".1"/>
        <path fill="#D59D15" d="M207.368 55.467c-.774-.492-1.736-.602-2.603-.298-.857.304-1.627.808-2.242 1.47-.614.617-1.145 1.308-1.582 2.057-.418.726-.738 1.487-1.156 2.211-.738 1.296-1.703 2.44-2.672 3.573-.603.705-1.213 1.42-1.985 1.937-.773.519-1.636.836-2.16 1.556-.165.227-.283.484-.446.714-.514.741-1.387 1.138-2.148 1.635-2.18 1.43-3.535 3.808-5.572 5.428-.879.698-1.87 1.245-2.734 1.957-.804.662-1.476 1.454-2.278 2.132-.802.678-1.744 1.238-2.79 1.3.699 1.534 1.533 3.038 2.731 4.232 1.198 1.194 2.994 1.957 4.63 1.49.58-.165 1.15-.514 1.37-1.066.07-.284.168-.56.291-.826.164-.213.378-.385.622-.501 6.568-3.775 12.829-8.045 18.726-12.773 1.582-1.269 3.152-2.405 4.775-3.633.583-.406 1.121-.87 1.607-1.385 1.385-1.628 1.64-3.916.65-5.801-.436-.706-.935-1.372-1.491-1.99-1.013-1.297-2.206-2.448-3.543-3.42z"/>
        <path fill="#000" d="M207.368 55.467c-.774-.492-1.736-.602-2.603-.298-.857.304-1.627.808-2.242 1.47-.614.617-1.145 1.308-1.582 2.057-.418.726-.738 1.487-1.156 2.211-.738 1.296-1.703 2.44-2.672 3.573-.603.705-1.213 1.42-1.985 1.937-.773.519-1.636.836-2.16 1.556-.165.227-.283.484-.446.714-.514.741-1.387 1.138-2.148 1.635-2.18 1.43-3.535 3.808-5.572 5.428-.879.698-1.87 1.245-2.734 1.957-.804.662-1.476 1.454-2.278 2.132-.802.678-1.744 1.238-2.79 1.3.699 1.534 1.533 3.038 2.731 4.232 1.198 1.194 2.994 1.957 4.63 1.49.58-.165 1.15-.514 1.37-1.066.07-.284.168-.56.291-.826.164-.213.378-.385.622-.501 6.568-3.775 12.829-8.045 18.726-12.773 1.582-1.269 3.152-2.405 4.775-3.633.583-.406 1.121-.87 1.607-1.385 1.385-1.628 1.64-3.916.65-5.801-.436-.706-.935-1.372-1.491-1.99-1.013-1.297-2.206-2.448-3.543-3.42z" opacity=".1"/>
        <path fill="#3F3D56" d="M197.55 145.672c-.427.261-.953.407-1.253.83-.098.135-.164.294-.269.424-.325.406-.902.425-1.354.656-.361.183-.655.522-1.038.628-.23.059-.467.078-.702.058l-2.375-.076c-.753-.023-1.635.018-2.072.672-.143.24-.243.505-.299.782-.183.748-.332 1.595.052 2.252.46.781 1.466.94 2.334.992 3.351.198 6.712.128 10.053-.208.452-.062.909-.082 1.364-.06.362.031.716.117 1.073.182 1.8.326 3.643.136 5.462-.057.307-.016.61-.084.896-.203.29-.126.503-.396.57-.722.076-.537-.396-.993-.447-1.532-.037-.38.134-.805-.062-1.128-.073-.096-.155-.183-.244-.261-.327-.362-.423-.891-.503-1.386l-.428-2.676c-.012-.189-.084-.368-.205-.506-.09-.069-.194-.114-.303-.133-1.862-.448-3.771-.039-5.62.211-.953.15-1.916.2-2.877.154-.416-.029-.577-.08-.887.208-.31.29-.477.657-.865.9zM241.914 147.838c-.317.18-.656.317-1.009.404-.93.278-1.858.568-2.785.87-.246.063-.478.177-.68.335-.321.29-.404.766-.428 1.212-.03.245-.002.495.083.727.11.217.274.402.473.538 1.061.822 2.447 1.076 3.778 1.076 1.33 0 2.652-.23 3.983-.267 1.608-.043 3.258.19 4.804-.271.295-.112.602-.188.914-.228.208-.003.415.01.62.041.83.084 1.668.006 2.468-.23.241-.055.466-.169.654-.332.19-.169.26-.44.175-.683-.085-.197-.303-.34-.305-.555.011-.104.037-.205.078-.301.097-.332-.06-.679-.168-1.006-.306-.935-.256-2.011-.803-2.823-.547-.812-1.551-1.147-2.505-1.275-.776-.112-1.565-.09-2.333.068-.864.189-1.672.584-2.52.836-.983.29-2.011.389-3.03.293-.678-.058-.446.051-.676.633-.162.388-.438.715-.788.938z"/>
        <circle cx="204" cy="48" r="7" fill="#FBBEBE"/>
        <path fill="#D59D15" d="M254 146.27c-2.18 1.878-5.122 2.7-7.991 2.73-1.211.011-2.468-.12-3.5-.75-.072-.398-.101-.829-.174-1.227-1.252-.263-2.223-1.286-2.828-2.42-.606-1.132-.913-2.391-1.364-3.592-.687-1.829-1.695-3.513-2.702-5.186-.925-1.541-1.853-3.088-2.906-4.544-.698-.972-1.453-1.886-2.143-2.856-1.956-2.7-3.359-5.763-4.13-9.01-.117-.623-.285-1.235-.5-1.83-.417-1.017-1.18-1.844-1.768-2.77-.635-1-1.07-2.113-1.281-3.28-.119-.66-.322-1.376-.983-1.444-1.39 2.711-2.807 5.465-4.909 7.67-.33.319-.633.665-.903 1.036-.217.36-.411.734-.581 1.119-.327.69-.76 1.323-1.284 1.876-.44.472-1.018.79-1.651.905.466 2.336.189 4.76-.795 6.928-.293.642-.644 1.255-.92 1.904-1.128 2.674-.867 5.691-.986 8.592-.01.608-.081 1.213-.213 1.806-.293 1.186-.898 2.448-.605 3.635-3.037 1.164-6.41 1.091-9.626.6-.629-.058-1.24-.244-1.794-.547-.456-.324-.854-.724-1.177-1.181-.125-.134-.217-.294-.27-.47-.125-.554.485-.972.769-1.458.283-.487.334-1.257-.056-1.656.194-3.182 1.07-6.29 1.264-9.481.077-1.265.046-2.534.104-3.8.058-1.267.194-2.5.334-3.744.32-2.842 1.095-5.628.986-8.485-.033-.879.168-1.751.583-2.526.35-.589.747-1.148 1.187-1.672 1.487-1.928 3.274-3.861 3.804-6.241.274-1.228.88-2.351 1.48-3.455.356-.659.726-1.332 1.293-1.816.308-.214.595-.458.855-.73.397-.512.412-1.215.647-1.827.12-.317.307-.608.397-.934.074-.36.11-.727.109-1.094.077-1.177.528-2.314 1.002-3.391-1.116-.65-2.102-1.502-2.906-2.514-.27-.329-.505-.685-.702-1.063-.499-.987-.613-2.112-.848-3.194-.559-2.582-1.845-5.01-2.024-7.649-.053-.804 0-1.636-.279-2.397-.128-.322-.279-.634-.45-.936-.169-.296-.297-.613-.383-.943-.155-.717.059-1.459 0-2.188-.058-.644-.331-1.247-.467-1.877-.138-.82-.162-1.654-.07-2.48.06-.972.271-1.976.189-2.936-.27-3.214.835-6.391 3.039-8.738l.056-.056c.462-.486.968-.916 1.385-1.432.566-.69.968-1.502 1.567-2.173.261-.3.556-.567.816-.868.237-.316.5-.612.787-.885.293-.274.703-.384 1.094-.294.049.362.162.713.334 1.035.504.04.952.11 1.453.149.233.01.463.047.688.107.472.143.85.486 1.254.78 1.008.712 2.245 1.043 3.236 1.777 1.453 1.082 2.18 2.869 3.056 4.471 1.16 2.147 3.051 3.973 3.874 6.268l1.136 3.121c.744 2.037 1.487 4.082 2.494 6.003 1.403 2.674 3.301 5.083 4.427 7.881.113.281.321.512.589.652 1.533 2.159 2.895 4.435 4.075 6.807.622 1.255 1.21 2.558 1.39 3.946.264 1.962-.269 3.946-1.01 5.779-.12.262-.201.54-.242.826-.048.465.129.922.177 1.386.047.434-.017.872-.187 1.274-.15.282-.277.577-.38.88-.13.56.102 1.128.228 1.687.426 1.894.349 3.856.242 5.796-.056.973.727 1.743 1.378 2.456 1.21 1.334 2.155 2.895 3.068 4.453.497.79.915 1.628 1.25 2.5.346.994.484 2.047.675 3.08.615 3.187 2.63 6.005 3.177 9.202.254 1.464.9 2.832 1.87 3.955.292.304.562.63.806.973.168.272.301.565.398.87.238.71.35 1.456.331 2.205-.038.358-.018.72.06 1.072.228.742 1.042 1.15 1.376 1.848.334.698.104 1.592.242 2.385.105.64.446 1.217.957 1.614z"/>
        <path fill="#FBBEBE" d="M180.422 79.2c-.763.423-1.576.856-2.43.795-.768-.053-1.469-.503-2.046-1.054-.466-.438-.945-.984-1.558-.938-.41.03-.754.33-1.07.614l-1.688 1.527c-.284.206-.499.506-.612.855-.033.237-.02.479.04.71.076.407.204.883.567 1.021.364.139.76-.158 1.143-.272.478-.132.985.03 1.32.42.137.146.22.342.233.55 0 .454-.466.754-.894.777-.428.022-.838-.129-1.262-.101-.051-.007-.103.009-.144.044-.04.035-.067.086-.072.142-.053.323.05.653.272.876.221.218.479.389.76.503.325.174.676.285 1.037.327.715.05 1.371-.377 2.049-.627.912-.332 1.895-.342 2.858-.34.964.003 1.942.018 2.866-.273.924-.292 1.802-.939 2.162-1.903.043-.09.057-.192.04-.291-.036-.106-.105-.195-.196-.252-1.298-1.04-1.825-2.302-3.286-3.05l-.089-.06z"/>
        <path fill="#3F3D56" d="M200.442 43.492c-.414.065-.765.337-1.157.488-.533.2-1.128.17-1.636-.084-.175-.083-.328-.204-.448-.353-.32-.432-.208-1.06-.011-1.566.928-2.394 3.405-3.876 5.86-3.971 2.453-.096 4.84 1.017 6.775 2.608.575.46 1.092.984 1.538 1.563 1.009 1.359 1.466 3.094 1.6 4.813.08.72.03 1.45-.146 2.155-.172.692-.626 1.287-1.258 1.647-.684.339-1.505.232-2.196-.093-.69-.325-1.284-.839-1.877-1.329-.269-.251-.587-.448-.935-.578-.355-.123-.751-.032-1.012.232-.32.374-.24.987-.531 1.394-.292.406-.9.464-1.411.464-.512 0-1.03-.041-1.337-.436-.28-.358-.24-.88-.134-1.331.105-.45.285-.897.24-1.359-.099-.929-.936-1.5-1.197-2.355-.17-.56.204-.797.165-1.303-.028-.446-.521-.664-.892-.606z"/>
        <path fill="#000" d="M221 110v.063c-1.327 2.787-2.679 5.62-4.685 7.887-.315.327-.604.684-.862 1.065-.207.37-.392.754-.555 1.15-.31.71-.724 1.36-1.225 1.93L212 123l5.316-30L221 110zM212.806 66.271c-.467.496-.985.944-1.544 1.336-1.562 1.169-3.075 2.271-4.591 3.505-1.223.983-2.462 1.946-3.719 2.888-.165-.284-.29-.59-.373-.907-.152-.689.056-1.401 0-2.102-.057-.62-.324-1.199-.457-1.804-.135-.787-.158-1.59-.068-2.383.059-.935.264-1.9.184-2.823-.265-3.096.82-6.157 2.983-8.413l.054-.054c.255-.146.524-.265.804-.355.836-.29 1.76-.18 2.503.299 1.286.937 2.432 2.047 3.406 3.299.535.596 1.014 1.238 1.433 1.918.956 1.817.713 4.024-.615 5.596z" opacity=".1"/>
        <path fill="#D59D15" d="M209.368 53.467c-.774-.492-1.736-.602-2.603-.298-.857.304-1.627.808-2.242 1.47-.614.617-1.145 1.308-1.582 2.057-.418.726-.738 1.487-1.156 2.211-.738 1.296-1.703 2.44-2.672 3.573-.603.705-1.213 1.42-1.985 1.937-.773.519-1.636.836-2.16 1.556-.165.227-.283.484-.446.714-.514.741-1.387 1.138-2.148 1.635-2.18 1.43-3.535 3.808-5.572 5.428-.879.698-1.87 1.245-2.734 1.957-.804.662-1.476 1.454-2.278 2.132-.802.678-1.744 1.238-2.79 1.3.699 1.534 1.533 3.038 2.731 4.232 1.198 1.194 2.994 1.957 4.63 1.49.58-.165 1.15-.514 1.37-1.066.07-.284.168-.56.291-.826.164-.213.378-.385.622-.501 6.568-3.775 12.829-8.045 18.726-12.773 1.582-1.269 3.152-2.405 4.775-3.633.583-.406 1.121-.87 1.607-1.385 1.385-1.628 1.64-3.916.65-5.801-.436-.706-.935-1.372-1.491-1.99-1.013-1.297-2.206-2.448-3.543-3.42z"/>
        <g fill="#000" opacity=".1">
            <path d="M7.303 8.802c-.478 0-1.03-.04-1.335-.427-.277-.35-.239-.861-.134-1.302.105-.441.284-.878.239-1.33-.098-.909-.934-1.468-1.194-2.304-.17-.548.203-.78.165-1.275-.034-.43-.523-.644-.894-.587-.413.064-.764.33-1.155.478-.532.196-1.127.166-1.634-.082-.175-.081-.327-.2-.446-.346C.595 1.205.707.591.903.095c0-.018.016-.034.024-.052-.2.304-.368.626-.502.962C.23 1.5.117 2.114.437 2.536c.119.147.272.265.447.346.507.248 1.101.278 1.633.082.392-.148.743-.414 1.156-.478.37-.056.86.157.893.587.038.495-.334.727-.165 1.275.256.836 1.092 1.404 1.194 2.304.048.455-.126.891-.239 1.33-.112.438-.143.952.134 1.302.306.386.853.423 1.335.427.482.005 1.103-.027 1.409-.454.132-.215.219-.452.256-.698-.325.22-.779.248-1.187.243zM15.253 8.72c-.683.332-1.503.228-2.193-.09-.69-.319-1.282-.82-1.874-1.3-.269-.247-.586-.44-.934-.566-.354-.12-.75-.032-1.01.227-.162.228-.265.49-.299.764.252-.141.555-.172.831-.085.348.128.666.32.934.566.592.48 1.194.984 1.875 1.3.68.316 1.509.423 2.192.091.604-.336 1.044-.886 1.225-1.53-.196.26-.452.473-.747.623z" transform="translate(197 41)"/>
        </g>
        <circle cx="152" cy="146" r="7" fill="#3F3D56"/>
        <circle cx="152" cy="146" r="7" fill="#000" opacity=".1"/>
        <ellipse cx="152" cy="146.5" fill="#65617D" rx="4" ry="4.5"/>
        <ellipse cx="152" cy="146.5" fill="#000" opacity=".1" rx="4" ry="4.5"/>
        <path fill="#3F3D56" d="M146 135.723l4.723 10.727c.144.328.464.543.821.55.357.007.686-.195.842-.517L158 135l-12 .723z"/>
        <path fill="#000" d="M146 135.723l4.723 10.727c.144.328.464.543.821.55.357.007.686-.195.842-.517L158 135l-12 .723z" opacity=".1"/>
        <circle cx="106" cy="146" r="7" fill="#3F3D56"/>
        <circle cx="106" cy="146" r="7" fill="#000" opacity=".1"/>
        <ellipse cx="106" cy="146.5" fill="#65617D" rx="4" ry="4.5"/>
        <ellipse cx="106" cy="146.5" fill="#000" opacity=".1" rx="4" ry="4.5"/>
        <path fill="#3F3D56" d="M101 135.723l4.723 10.727c.144.328.464.543.821.55.357.007.686-.195.842-.517L113 135l-12 .723z"/>
        <path fill="#000" d="M101 135.723l4.723 10.727c.144.328.464.543.821.55.357.007.686-.195.842-.517L113 135l-12 .723z" opacity=".1"/>
        <path fill="#3F3D56" d="M173.982 82.948c-.043-.37-.285-.693-.644-.859-.3-.118-.639-.119-.939-.001-.3.117-.536.343-.654.625l-4.452 10.246L166 139h2.07l.775-45.942 5.029-9.415c.114-.215.152-.459.108-.695z"/>
        <path fill="#D59D15" d="M89 136L95.46 131.641 165.206 131 167 136z"/>
        <path fill="#3F3D56" d="M90 142L90 136.906 169 136 168.924 139.453 91.431 139.453 91.431 142z"/>
        <circle cx="100" cy="149" r="7" fill="#3F3D56"/>
        <ellipse cx="100" cy="149.5" fill="#65617D" rx="4" ry="4.5"/>
        <path fill="#3F3D56" d="M95 137.723l4.723 10.727c.144.328.464.543.821.55.357.007.686-.195.842-.517L107 137l-12 .723z"/>
        <circle cx="156" cy="149" r="7" fill="#3F3D56"/>
        <ellipse cx="156" cy="149.5" fill="#65617D" rx="4" ry="4.5"/>
        <path fill="#3F3D56" d="M150 137.723l4.723 10.727c.144.328.464.543.821.55.357.007.686-.195.842-.517L162 137l-12 .723z"/>
        <path fill="#65617D" d="M98 117H128V134H98z"/>
        <path fill="#000" d="M110 120H118V122H110z" opacity=".1"/>
        <path fill="#000" d="M110 120H117V122H110z" opacity=".1"/>
        <path fill="#65617D" d="M130 117H160V134H130z"/>
        <path fill="#000" d="M141 120H149V122H141z" opacity=".1"/>
        <path fill="#000" d="M142 120H149V122H142z" opacity=".1"/>
        <path fill="#65617D" d="M98 101H128V118H98z"/>
        <path fill="#000" d="M110 103H118V105H110z" opacity=".1"/>
        <path fill="#000" d="M110 103H117V105H110z" opacity=".1"/>
        <path fill="#65617D" d="M130 101H160V118H130z"/>
        <path fill="#000" d="M141 103H149V105H141z" opacity=".1"/>
        <path fill="#000" d="M142 103H149V105H142z" opacity=".1"/>
        <path fill="#65617D" d="M98 82H128V99H98z"/>
        <path fill="#000" d="M110 85H118V87H110z" opacity=".1"/>
        <path fill="#000" d="M110 86H117V88H110z" opacity=".1"/>
        <path fill="#65617D" d="M130 82H160V99H130z"/>
        <path fill="#000" d="M141 85H149V87H141z" opacity=".1"/>
        <path fill="#000" d="M142 86H149V88H142z" opacity=".1"/>
        <path fill="#65617D" d="M130 64H160V81H130z"/>
        <path fill="#000" d="M141 68H149V70H141z" opacity=".1"/>
        <path fill="#000" d="M142 68H149V70H142z" opacity=".1"/>
    </g>
</svg>
