<svg xmlns="http://www.w3.org/2000/svg" width="405" height="316" viewBox="0 0 405 316">
    <g fill="none">
        <path fill="#3F3D56" d="M356.71 293.413c-.03-.129-2.824-13.02 2.883-23.727 5.706-10.706 17.887-15.428 18.01-15.475l.556-.211.132.587c.029.129 2.823 13.02-2.884 23.727-5.706 10.706-17.887 15.428-18.01 15.475l-.557.211-.13-.587zm20.686-37.98c-2.44 1.061-12.07 5.709-16.89 14.751-4.82 9.044-3.366 19.739-2.902 22.383 2.44-1.059 12.065-5.7 16.89-14.751 4.82-9.044 3.366-19.737 2.902-22.383z"/>
        <path fill="#D0CDE1" d="M371.535 274.479C361.04 280.876 357 293.584 357 293.584s12.972 2.335 23.465-4.063C390.96 283.124 395 270.416 395 270.416s-12.972-2.335-23.465 4.063z"/>
        <path fill="#3F3D56" d="M144 236c-1.245 0-2.502-.02-3.737-.058l.028-.897c1.773.055 3.582.07 5.362.046l.012.898c-.554.007-1.109.01-1.665.011zm7.064-.208l-.052-.896c1.775-.104 3.572-.252 5.343-.437l.094.892c-1.784.187-3.596.336-5.385.44zm-16.195-.14c-1.79-.137-3.598-.317-5.376-.535l.11-.89c1.764.216 3.558.395 5.335.53l-.069.895zm26.938-.987l-.135-.886c1.764-.268 3.541-.579 5.281-.925l.175.88c-1.754.349-3.544.662-5.321.931zm-37.66-.328c-1.767-.3-3.552-.644-5.304-1.024l.19-.877c1.739.377 3.51.72 5.265 1.016l-.15.885zm48.255-1.777l-.216-.871c1.731-.429 3.472-.902 5.174-1.406l.255.86c-1.715.509-3.47.985-5.213 1.417zm-58.81-.515c-1.735-.461-3.48-.969-5.188-1.509l.27-.855c1.695.536 3.427 1.04 5.148 1.497l-.23.867zm69.166-2.558l-.295-.847c1.68-.584 3.37-1.216 5.023-1.877l.333.833c-1.666.667-3.368 1.303-5.061 1.891zm-79.48-.703c-1.684-.619-3.38-1.287-5.037-1.985l.348-.827c1.645.693 3.327 1.356 4.999 1.97l-.31.842zm89.498-3.305l-.371-.817c1.613-.733 3.234-1.516 4.82-2.326l.408.8c-1.597.816-3.231 1.604-4.857 2.343zm9.6-4.908l-.443-.78c1.547-.882 3.091-1.81 4.59-2.758l.479.758c-1.51.955-3.066 1.89-4.625 2.78zm9.12-5.769l-.514-.735c1.457-1.018 2.91-2.084 4.32-3.168l.548.712c-1.421 1.092-2.886 2.166-4.355 3.191zm-136.767-1.264c-1.448-1.052-2.895-2.153-4.3-3.276l.56-.7c1.395 1.113 2.83 2.206 4.268 3.25l-.528.726zm145.326-5.314l-.579-.686c1.358-1.146 2.71-2.34 4.017-3.55l.61.66c-1.318 1.218-2.68 2.421-4.048 3.576zm-153.772-1.43c-1.349-1.18-2.689-2.41-3.983-3.652l.622-.647c1.284 1.233 2.614 2.452 3.952 3.625l-.59.674zm161.701-5.905l-.639-.63c1.252-1.268 2.49-2.58 3.68-3.9l.667.6c-1.2 1.33-2.447 2.652-3.708 3.93zm-169.495-1.575c-1.238-1.301-2.46-2.647-3.633-3.998l.678-.588c1.164 1.341 2.377 2.676 3.605 3.967l-.65.619zm176.728-6.452l-.694-.57c1.131-1.376 2.245-2.796 3.31-4.221l.72.537c-1.075 1.436-2.197 2.868-3.336 4.254zM51.41 191.159c-1.112-1.405-2.206-2.855-3.253-4.31l.728-.524c1.04 1.444 2.125 2.883 3.228 4.277l-.703.557zm190.28-6.954l-.742-.503c1-1.474 1.98-2.99 2.913-4.509l.765.47c-.94 1.53-1.928 3.058-2.936 4.542zm-196.585-1.807c-.977-1.5-1.934-3.042-2.844-4.586l.773-.455c.903 1.532 1.853 3.063 2.823 4.55l-.752.49zm202.245-7.408l-.785-.434c.862-1.559 1.698-3.16 2.488-4.759l.805.398c-.796 1.61-1.64 3.224-2.508 4.795zm4.792-9.701l-.822-.36c.716-1.633 1.402-3.306 2.041-4.97l.838.321c-.644 1.678-1.336 3.363-2.057 5.009zM35.03 163.353c-.688-1.651-1.346-3.34-1.958-5.021l.844-.307c.606 1.668 1.26 3.344 1.942 4.983l-.828.345zm220.993-8.173l-.852-.282c.56-1.688 1.088-3.412 1.57-5.127l.864.243c-.486 1.728-1.018 3.466-1.582 5.166zm-224.679-1.966c-.534-1.71-1.036-3.458-1.491-5.193l.868-.228c.452 1.722.95 3.456 1.48 5.153l-.857.268zm227.603-8.433l-.874-.203c.402-1.73.77-3.496 1.092-5.25l.883.163c-.326 1.767-.696 3.546-1.1 5.29zm-230.344-2.017c-.374-1.752-.713-3.538-1.006-5.307l.885-.148c.292 1.757.628 3.529.999 5.268l-.878.187zm232.3-8.607l-.89-.121c.242-1.758.446-3.55.606-5.327l.894.08c-.162 1.792-.367 3.597-.61 5.368zM26.835 132.11c-.212-1.777-.385-3.586-.517-5.377l.895-.066c.13 1.778.303 3.573.513 5.336l-.891.107zm235.044-8.709l-.897-.04c.08-1.778.12-3.582.12-5.36H262c0 1.792-.04 3.61-.121 5.4zm-235.833-2.064c-.03-1.1-.046-2.223-.046-3.336 0-.69.006-1.38.018-2.068l.897.016c-.012.683-.018 1.367-.018 2.052 0 1.105.016 2.219.046 3.311l-.897.025zm1.082-10.745l-.896-.056c.112-1.793.267-3.604.46-5.383l.892.097c-.192 1.765-.345 3.562-.456 5.342zm233.395-5.474c-.179-1.77-.425-2.632-.686-4.393l.888-.131c.262 1.774.487 3.13.668 4.912l-.87-.388zm-232.24-5.183l-.887-.137c.274-1.775.594-3.565.949-5.319l.88.178c-.353 1.74-.67 3.516-.943 5.278zm230.649-4.494c-.343-1.75-.729-3.512-1.148-5.237l.872-.212c.422 1.738.811 3.513 1.156 5.277l-.88.172zM30.408 89.427l-.87-.218c.435-1.738.918-3.49 1.434-5.209l.86.258c-.513 1.706-.992 3.445-1.424 5.17zm225.988-4.403c-.5-1.708-1.048-3.427-1.626-5.109l.849-.291c.582 1.694 1.134 3.426 1.638 5.148l-.861.252zm-222.9-5.877l-.846-.298c.597-1.696 1.24-3.4 1.914-5.066l.832.337c-.668 1.652-1.307 3.344-1.9 5.027zm219.415-4.26c-.655-1.652-1.356-3.309-2.084-4.926l.819-.369c.733 1.63 1.44 3.3 2.1 4.964l-.835.33zm-215.387-5.7l-.815-.374c.75-1.632 1.547-3.269 2.37-4.865l.798.412c-.817 1.583-1.609 3.208-2.353 4.827zm210.995-4.054c-.803-1.584-1.654-3.171-2.529-4.717l.781-.442c.882 1.558 1.74 3.157 2.548 4.754l-.8.405zM42.45 59.646l-.777-.447c.895-1.555 1.839-3.11 2.806-4.624l.756.482c-.96 1.503-1.896 3.047-2.785 4.59zm200.798-3.829c-.948-1.51-1.94-3.013-2.95-4.47l.736-.51c1.018 1.467 2.019 2.982 2.974 4.503l-.76.477zM48.225 50.602l-.733-.517c1.034-1.467 2.116-2.93 3.215-4.347l.709.55c-1.09 1.407-2.164 2.858-3.19 4.314zm188.919-3.586c-1.082-1.416-2.208-2.824-3.348-4.185l.688-.576c1.148 1.37 2.283 2.79 3.373 4.216l-.713.545zM54.8 42.126l-.683-.582c1.16-1.363 2.37-2.72 3.596-4.034l.656.612c-1.216 1.304-2.417 2.65-3.57 4.004zm175.46-3.324c-1.205-1.312-2.455-2.612-3.715-3.865l.632-.636c1.27 1.262 2.53 2.572 3.744 3.894l-.66.607zM62.116 34.287l-.627-.642c1.283-1.255 2.61-2.496 3.946-3.688l.597.67c-1.325 1.182-2.642 2.414-3.916 3.66zm160.542-3.042c-1.321-1.198-2.685-2.38-4.054-3.512l.572-.692c1.38 1.141 2.754 2.332 4.085 3.54l-.603.664zM70.11 27.148l-.567-.696c1.388-1.13 2.822-2.245 4.263-3.313l.535.72c-1.43 1.061-2.854 2.167-4.231 3.289zm8.606-6.38l-.5-.744c1.485-.999 3.014-1.978 4.544-2.909l.467.767c-1.52.924-3.037 1.895-4.511 2.887zm9.147-5.563l-.43-.788c1.571-.86 3.182-1.694 4.789-2.48l.394.807c-1.594.78-3.193 1.607-4.753 2.46zm108.296-2.08c-1.597-.795-3.233-1.563-4.862-2.283l.363-.821c1.642.726 3.29 1.5 4.9 2.302l-.401.803zm-98.684-2.621l-.357-.824c1.642-.711 3.322-1.394 4.993-2.029l.318.84c-1.658.629-3.325 1.306-4.954 2.013zm88.86-1.72c-1.662-.645-3.363-1.26-5.055-1.828l.286-.85c1.705.572 3.418 1.191 5.093 1.84l-.325.837zm-78.851-2.081l-.28-.853c1.706-.559 3.446-1.085 5.171-1.564l.24.864c-1.712.476-3.439.998-5.131 1.553zm68.675-1.334c-1.712-.488-3.457-.943-5.188-1.35l.205-.874c1.745.411 3.504.87 5.229 1.36l-.246.864zm-58.346-1.533l-.2-.875c1.749-.399 3.53-.763 5.293-1.08l.16.882c-1.75.316-3.518.677-5.253 1.073zm47.912-.927c-1.747-.328-3.527-.62-5.29-.867l.125-.889c1.776.25 3.57.544 5.331.874l-.166.882zm-37.363-.977l-.118-.889c1.776-.237 3.582-.436 5.369-.592l.078.894c-1.773.155-3.566.352-5.329.587zm26.748-.514c-1.767-.167-3.566-.295-5.347-.381l.043-.897c1.795.087 3.607.216 5.388.384l-.084.894zM139.041 1l-.037-.897C140.653.035 142.334 0 144 0h.406l-.002.898H144c-1.654 0-3.322.035-4.959.103zM76 293H405V294H76z"/>
        <path fill="#2F2E41" d="M268.243 142.012l4.485 69.461s10.765 27.336 10.317 53.328c0 0-4.037 10.307-.897 12.1 3.14 1.792 4.933 3.136 3.14 4.48-1.795 1.345-3.14 4.482-1.795 5.378 1.346.897 1.794 2.241 1.346 2.241h-13.456s2.691-6.722-1.346-8.515c-4.036-1.792-1.794-6.273-1.794-6.273l-30.051-87.834-23.772 80.663s4.037 2.69.897 4.034c-3.14 1.344-4.485-1.345-3.14 1.344 1.346 2.689-.448 4.033-.448 4.481 0 .449-13.456-1.344-13.456-1.344s6.728-5.826 3.588-7.17c-3.14-1.345-4.485-2.689-3.588-3.585.897-.896 4.485-9.411 4.485-9.411s1.794-32.266 2.243-33.61c.448-1.344 0-7.618 0-10.755 0-3.137-.449-15.685.897-18.822 1.345-3.137 2.691-41.676 9.867-46.157 7.177-4.482 52.478-4.034 52.478-4.034z"/>
        <path fill="#2F2E41" d="M211.122 275.024s8.89 18.44 2.667 20.688c-6.223 2.248-14.224.45-16.002 3.148-1.778 2.698-21.336 5.846-21.78-.9-.445-6.745 21.336-19.338 21.336-19.338L200.18 274l10.942 1.024zM284.122 289.024s8.89 18.44 2.667 20.688c-6.223 2.248-14.224.45-16.002 3.148-1.778 2.698-21.336 5.846-21.78-.9-.445-6.745 21.336-19.338 21.336-19.338L273.18 288l10.942 1.024z"/>
        <circle cx="243" cy="42" r="15" fill="#A0616A"/>
        <path fill="#A0616A" d="M253 51L251.19 63.827 237.619 74 234 69.135 234 52.327z"/>
        <path fill="#3F3D56" d="M231.517 67.586s13.924 1.345 21.11-3.586L267 148.73s-50.754 4.035-53 1.345v-26.45l8.983-43.038 8.534-13z"/>
        <path fill="#D0CDE1" d="M252.01 59l4.764 4.056s19.49 3.142 18.161 8.529l-5.316 63.739 1.772 21.545s-15.06-4.04-26.577 0c-11.517 4.04-2.367-86.812-2.367-86.812S253.005 60.33 252.01 59zM233.83 64s-14.388 10.398-16.187 17.153C215.845 87.908 210 159.06 210 159.06s2.698-1.351 4.046.9c1.35 2.252 22.031-92.398 19.783-95.96z"/>
        <path fill="#2F2E41" d="M228.132 41.867s-1.61-2.387-.99-4.956c.37-1.46.515-2.965.433-4.467 0 0 1.3-4.16 2.599-6.485 1.3-2.326.68-3.304 4.764-4.039 4.084-.734 2.414-5.996 13.18-.306.743 1.026 2.037 1.509 3.28 1.224 2.228-.428 3.032 2.631 3.032 2.631s1.485-.857 2.042.367c.557 1.224 4.528-.734 4.528 7.526S256.481 49 256.481 49s.332-13.894-7.032-15.302c-7.364-1.407-15.284-5.506-17.202-.244-1.036 2.953-2.417 5.776-4.115 8.413z"/>
        <ellipse cx="256.5" cy="43" fill="#A0616A" rx="1.5" ry="2"/>
        <path fill="#D0CDE1" d="M195.16 181.997c-3.438-2.249-7.584-2.077-9.16-1.905.6 1.593 2.401 5.659 5.84 7.91 3.446 2.254 7.586 2.077 9.16 1.906-.6-1.593-2.401-5.66-5.84-7.911zM212.038 225h-22.072c-2.743 0-4.966 2.239-4.966 5s2.223 5 4.966 5h22.072c2.741-.003 4.962-2.24 4.962-5s-2.22-4.997-4.962-5z"/>
        <path fill="#D0CDE1" d="M312.938 172H188.062c-2.934 0-5.748 1.166-7.822 3.241-2.075 2.076-3.24 4.89-3.24 7.825v60.868c0 6.111 4.953 11.066 11.062 11.066h124.876c2.934 0 5.748-1.166 7.822-3.241 2.075-2.076 3.24-4.89 3.24-7.825v-60.868c0-2.935-1.165-5.75-3.24-7.825-2.074-2.075-4.888-3.241-7.822-3.241zm-127.966 7.549c.247-.045 6.094-1.04 10.936 1.875 4.842 2.914 6.702 8.549 6.779 8.787l.196.608-.629.111c-.896.14-1.802.207-2.71.2-2.199 0-5.385-.364-8.226-2.075-4.842-2.913-6.702-8.549-6.778-8.787l-.196-.608.628-.111zm27.108 56.511h-22.273c-3.383 0-6.125-2.743-6.125-6.127s2.742-6.128 6.125-6.128h22.273c3.382 0 6.125 2.744 6.125 6.128s-2.743 6.127-6.125 6.127zm101.34-1.114c-.01 3.688-2.996 6.674-6.681 6.685h-16.705c-3.686-.01-6.67-2.997-6.682-6.685V224.92c.011-3.687 2.996-6.673 6.682-6.684h16.705c3.685.01 6.67 2.997 6.681 6.684v10.027z"/>
        <path fill="#D0CDE1" d="M295.075 233h-7.15c-1.063 0-1.925.895-1.925 2s.862 2 1.925 2h7.15c1.063 0 1.925-.895 1.925-2s-.862-2-1.925-2zm0 2.857h-7.15c-.295 0-.568-.162-.716-.428-.148-.265-.148-.593 0-.858.148-.266.42-.429.716-.428h7.15c.295 0 .568.162.716.428.148.265.148.593 0 .858-.148.266-.42.429-.716.428zM308.076 233h-7.149c-.688-.001-1.324.38-1.669 1-.344.618-.344 1.382 0 2 .345.62.981 1.001 1.67 1h7.148c1.062 0 1.924-.895 1.924-2s-.862-2-1.924-2zm0 2.857h-7.149c-.295 0-.568-.162-.715-.428-.148-.265-.148-.593 0-.858.147-.266.42-.429.715-.428h7.149c.454.001.822.384.822.857s-.368.856-.822.857zM295.073 228h-7.149c-1.062 0-1.924.895-1.924 2s.862 2 1.924 2h7.149c.688.001 1.324-.38 1.669-1 .344-.618.344-1.382 0-2-.345-.62-.981-1.001-1.67-1zm0 2.857h-7.149c-.455 0-.824-.384-.824-.857s.369-.857.824-.857h7.149c.455 0 .824.384.824.857s-.369.857-.824.857zM308.076 228h-7.149c-.688-.001-1.324.38-1.669 1-.344.618-.344 1.382 0 2 .345.62.981 1.001 1.67 1h7.148c1.062 0 1.924-.895 1.924-2s-.862-2-1.924-2zm0 2.857h-7.149c-.455 0-.824-.384-.824-.857s.369-.857.824-.857h7.149c.455 0 .824.384.824.857s-.369.857-.824.857zM295.075 223h-7.15c-1.063 0-1.925.895-1.925 2s.862 2 1.925 2h7.15c1.063 0 1.925-.895 1.925-2s-.862-2-1.925-2zm0 2.857h-7.15c-.456 0-.825-.384-.825-.857s.37-.857.825-.857h7.15c.456 0 .825.384.825.857s-.37.857-.825.857zM308.078 223h-7.15c-.689-.001-1.325.38-1.67 1-.344.618-.344 1.382 0 2 .345.62.981 1.001 1.67 1h7.15c1.062-.002 1.922-.897 1.922-2s-.86-1.998-1.922-2zm0 2.857h-7.15c-.456 0-.825-.384-.825-.857s.37-.857.825-.857h7.15c.456 0 .825.384.825.857s-.37.857-.825.857z"/>
        <path fill="#A0616A" d="M273 158.165l-3.234 10.575s-.827 19.716-11.655 17.004c-10.828-2.713 3.158-25.77 3.158-25.77l3.159-4.974 8.572 3.165zM212 158.165l-3.234 10.575s-.827 19.716-11.655 17.004c-10.828-2.713 3.158-25.77 3.158-25.77l3.159-4.974 8.572 3.165z"/>
        <path fill="#D0CDE1" d="M271.51 68.094s7.245-1.806 9.509 10.384c2.264 12.19 4.981 46.953 4.981 46.953L275.132 162s-10.868-5.87-13.132-4.966l8.552-31.748-7.194-32.36s6.34-24.832 8.151-24.832z"/>
        <path fill="#000" d="M261 94L270 125.277 261 157 266.143 125.277z" opacity=".15"/>
        <path fill="#D0CDE1" d="M218 93l-16 63.928s8.44 2.821 11.55 5.072L218 93z"/>
        <circle cx="48" cy="209" r="45" fill="#3F3D56"/>
        <circle cx="48.5" cy="208.5" r="38.5" fill="#000" opacity=".1"/>
        <path fill="#D59D15" d="M46.364 232v-5.659c-2.792-.056-5.68-1.065-7.364-2.465l1.155-3.754c2.002 1.537 4.43 2.38 6.93 2.409 3.418 0 5.728-2.297 5.728-5.49 0-3.083-1.877-4.987-5.439-6.668-4.909-2.241-7.94-4.819-7.94-9.693 0-4.65 2.839-8.18 7.267-9.021V186h2.983v5.435c2.225.031 4.396.711 6.257 1.96l-1.203 3.699c-1.785-1.252-3.9-1.917-6.064-1.905-3.706 0-5.102 2.577-5.102 4.818 0 2.914 1.78 4.37 5.968 6.388 4.957 2.353 7.46 5.266 7.46 10.253 0 4.426-2.647 8.573-7.604 9.525V232h-3.032z"/>
        <path fill="#3F3D56" d="M96 300.534c-31.824 4.621-64.176 4.621-96 0V290c31.858 4.155 64.142 4.155 96 0v10.534zM96 283.534c-31.824 4.621-64.176 4.621-96 0V273c31.858 4.155 64.142 4.155 96 0v10.534zM96 267.534c-31.824 4.621-64.176 4.621-96 0V257c31.858 4.155 64.142 4.155 96 0v10.534z"/>
    </g>
</svg>
