<svg xmlns="http://www.w3.org/2000/svg" width="277" height="217" viewBox="0 0 277 217">
    <defs>
        <linearGradient id="prefix__a" x1=".042%" x2="100%" y1="50.012%" y2="50.012%">
            <stop offset="0%" stop-color="gray" stop-opacity=".25"/>
            <stop offset="54%" stop-color="gray" stop-opacity=".12"/>
            <stop offset="100%" stop-color="gray" stop-opacity=".1"/>
        </linearGradient>
    </defs>
    <g fill="none">
        <ellipse cx="96.5" cy="204" fill="#D59D15" opacity=".1" rx="48.5" ry="9"/>
        <path fill="#D59D15" d="M160.94 30.663c-17.758-.616-34.671-6.37-50.821-12.662C93.969 11.71 77.972 4.74 60.639 1.406 49.491-.74 36.741-1.044 27.76 4.946c-8.645 5.78-11.439 15.73-12.94 24.971-1.13 6.953-1.794 14.273 1.301 20.783 2.151 4.52 5.965 8.318 8.605 12.648 9.183 15.062 2.691 33.637-7.258 48.344-4.664 6.898-10.083 13.488-13.686 20.824-3.603 7.336-5.268 15.77-2.115 23.273 3.122 7.432 10.566 13.004 18.63 16.926 16.378 7.969 35.67 10.248 54.495 11.542 41.66 2.857 83.538 1.621 125.307.38 15.459-.457 30.983-.922 46.19-3.32 8.445-1.332 17.162-3.446 23.295-8.55 7.781-6.477 9.71-17.443 4.494-25.563-8.747-13.626-32.926-17.009-39.047-31.628-3.364-8.048.09-17.011 4.982-24.473 10.493-16.012 28.078-30.059 29.003-48.358.636-12.569-7.818-25.157-20.89-31.105-13.699-6.235-32.7-5.45-42.803 4.87-10.412 10.613-28.703 14.701-44.383 14.153z" opacity=".1"/>
        <path fill="url(#prefix__a)" d="M147 98.86l-8.338-5.664 4.206-6.309-22.022-1.77-7.913 6.167-9.906-5.596-8.261 1.002-.098-2.195c-.102-2.287-.33-4.568-.683-6.83.035-.685.06-1.473.057-2.328 0-3.607-.485-8.388-2.613-11.576l.49-4.438-3.975-4.732c.639-1.28 1.366-2.514 2.178-3.692.136-.197.272-.39.42-.576 5.158-.375 9.227-4.649 9.227-9.874 0-.242 0-.483-.027-.722 0-.096-.02-.194-.03-.29.504.274 1.013.548 1.522.822.095.138.204.275.324.437l.024.03.152.189.05.058c.054.065.111.129.168.194l.038.044c.145.162.297.327.46.489.02.015.038.033.055.052l.204.192.057.052c.174.156.36.307.545.45l.06.043.234.162.076.05c.09.055.182.112.272.164l.033.02c.106.057.215.112.324.164l.054.022c.093.04.183.079.272.115l.085.03c.095.033.187.063.285.09l.06.017c.12.03.24.055.362.074h.014c.115.02.232.031.348.036h.08c.104.006.208.006.312 0h.068c.131-.008.26-.023.39-.047.609-.08 1.193-.292 1.715-.62.132-.089.25-.2.348-.326.544-.719-.054-1.506-.054-1.506-.213-.51-1.59-.87-1.59-.87s-4.355-1.832-4.355-3.29c0-1.46-1.09-9.03-12.329-10.762 0 0-7.311-.414-9.367 3.53l-.043.461c-.604.382-1.105 1.147-1.701 1.372-.258.056-.506.148-.738.274v-.052c-.069.06-.125.134-.166.217-.128.257-.205.536-.226.823-.061.35-.182.687-.357.995-.048.088-.103.173-.163.253l-.046.074c.316.025.633-.027.925-.151-.046.376-.137.744-.272 1.097.353.012.681-.186.838-.505v-.021l.036-.05c.068-.127.125-.26.169-.398l-.03.033c.054-.178.103-.359.163-.535.027-.098.073-.191.133-.274.148-.15.357-.22.564-.19l-.112 2.38h.05c-.066.172-.146.34-.24.498-.387.631-1.09 1.062-1.348 1.753-.111.333-.154.686-.125 1.037 0 .206.025.414.04.62v-.017c.039.549.05 1.07-.244 1.512-.202.301-.525.53-.637.872-.03.095-.045.196-.04.296.02.3.083.597.184.88v-.016c.068.209.084.431.046.648-.122.548-.783 1.006-.75 1.53-.003.07.007.138.03.203.126.256.347.453.614.549.42.24.902.347 1.383.307.18-.033.355-.093.517-.178-.19.441-.386.877-.585 1.292-.03.065-.063.131-.095.197 0 0-1.682-1.133-2.638 1.177-.279.48-.478 1.002-.59 1.547-.048.218-.116.43-.202.636-.424.724-1.059 1.298-1.818 1.646-1.95.9-9.822 10.794-9.96 13.355-.069 1-.236 1.991-.501 2.957-.62 2.276-.78 4.654-.469 6.992.098.756.259 1.502.482 2.23.836 2.56 1.394 7.335 1.394 7.335l.904 8.29c-.034 1.143.015 2.288.147 3.425-.923 1.062-4.628 5.486-3.212 6.69 1.088.95 2.994.793 4.064.598-.901 2.247-2.32 6.153-2.507 8.835-.273 3.97.465 9.228 1.633 11.246 1.168 2.02 5.06 7.198 5.06 7.198s-.182 7.104 1.209 9.685c1.39 2.582 1.952 7.936 1.952 7.936s1.298 4.52.647 6.183c-.65 1.662 1.206 3.044-.743 4.15-1.949 1.105-4.442 26.02-4.442 26.02s-1.005 16.328 0 17.16c.054.039.111.073.171.1v5.487s-.696 1.152 2.137 1.385c1.941.156 7.442.51 10.706.716l2.529.159s5.989 1.201 8.634 0c2.646-1.201 7.336-1.174 6.64-4.348-.093-.431-.216-.856-.37-1.27-.765-1.969-2.064-2.194-4.457-2.743-.138-.03-.272-.057-.394-.08-2.521-.44-3.348.742-4.761-.797-1.228-1.33-5.137-2.82-6.468-3.292.033-.099.074-.195.106-.296-.377-.065-.727-.237-1.01-.497l3.607.23 2.148.135s5.09 1.023 7.35 0c2.259-1.023 6.233-.995 5.64-3.692-.079-.367-.183-.728-.313-1.08-.651-1.674-1.756-1.857-3.79-2.321-.117-.025-.225-.05-.334-.069-2.143-.375-2.845.629-4.045-.677-1.03-1.114-4.277-2.362-5.445-2.787 0-.609-.816-1.476-1.33-2.345-.605-1.015.511-4.567.511-4.567l.637-14.738c.243-.11.5-.183.762-.22 0 0 2.88-2.77 2.23-5.721-.133-.893-.202-1.794-.207-2.697.947-.886 2.25-2.194 2.621-3 .604-1.315 0-7.68 0-7.68v-24.345l4.818.491 4.372.453 1.331.137 4.372.444 10.047 1.023 9.054-1.728 3.917-.746 8.054-1.536v-19.859L147 98.86zM80.687 33.054l-.56-.06c.185.008.38.043.56.06z"/>
        <path fill="#EFB7B9" d="M126.76 112.669c-2.806 3.819-12.892 1.796-12.892 1.796l-7.816-6.958-1.052-.942 1.765-3.565s.56.147 1.523.408c5.053 1.396 20.84 6.05 18.472 9.26z"/>
        <path fill="#000" d="M109 103.362c-.315 1.014-1.18 2.532-2.038 3.638l-.962-.836 1.613-3.164s.518.13 1.387.362z" opacity=".1"/>
        <path fill="#DCE6F2" d="M82.61 62.115s-6.938 3.121-6.598 10.785c.245 4.938.775 9.857 1.589 14.732 0 0-1.419 11.533 4.487 14.506 5.905 2.973 11.37 5.418 11.37 5.418s9.24 1.008 10.387 1.424c1.149.417 4.736-5.951 4.074-6.943-.662-.992-9.142-3.072-10.222-4.727-1.08-1.655-3.58-2.677-3.58-2.677s-2.58-1.584-2.755-3.014c-.176-1.43.505-2.497.678-3.124.173-.628.61-6.686.61-6.686s2.913-21.565-10.04-19.694z"/>
        <path fill="#000" d="M88 87s-9.892 1.618-8.935 5c0 0 3.592-3.65 8.935-5zM87 88s-4.82 3.799-3.878 3.993C84.066 92.188 87 88 87 88zM89.933 89s-1.595 3.207-.614 2.99c.98-.218.614-2.99.614-2.99z" opacity=".1"/>
        <path fill="#000" d="M109.779 102.943l-.585-.169c.167-.555.214-1.005.077-1.213-.67-1.005-9.236-3.11-10.326-4.789-1.09-1.68-3.619-2.712-3.619-2.712s-2.608-1.605-2.785-3.054c-.178-1.449.51-2.529.685-3.164.175-.636.617-6.777.617-6.777s2.936-21.844-10.159-19.948c0 0-7.013 3.164-6.672 10.929.248 5.002.785 9.986 1.609 14.924 0 0-1.434 11.684 4.536 14.696 5.97 3.012 11.495 5.489 11.495 5.489s9.337 1.018 10.5 1.443c.44.161 1.235-.669 2.013-1.81l.443.42 7.608 7.234s9.818 2.107 12.55-1.866c2.307-3.342-13.058-8.184-17.987-9.633z" opacity=".1"/>
        <path fill="#965D7B" d="M78.656 32.55c-.27.052-.527.15-.762.29-.275.223-.275.606-.344.94-.08.466-.269.906-.55 1.29.313.022.627-.029.916-.149-.047.37-.14.731-.275 1.079.35.008.673-.185.825-.494.146-.304.261-.62.344-.946.026-.098.07-.19.132-.27.253-.294.724-.162 1.114-.124.662.055 1.303-.247 1.673-.787.415-.618.44-2.198-.55-2.365-1.035-.167-1.678 1.23-2.523 1.537z"/>
        <g fill="#000" opacity=".1">
            <path d="M.86.427C.885.305.9.177.93.055.679.263.666.615.6.927c-.033.18-.085.358-.155.528C.652 1.141.793.792.86.427zM.945 2.493c.13-.322.22-.658.263-1-.264.105-.549.152-.834.137-.083.176-.185.343-.303.5.298.022.598-.024.874-.135-.044.342-.132.678-.263 1 .334.007.643-.171.79-.458.065-.113.118-.233.157-.357-.157.208-.415.326-.684.313zM3.255.792C2.882.757 2.43.635 2.187.907c-.058.076-.1.16-.126.25-.024.065-.045.133-.064.2.25-.187.656-.087.995-.054.633.049 1.245-.23 1.6-.73.08-.122.14-.254.176-.393-.366.43-.933.66-1.513.613z" transform="translate(77 33)"/>
        </g>
        <path fill="#DCE6F2" d="M86.519 55L91 59.977 90.415 65 85 57.171z"/>
        <path fill="#000" d="M91 59.977L90.45 64.701 90.415 65 85.526 57.934 85 57.171 85.153 56.951 86.517 55 86.82 55.336z" opacity=".1"/>
        <path fill="#EFB7B9" d="M93.28 48.373c-1.412.405-2.76 1.795-3.934 3.483-.793 1.164-1.503 2.384-2.123 3.65-.385.77-.725 1.512-1.006 2.158l-.197.46c-.476 1.124-.742 1.876-.742 1.876s-10.804-8.125-9.095-8.672c.575-.184 1.33-1.415 2.077-2.966l.093-.197c.473-.996.938-2.107 1.35-3.152C80.55 42.866 81.176 41 81.176 41s16.412 6.142 12.104 7.373z"/>
        <path fill="#444053" d="M100 41s2.464 4.564 5.774 3.942c3.31-.623 1.948-2.451 1.948-2.451L100 41z"/>
        <path fill="#A36468" d="M95.334 197.555c-2.237 1-7.294 0-7.294 0l-2.131-.13c-2.768-.173-7.402-.466-9.04-.596-2.392-.192-1.805-1.152-1.805-1.152v-5.798L86.667 187s4.587 1.537 5.844 2.879c1.193 1.28 1.89.295 4.019.664.105.019.216.04.332.068 2.02.452 3.117.631 3.765 2.271.13.345.234.698.312 1.057.598 2.64-3.371 2.622-5.605 3.616z"/>
        <path fill="#000" d="M100 193.38c-.406.258-.832.481-1.275.666-1.485.692-2.897 1.536-4.398 2.19-1.502.653-3.12 1.119-4.745.995-.85-.064-1.72-.276-2.533-.028-.503.198-.976.467-1.407.797-2.7-.176-7.22-.474-8.82-.607-2.332-.195-1.76-1.171-1.76-1.171v-.69c.084 0 .178-.024.286-.033.56-.009 1.116.076 1.648.251 1.171.326 2.338.645 3.51.965.195-.75.683-1.386 1.35-1.759.67-.362 1.42-.538 2.177-.51 1.817.025 3.537.905 5.352.993.507.047 1.018-.04 1.482-.254.249-.127.467-.311.71-.452.39-.192.8-.334 1.224-.422 1.19-.302 2.358-.687 3.497-1.152.324-.13.702-.364.659-.717-.057-.469-.778-.524-.967-.954-.068-.157-.06-.338.022-.488.102.02.21.041.324.069 1.963.46 3.032.642 3.664 2.31z" opacity=".1"/>
        <path fill="#A36468" d="M92.459 210.475c-2.579 1.181-8.415 0-8.415 0l-2.456-.144c-3.182-.204-8.54-.545-10.432-.705-2.76-.229-2.082-1.361-2.082-1.361v-6.862L82.464 198s5.294 1.816 6.743 3.403c1.376 1.51 2.172.348 4.64.783.121.022.249.05.382.08 2.332.544 3.597.748 4.343 2.686.151.407.272.825.361 1.25.673 3.119-3.895 3.094-6.474 4.273z"/>
        <path fill="#000" d="M99 204.708c-.487.295-.998.55-1.529.763-1.782.79-3.478 1.754-5.28 2.502-1.8.747-3.743 1.277-5.695 1.138-1.02-.072-2.063-.322-3.03-.032-.606.23-1.176.54-1.694.921-3.228-.2-8.665-.536-10.585-.694-2.8-.225-2.112-1.339-2.112-1.339v-.787c.114-.018.229-.03.344-.038.671-.012 1.34.085 1.978.287l4.21 1.103c.238-.86.829-1.587 1.634-2.011.803-.416 1.705-.618 2.614-.584 2.181.03 4.244 1.034 6.423 1.136.607.053 1.218-.045 1.774-.287.3-.147.55-.359.854-.517.465-.222.959-.384 1.468-.482 1.42-.348 2.815-.789 4.175-1.318.388-.15.843-.417.79-.82-.068-.535-.933-.6-1.162-1.092-.078-.18-.068-.385.028-.557.124.021.253.048.388.078 2.366.514 3.65.723 4.407 2.63z" opacity=".1"/>
        <path fill="#444053" d="M86.923 163l-.727 17.533s-1.09 3.58-.499 4.604c.591 1.024 1.588 2.046 1.226 2.651-.362.606-4.719 7.152-6.127 4.64C79.39 189.919 78 179.035 78 179.035l1.299-13.442L86.923 163zM89.849 120l1.904 2.728v23.724s.556 6.324 0 7.63c-.557 1.306-3.38 3.918-3.38 3.918L86 144.94l.513-13.818L89.85 120z"/>
        <path fill="#000" d="M86.923 163l-.727 17.533s-1.09 3.58-.499 4.604c.591 1.024 1.588 2.046 1.226 2.651-.362.606-4.719 7.152-6.127 4.64C79.39 189.919 78 179.035 78 179.035l1.299-13.442L86.923 163zM89.849 120l1.904 2.728v23.724s.556 6.324 0 7.63c-.557 1.306-3.38 3.918-3.38 3.918L86 144.94l.513-13.818L89.85 120z" opacity=".1"/>
        <path fill="#444053" d="M92 109.578v12.792l-2.252 9.958s-.722 24.03-.092 26.952c.63 2.922-2.164 5.666-2.164 5.666s-1.622.183-1.622 1.46c0 1.278-2.704 4.934-2.704 4.934l.09 7.127s1.173 13.34-.63 15.898c-1.804 2.557.63 2.924.63 2.924-2.253 7.491-13.07 5.756-14.045 4.934-.977-.822 0-16.994 0-16.994s2.417-24.669 4.31-25.765c1.893-1.097.092-2.467.722-4.112.63-1.644-.63-6.12-.63-6.12s-.541-5.301-1.893-7.859c-1.352-2.557-1.174-9.593-1.174-9.593s-3.785-5.117-4.91-7.126c-1.125-2.01-1.85-7.217-1.58-11.148.185-2.656 1.56-6.523 2.434-8.749.42-1.066.722-1.757.722-1.757l.257.069 14.77 3.92 9.761 2.59z"/>
        <path fill="#000" d="M94.244 48.477c-1.48.41-2.895 1.816-4.126 3.523h-.322c-3.672.003-7.066-1.89-8.895-4.962-.376-.625-.678-1.289-.901-1.978.887-2.173 1.544-4.06 1.544-4.06s17.22 6.232 12.7 7.477z" opacity=".1"/>
        <path fill="#EFB7B9" d="M99 41.995c.007 4.19-2.605 7.938-6.54 9.387-3.935 1.45-8.358.293-11.076-2.897S78.23 40.748 80.292 37.1c.304-.541.658-1.052 1.058-1.526.66-.785 1.435-1.465 2.299-2.017 2.97-1.885 6.713-2.072 9.857-.493 3.144 1.58 5.225 4.693 5.48 8.198.006.246.014.49.014.732z"/>
        <path fill="#000" d="M91 64.7l-.034.3-4.673-7.079c-.489 1.12-.761 1.868-.761 1.868s-11.1-8.097-9.344-8.642c.59-.182 1.366-1.407 2.133-2.951l.096-.196c.815 2.352 5.55 7.054 7.52 8.938.227.218.415.398.561.529l.301.272.157.152c.717.716 3.74 3.875 4.044 6.81z" opacity=".1"/>
        <path fill="#DCE6F2" d="M94 89.083l-.494 16.058-.087 2.859s-5.858-.548-11.324-1.151c-4.402-.486-8.55-1.01-9.189-1.316-.815-.387-2.562-.686-3.94-.875-1.064-.145-1.9-.222-1.9-.222s-.313.093-.794.18c-1.049.193-2.89.35-3.964-.591-1.372-1.204 2.233-5.577 3.132-6.627l.199-.227-.34-3.167-.883-8.21s-.543-4.73-1.358-7.266c-.218-.721-.375-1.46-.47-2.207-.303-2.316-.148-4.67.456-6.925.258-.959.422-1.94.49-2.931.135-2.536 7.81-12.337 9.712-13.228.855-.403 1.544-1.096 1.945-1.958.133-.271.232-.557.296-.853.815-3.564 2.878-2.149 2.878-2.149.497 2.788 8.194 10.169 8.194 10.169l.152.153c.763.79 4.165 4.496 3.923 7.66-.048 1.178.126 2.354.513 3.466 1.566 4.974 2.466 10.137 2.676 15.353L94 89.083z"/>
        <path fill="#000" d="M82.935 70s-2.098 4.736-3.67 5.503c-1.574.766 4.419 1.616 3.67-5.503zM84 79s-4 .705-4 1.763C80 81.82 84 79 84 79zM89 84s-6.092 13.58-7.796 13.991C79.501 98.403 89 84 89 84zM87 59.689L81.563 62 75 52.307c.138-.274.241-.562.308-.86.848-3.594 2.995-2.168 2.995-2.168.517 2.812 8.527 10.255 8.527 10.255l.17.155z" opacity=".1"/>
        <path fill="#DCE6F2" d="M87 58.689L81.563 61 75 51.307c.138-.274.241-.562.308-.86.848-3.594 2.995-2.168 2.995-2.168.517 2.812 8.527 10.255 8.527 10.255l.17.155z"/>
        <path fill="#000" d="M93.912 108.033s-5.922-.547-11.45-1.15l9.917 2.588v3.012c-.434.391-.81.594-1.055.49-1.142-.48-10.468-1.985-10.468-1.985s-5.417-2.738-11.262-6.024c-.142-.078-.28-.164-.412-.257-.682-.462-1.27-1.048-1.731-1.728-1.08-1.558-1.607-3.56-1.835-5.523-.128-1.125-.176-2.258-.143-3.39.028-1.283.146-2.563.352-3.83-.566-4.908-.84-9.845-.824-14.785.068-7.667 7.279-10.405 7.279-10.405 13.254-1.164 9.145 20.193 9.145 20.193s-.767 6.024-.976 6.64c-.208.616-.958 1.643-.857 3.08.102 1.438 2.635 3.157 2.635 3.157s2.472 1.156 3.491 2.867c.742 1.262 5.56 2.973 8.282 4.195l-.088 2.855zM98 34.918c.005.444-.086.884-.265 1.29-.136.33-.293.651-.471.96-.279.568-.674 1.069-1.16 1.468-.612.445-1.385.569-2.118.75-.734.18-1.496.469-1.915 1.106-.226.409-.378.857-.447 1.322-.07.464-.252.903-.53 1.278-.297.377-.806.501-1.239.302-.221-.152-.39-.372-.479-.628-.302-.693-.379-1.462-.5-2.21-.122-.747-.294-1.516-.744-2.117-.45-.602-1.248-.999-1.954-.764-.479.188-.861.566-1.06 1.047-.195.477-.33.977-.4 1.49-.328 1.83-.715 3.65-1.162 5.46-.013.074-.043.144-.087.204-.07.072-.166.113-.265.114-.593.08-1.162-.343-1.76-.297-.062.004-.124.014-.183.03-1.982-3.51-1.6-7.907.955-11.007l.048-.014c.398-.144.76-.376 1.06-.68.381-.39.735-.807 1.058-1.249l.212-.27c.609-.747 1.302-1.418 2.065-1.999.209-.173.448-.305.705-.388.22-.044.445-.05.667-.022.914.112 1.836.147 2.756.106.641-.103 1.288-.17 1.936-.2 1.676.049 3.106 1.254 4.165 2.576.569.678 1.077 1.457 1.112 2.342z" opacity=".1"/>
        <path fill="#965D7B" d="M79.801 36.865c-.377.63-1.059 1.059-1.314 1.75-.374 1.003.258 2.253-.323 3.149-.193.301-.51.525-.619.87-.185.584.32 1.206.19 1.806-.13.6-.907 1.106-.7 1.692.122.255.336.453.597.553.411.24.885.347 1.358.307.74-.125 1.292-.866 2.044-.921.61-.044 1.195.387 1.803.307.102-.004.199-.046.271-.119.047-.062.077-.134.09-.21.456-1.852.854-3.718 1.195-5.596.069-.525.206-1.038.407-1.526.205-.492.597-.879 1.086-1.073.725-.237 1.54.166 2.004.783.464.616.64 1.404.765 2.17s.204 1.554.51 2.264c.094.264.267.49.495.647.407.24.956.05 1.268-.31.286-.384.473-.835.543-1.313.07-.475.226-.933.459-1.352.429-.652 1.213-.948 1.963-1.133.75-.185 1.54-.315 2.172-.771.497-.408.903-.92 1.19-1.502.4-.713.776-1.487.743-2.308-.035-.896-.557-1.695-1.113-2.392-1.086-1.354-2.555-2.59-4.274-2.637-.665.028-1.327.097-1.984.205-.944.043-1.89.006-2.827-.111-.228-.028-.459-.02-.684.025-.264.082-.509.217-.72.398-.783.594-1.495 1.281-2.12 2.046-.403.544-.84 1.061-1.309 1.548-.307.312-.678.55-1.086.7-.271.077-.543.022-.8.107-.802.257-.908 1.322-1.28 1.947z"/>
        <path fill="#000" d="M105.775 44.941c-2.162.407-3.953-1.384-4.945-2.69-.305-.397-.582-.815-.83-1.251l7.421 1.434.3.058s1.365 1.83-1.946 2.45z" opacity=".1"/>
        <g fill="#000" opacity=".1">
            <path d="M.972 9.366c.031-.37-.024-.742-.162-1.086 0 .029-.025.057-.033.085-.12.379.042.772.145 1.165.022-.053.039-.108.05-.164zM1.635 4.74c-.029.39-.022.783.022 1.172.029-.39.021-.783-.022-1.173zM20.975 2.097c-.293.595-.709 1.12-1.22 1.537-.643.467-1.453.597-2.227.786-.775.19-1.574.492-2.014 1.159-.238.429-.397.898-.47 1.384-.073.488-.264.95-.557 1.343-.32.367-.883.565-1.3.316-.235-.16-.412-.392-.508-.66-.314-.727-.398-1.53-.523-2.315-.126-.786-.312-1.589-.786-2.219-.473-.63-1.311-1.046-2.055-.8-.502.198-.904.593-1.114 1.097-.206.499-.346 1.023-.417 1.56-.348 1.92-.756 3.826-1.226 5.72-.013.078-.044.152-.092.215-.074.074-.174.117-.278.121-.624.082-1.223-.359-1.85-.314-.77.057-1.336.814-2.096.939-.485.044-.972-.066-1.393-.314-.193-.085-.367-.21-.51-.367-.131.191-.17.434-.102.658.122.263.343.466.612.565.421.248.908.358 1.393.314.76-.124 1.325-.882 2.097-.938.626-.046 1.225.395 1.849.313.104-.003.204-.047.278-.121.048-.063.08-.137.092-.215.468-1.884.877-3.79 1.226-5.72.07-.536.211-1.06.417-1.56.21-.503.612-.9 1.114-1.096.744-.246 1.58.17 2.055.8.477.63.658 1.435.786 2.218.128.783.209 1.588.523 2.314.096.27.273.501.507.662.418.246.98.05 1.3-.317.294-.393.485-.855.558-1.342.073-.487.232-.956.47-1.385.44-.667 1.245-.967 2.014-1.159.768-.192 1.579-.319 2.227-.785.511-.418.927-.942 1.22-1.538.412-.726.797-1.517.763-2.357-.005-.108-.016-.215-.033-.322-.135.647-.382 1.264-.73 1.823z" transform="translate(76 35)"/>
        </g>
        <path fill="#000" d="M97.801 36.97c.691 1.238 1.1 2.614 1.199 4.03-2.4-1.357-4.658-2.846-5.798-3.365-1.986-.903-9.41-.767-12.202-.683.292-.526.633-1.022 1.018-1.482.638-.763 1.388-1.423 2.223-1.959 2.236-1.43 4.957-1.869 7.525-1.215 2.568.653 4.755 2.342 6.049 4.67l-.014.005zM106.66 43.886c-1.342.427-3.532-.398-5.803-1.582-.315-.413-.601-.85-.857-1.304l7.661 1.495c.508.358.636.869-1.001 1.39z" opacity=".1"/>
        <path fill="#444053" d="M90.125 27.013s-7.14-.415-9.148 3.52l-.324 3.488-.544-.06L80 36.331s10.914-.483 13.398.655 10.201 6.87 13.294 5.904c3.094-.967-.272-1.864-.272-1.864s-4.257-1.831-4.257-3.267-1.056-9.022-12.038-10.747z"/>
        <path fill="#000" d="M76 156s4.885 4.314 7 3.982c0 0-5.98-.465-7-3.982zM75 158s.463 2.201 1.697 1.985C77.93 159.77 75 158 75 158zM82 196s-7.054 4.866-5.865 4.998C77.325 201.129 82 196 82 196z" opacity=".1"/>
        <path fill="#D59D15" d="M91 95.438L112 92 112 112 92.047 110.949z"/>
        <path fill="#000" d="M91 95.438L112 92 112 112 92.047 110.949z" opacity=".05"/>
        <path fill="#D59D15" d="M112 92L137 93.896 135.617 111.3 112 112z"/>
        <path fill="#000" d="M112 92L137 93.896 135.617 111.3 112 112z" opacity=".1"/>
        <path fill="#D59D15" d="M118.928 86L111 92.104 136.786 94 141 87.753z"/>
        <path fill="#D59D15" d="M83 89.32L102.167 87 112 92.556 90.709 96zM117 97.75L117 125 107.01 123.988 102.665 123.551 101.341 123.414 96.999 122.974 91 122.367 91 96 112.322 97.433zM138 94L138 120.978 129.955 122.519 126.042 123.268 117 125 117 97.336z"/>
        <path fill="#000" d="M138 94L138 120.978 129.955 122.519 126.042 123.268 117 125 117 97.336z" opacity=".05"/>
        <path fill="#D59D15" d="M83 100.655L90.785 95 117 96.725 113.141 103z"/>
        <path fill="#FFF" d="M83 100.655L90.785 95 117 96.725 113.141 103z" opacity=".1"/>
        <path fill="#D59D15" d="M137.764 94L117 97.533 123.758 104 146 100.014z"/>
        <path fill="#FFF" d="M137.764 94L117 97.533 123.758 104 146 100.014zM130 122.215L126 123 126 116.965 129.747 116zM106 120L106 124 102 123.534 102 120zM101 121L101 123 97 122.56 97 121z" opacity=".1"/>
        <path fill="#000" d="M113.73 117.96c-2.925 3.767-12.58 1.164-12.58 1.164l-7.176-7.54-.974-1.022L94.904 107s.544.18 1.453.499c4.809 1.693 19.834 7.29 17.373 10.46z" opacity=".1"/>
        <path fill="#EFB7B9" d="M113.73 116.96c-2.925 3.767-12.58 1.164-12.58 1.164l-7.176-7.54-.974-1.022L94.904 106s.544.18 1.453.499c4.809 1.693 19.834 7.29 17.373 10.46z"/>
        <path fill="#000" d="M96 107.435c-.355 1.004-1.257 2.491-2.13 3.565l-.87-.892L94.702 107s.488.158 1.298.435z" opacity=".1"/>
        <path fill="#DCE6F2" d="M72.302 64.047S65.07 66.786 65 74.454c-.017 4.941.26 9.88.826 14.789 0 0-2.066 11.434 3.788 14.72 5.855 3.286 11.296 6.025 11.296 6.025s9.354 1.506 10.503 1.985c1.149.48 5.14-5.682 4.521-6.71-.62-1.026-9.136-3.56-10.147-5.271-1.011-1.712-3.502-2.865-3.502-2.865s-2.54-1.722-2.642-3.16c-.102-1.438.648-2.465.86-3.081.212-.616.98-6.641.98-6.641s4.111-21.376-9.182-20.198z"/>
        <path fill="#000" d="M75 90s-9.71.97-8.958 4c0 0 3.69-3.057 8.958-4zM75 91s-4.768 3.736-3.893 3.99C71.983 95.241 75 91 75 91zM77.98 92s-1.612 3.159-.701 2.994c.91-.165.7-2.994.7-2.994z" opacity=".1"/>
        <path fill="#D59D15" d="M178.802 31.013s-9.86-.586-8.708 6.234c0 0-.231 1.205.877 1.753 0 0 .018-.512 1.012-.335.354.059.713.076 1.072.051.485-.032.946-.22 1.313-.535 0 0 2.774-1.128 3.853-5.6 0 0 .8-.977.779-1.228l-1.666.703s.568 1.185.119 2.17c0 0-.052-2.126-.374-2.077-.065 0-.864.411-.864.411s.978 2.063.239 3.564c0 0 .28-2.543-.545-3.415l-1.173.675s1.144 2.131.369 3.871c0 0 .2-2.668-.615-3.707l-1.064.816s1.077 2.103.42 3.546c0 0-.086-3.106-.651-3.341 0 0-.93.808-1.07 1.14 0 0 .735 1.536.278 2.332 0 0-.28-2.07-.519-2.08 0 0-.926 1.37-1.022 2.302.045-.868.32-1.71.796-2.44-.534.099-1.026.35-1.416.723 0 0 .142-.97 1.645-1.054 0 0 .778-1.04.97-1.105 0 0-1.494-.123-2.4.274 0 0 .797-.913 2.675-.512l1.038-.844s-1.967-.256-2.802.028c0 0 .96-.808 3.085-.22l1.142-.673s-1.676-.358-2.675-.228c0 0 1.053-.56 3.01.047l.817-.361s-1.23-.238-1.588-.277c-.358-.038-.379-.135-.379-.135.778-.128 1.577-.04 2.307.256 0 0 1.752-.622 1.715-.73z"/>
        <path fill="#D59D15" d="M210.825 68.013s-9.886-.586-8.731 6.234c0 0-.232 1.205.88 1.753 0 0 .017-.512 1.016-.335.355.059.716.076 1.075.051.48-.034.937-.221 1.3-.532 0 0 2.784-1.131 3.867-5.603 0 0 .798-.975.767-1.226l-1.67.701s.57 1.185.122 2.17c0 0-.054-2.126-.374-2.077-.066 0-.87.411-.87.411s.984 2.065.243 3.564c0 0 .28-2.543-.55-3.415l-1.162.668s1.147 2.13.37 3.87c0 0 .2-2.668-.617-3.707l-1.064.819s1.077 2.1.421 3.543c0 0-.086-3.105-.653-3.34 0 0-.931.808-1.074 1.14 0 0 .738 1.535.28 2.33 0 0-.28-2.069-.52-2.08 0 0-.929 1.372-1.025 2.303.047-.868.323-1.71.801-2.44-.536.1-1.03.351-1.423.724 0 0 .146-.97 1.652-1.054 0 0 .768-1.042.973-1.106 0 0-1.498-.122-2.406.274 0 0 .799-.913 2.68-.499l1.04-.844s-1.974-.256-2.81.028c0 0 .963-.808 3.094-.22l1.144-.673s-1.683-.355-2.684-.227c0 0 1.058-.56 3.02.046l.82-.361s-1.234-.238-1.595-.276c-.362-.039-.38-.136-.38-.136.78-.128 1.583-.04 2.315.256 0 0 1.759-.627 1.728-.734zM147.653 60.873s2.245-10.73-4.691-10.767c0 0-1.152-.486-1.878.625 0 0 .495.118.159 1.177-.116.374-.194.763-.231 1.157-.05.538.057 1.08.305 1.542 0 0 .65 3.269 4.874 5.317 0 0 .831 1.064 1.083 1.076l-.41-1.964s-1.268.396-2.166-.29c0 0 2.111.35 2.114 0 0-.072-.256-1.03-.256-1.03s-2.204.678-3.564-.425c0 0 2.466.799 3.469.061l-.462-1.423s-2.309.848-3.89-.341c0 0 2.605.734 3.77.04l-.63-1.325s-2.257.776-3.573-.223c0 0 3.079.504 3.412-.069 0 0-.641-1.177-.946-1.397 0 0-1.632.515-2.35-.142 0 0 2.09.09 2.14-.159 0 0-1.199-1.281-2.112-1.57.851.218 1.637.682 2.28 1.347-.009-.606-.175-1.196-.477-1.698 0 0 .934.347.77 2.025 0 0 .898 1.042.926 1.279 0 0 .372-1.617.133-2.69 0 0 .77 1.052.044 3.034l.657 1.316s.595-2.112.444-3.083c0 0 .638 1.209-.303 3.43l.474 1.386s.634-1.776.675-2.893c0 0 .377 1.267-.554 3.3l.22.967s.442-1.305.54-1.692c.097-.388.197-.39.197-.39-.004.88-.225 1.74-.639 2.487 0 0 .336 2.02.446 2.005zM125 63.833s-8.471-6.733-11.5.56c0 0-.924 1.018-.26 2.235 0 0 .316-.474 1.11.313.281.278.592.52.927.72.453.268.977.371 1.49.295 0 0 3.154.645 6.784-2.985 0 0 1.296-.442 1.418-.702l-1.912-.357s-.2 1.496-1.185 2.165c0 0 1.218-2.082.902-2.232-.064-.033-1.019-.148-1.019-.148s-.355 2.601-1.91 3.583c0 0 1.769-2.273 1.55-3.63l-1.452-.083s-.247 2.77-1.98 3.96c0 0 1.769-2.444 1.666-3.954l-1.438.124s-.291 2.693-1.737 3.672c0 0 1.773-3.044 1.41-3.622 0 0-1.313.198-1.638.428 0 0-.252 1.929-1.14 2.418 0 0 .985-2.167.785-2.318 0 0-1.646.74-2.293 1.584.56-.808 1.308-1.446 2.17-1.852-.536-.237-1.126-.303-1.698-.189 0 0 .705-.843 2.099.015 0 0 1.304-.522 1.526-.457 0 0-1.263-1.053-2.31-1.236 0 0 1.26-.383 2.69 1.18l1.44-.157s-1.6-1.474-2.52-1.722c0 0 1.341-.18 2.887 1.714l1.421.067s-1.285-1.391-2.253-1.893c0 0 1.274.118 2.661 1.926l.947.162s-.958-.997-1.257-1.256c-.3-.26-.259-.369-.259-.369.773.363 1.435.947 1.913 1.687 0 0 1.929.475 1.965.354zM153 5.835s-8.471-6.737-11.5.56c0 0-.924 1.018-.26 2.236 0 0 .316-.475 1.11.313.283.276.595.517.93.717.453.268.976.372 1.49.295 0 0 3.153.646 6.784-2.988 0 0 1.296-.44 1.415-.702l-1.912-.351s-.197 1.495-1.185 2.165c0 0 1.221-2.083.905-2.233-.064-.033-1.019-.148-1.019-.148s-.366 2.608-1.92 3.584c0 0 1.765-2.274 1.548-3.631l-1.452-.083s-.25 2.77-1.979 3.959c0 0 1.769-2.445 1.666-3.956l-1.435.124s-.294 2.696-1.74 3.676c0 0 1.776-3.045 1.412-3.623 0 0-1.313.198-1.637.428 0 0-.253 1.93-1.141 2.419 0 0 .985-2.168.785-2.322 0 0-1.646.744-2.292 1.587.558-.808 1.307-1.447 2.17-1.852-.537-.239-1.129-.305-1.701-.189 0 0 .708-.843 2.101.015 0 0 1.305-.525 1.527-.457 0 0-1.263-1.053-2.31-1.24 0 0 1.258-.38 2.687 1.18l1.44-.156s-1.598-1.475-2.52-1.725c0 0 1.341-.177 2.89 1.716l1.42.065s-1.284-1.392-2.256-1.89c0 0 1.277.118 2.665 1.926l.944.162s-.96-.985-1.26-1.239c-.3-.254-.259-.366-.259-.366.773.363 1.435.948 1.913 1.688 0 0 1.929.448 1.976.336zM185 13.666s-3.332-9.543-9.615-5.793c0 0-1.284.264-1.385 1.51 0 0 .505-.18.73.824.082.357.208.704.373 1.033.226.443.594.804 1.049 1.028 0 0 2.217 2.18 7.067 1.459 0 0 1.281.375 1.516.246l-1.365-1.298s-.945.997-2.098.957c0 0 2.084-.878 1.912-1.16-.036-.056-.748-.656-.748-.656s-1.655 1.726-3.43 1.612c0 0 2.624-.724 3.16-1.85l-1.131-.843s-1.655 1.908-3.684 1.85c0 0 2.73-.848 3.422-2.021l-1.23-.685s-1.638 1.832-3.336 1.773c0 0 3.036-1.287 3.044-1.91 0 0-1.166-.563-1.55-.569 0 0-1.219 1.288-2.185 1.171 0 0 1.933-1.07 1.851-1.29 0 0-1.72-.34-2.69-.066.877-.295 1.819-.363 2.731-.198-.311-.465-.757-.833-1.28-1.057 0 0 1.015-.24 1.695 1.144 0 0 1.333.32 1.475.487 0 0-.47-1.456-1.22-2.16 0 0 1.22.4 1.553 2.332l1.25.66s-.515-1.958-1.138-2.643c0 0 1.183.592 1.44 2.826l1.119.816s-.311-1.723-.836-2.616c0 0 .972.777 1.147 2.862l.68.629s-.251-1.253-.355-1.607c-.104-.354-.019-.378-.019-.378.434.686.664 1.474.664 2.278 0 0 1.321 1.372 1.417 1.303zM162.806 15.064s-10.633-1.128-9.754 6.064c0 0-.317 1.246.841 1.872 0 0 .048-.535 1.122-.294.38.078.768.114 1.156.11.525-.01 1.032-.181 1.445-.49 0 0 3.06-1.035 4.489-5.649 0 0 .914-.976.895-1.24l-1.838.646s.561 1.266 0 2.271c0 0 .059-2.222-.28-2.188-.07 0-.957.385-.957.385s.943 2.207.062 3.745c0 0 .443-2.643-.402-3.595l-1.304.642s1.122 2.287.182 4.063c0 0 .365-2.776-.457-3.902l-1.192.802s1.043 2.25.255 3.723c0 0 .081-3.247-.516-3.522 0 0-1.05.802-1.22 1.134 0 0 .71 1.631.173 2.447 0 0-.188-2.175-.435-2.196 0 0-1.077 1.383-1.234 2.36.097-.906.442-1.771.999-2.51-.582.077-1.128.314-1.571.682 0 0 .207-1.003 1.835-1.013 0 0 .883-1.046 1.122-1.102 0 0-1.608-.206-2.61.16 0 0 .912-.915 2.916-.382l1.18-.827s-2.134-.412-3.038-.144c0 0 1.083-.803 3.344-.067l1.271-.645s-1.792-.46-2.878-.377c0 0 1.17-.535 3.249.206l.903-.334s-1.316-.313-1.703-.372-.401-.16-.401-.16c.848-.093 1.706.04 2.48.385 0 0 1.89-.575 1.871-.688zM253.833 95.065s-9.578-1.13-8.787 6.06c0 0-.285 1.249.759 1.875 0 0 .043-.535 1.011-.297.342.08.692.117 1.042.11.473-.008.93-.18 1.302-.49 0 0 2.759-1.036 4.033-5.652 0 0 .824-.98.807-1.242l-1.656.645s.505 1.269 0 2.276c0 0 .053-2.228-.253-2.19-.063 0-.862.382-.862.382s.85 2.21.055 3.749c0 0 .4-2.643-.361-3.599l-1.176.646s1.011 2.289.167 4.066c0 0 .326-2.779-.415-3.908l-1.075.803s.941 2.251.23 3.724c0 0 .074-3.25-.465-3.523 0 0-.943.803-1.1 1.135 0 0 .643 1.633.157 2.45 0 0-.17-2.177-.392-2.199 0 0-.97 1.384-1.112 2.362.088-.906.398-1.772.9-2.512-.525.076-1.018.313-1.416.683 0 0 .187-1.007 1.654-1.017 0 0 .799-1.047 1.011-1.1 0 0-1.449-.21-2.351.157 0 0 .821-.913 2.63-.38l1.061-.827s-1.901-.38-2.728-.118c0 0 .976-.803 3.014-.07l1.145-.642s-1.616-.46-2.594-.378c0 0 1.054-.535 2.928.207l.814-.338s-1.186-.313-1.535-.37c-.349-.055-.361-.16-.361-.16.764-.094 1.538.038 2.235.383 0 0 1.71-.586 1.684-.701zM268.843 105.064s-9.589-1.127-8.796 6.062c0 0-.284 1.247.759 1.874 0 0 .043-.535 1.012-.295.342.08.691.115 1.04.108.472-.01.927-.182 1.3-.488 0 0 2.758-1.036 4.034-5.654 0 0 .828-.978.808-1.243l-1.658.646s.506 1.269 0 2.275c0 0 .053-2.225-.253-2.19-.064 0-.864.383-.864.383s.85 2.209.056 3.748c0 0 .4-2.642-.362-3.595l-1.177.642s1.013 2.29.167 4.067c0 0 .327-2.779-.415-3.906l-1.076.803s.942 2.252.233 3.727c0 0 .07-3.253-.468-3.526 0 0-.944.803-1.101 1.135 0 0 .643 1.633.157 2.45 0 0-.17-2.177-.393-2.198 0 0-.972 1.384-1.111 2.361.088-.905.397-1.771.899-2.511-.526.077-1.018.314-1.418.683 0 0 .19-1.007 1.658-1.015 0 0 .797-1.047 1.013-1.103 0 0-1.45-.206-2.354.16 0 0 .822-.915 2.632-.382l1.063-.828s-1.903-.38-2.731-.117c0 0 .977-.804 3.017-.067l1.147-.646s-1.618-.46-2.597-.377c0 0 1.055-.536 2.931.206l.815-.335s-1.187-.313-1.534-.372-.364-.16-.364-.16c.765-.093 1.54.04 2.237.385 0 0 1.719-.592 1.694-.707zM235 23.833s-8.471-6.733-11.5.56c0 0-.924 1.018-.26 2.235 0 0 .316-.474 1.11.313.281.278.592.52.927.72.453.268.977.371 1.49.295 0 0 3.154.645 6.787-2.985 0 0 1.293-.442 1.415-.702l-1.906-.365s-.2 1.495-1.186 2.164c0 0 1.219-2.082.902-2.232-.063-.033-1.015-.148-1.015-.148s-.358 2.601-1.913 3.583c0 0 1.768-2.273 1.549-3.63l-1.452-.082s-.247 2.769-1.979 3.96c0 0 1.771-2.445 1.666-3.954l-1.438.123s-.278 2.693-1.738 3.672c0 0 1.777-3.044 1.41-3.622 0 0-1.312.198-1.637.428 0 0-.25 1.929-1.138 2.418 0 0 .982-2.167.783-2.318 0 0-1.646.74-2.293 1.584.56-.808 1.307-1.446 2.17-1.852-.537-.237-1.127-.303-1.698-.189 0 0 .707-.843 2.1.015 0 0 1.303-.522 1.525-.457 0 0-1.263-1.053-2.31-1.236 0 0 1.26-.383 2.69 1.18l1.44-.156s-1.598-1.475-2.52-1.723c0 0 1.34-.18 2.887 1.714l1.424.068s-1.288-1.392-2.257-1.894c0 0 1.277.118 2.662 1.926l.946.162s-.957-.997-1.257-1.256c-.3-.26-.255-.345-.255-.345.77.364 1.432.948 1.91 1.687 0 0 1.923.46 1.959.339zM241 68.639s-2.929-10.627-9.516-6.812c0 0-1.32.211-1.484 1.587 0 0 .523-.172.704.94.067.399.18.788.334 1.16.207.5.565.916 1.02 1.184 0 0 2.154 2.495 7.127 1.938 0 0 1.286.47 1.531.342l-1.317-1.491s-1.01 1.05-2.18.951c0 0 2.16-.87 1.994-1.18-.034-.064-.73-.758-.73-.758s-1.765 1.817-3.57 1.605c0 0 2.71-.667 3.306-1.869l-1.114-.98s-1.776 2.013-3.84 1.857c0 0 2.807-.804 3.581-2.054l-1.22-.81s-1.767 1.93-3.482 1.784c0 0 3.154-1.267 3.193-1.95 0 0-1.164-.672-1.556-.695 0 0-1.3 1.351-2.289 1.177 0 0 2.022-1.082 1.95-1.325 0 0-1.738-.456-2.738-.204.906-.28 1.865-.308 2.784-.084-.294-.525-.73-.948-1.252-1.218 0 0 1.046-.218 1.67 1.334 0 0 1.34.412 1.478.604 0 0-.409-1.622-1.141-2.426 0 0 1.225.494 1.473 2.629l1.241.786s-.434-2.176-1.035-2.942c0 0 1.175.705 1.333 3.165l1.114.95s-.237-1.904-.727-2.902c0 0 .955.9 1.033 3.191l.663.726s-.195-1.387-.279-1.782c-.083-.394 0-.45 0-.45.412.772.61 1.648.571 2.53 0 0 1.27 1.561 1.37 1.492zM177 91.534s-5.692-9.342-10.978-3.75c0 0-1.209.58-.997 1.959 0 0 .46-.32.933.697.17.36.382.697.63 1.004.332.42.787.713 1.296.836 0 0 2.744 1.765 7.369-.232 0 0 1.363.075 1.563-.12l-1.672-1.044s-.688 1.306-1.839 1.553c0 0 1.845-1.452 1.597-1.719-.047-.052-.906-.51-.906-.51s-1.206 2.258-2.995 2.586c0 0 2.422-1.437 2.672-2.767l-1.334-.612s-1.162 2.453-3.185 2.903c0 0 2.48-1.594 2.884-3.022l-1.393-.418s-1.176 2.372-2.862 2.734c0 0 2.686-2.142 2.538-2.81 0 0-1.298-.304-1.671-.212 0 0-.883 1.681-1.88 1.803 0 0 1.648-1.631 1.512-1.846 0 0-1.792.072-2.683.61.795-.537 1.712-.848 2.658-.9-.424-.418-.955-.698-1.53-.805 0 0 .945-.513 1.95.793 0 0 1.394 0 1.586.145 0 0-.836-1.451-1.753-1.994 0 0 1.31.116 2.124 2.093l1.407.389s-1.006-1.96-1.79-2.52c0 0 1.319.331 2.135 2.65l1.315.581s-.741-1.756-1.485-2.578c0 0 1.16.58 1.853 2.76l.836.503s-.557-1.274-.755-1.626c-.198-.35-.12-.432-.12-.432.603.62 1.028 1.403 1.229 2.261 0 0 1.666 1.156 1.741 1.057z" opacity=".1"/>
        <path fill="#D59D15" d="M213 46.737s-5.443-9.466-10.924-4.08c0 0-1.233.55-1.06 1.918 0 0 .469-.306.917.718.16.365.362.708.602 1.022.322.426.77.73 1.277.866 0 0 2.703 1.842 7.412 0 0 0 1.367.119 1.574-.069l-1.644-1.091s-.728 1.273-1.894 1.484c0 0 1.897-1.395 1.659-1.657-.05-.055-.897-.54-.897-.54s-1.28 2.208-3.08 2.477c0 0 2.475-1.351 2.764-2.662l-1.322-.64s-1.241 2.404-3.289 2.788c0 0 2.54-1.504 2.989-2.91l-1.384-.462s-1.255 2.31-2.958 2.627c0 0 2.762-2.044 2.633-2.71 0 0-1.294-.347-1.68-.266 0 0-.939 1.642-1.944 1.732 0 0 1.706-1.565 1.577-1.784 0 0-1.804.014-2.715.52.816-.508 1.746-.786 2.698-.809-.414-.429-.94-.724-1.516-.849 0 0 .967-.482 1.961.85 0 0 1.4.048 1.589.195 0 0-.793-1.443-1.7-2.038 0 0 1.31.156 2.07 2.148l1.4.433s-.95-1.98-1.723-2.563c0 0 1.317.372 2.067 2.702l1.303.626s-.692-1.77-1.4-2.598c0 0 1.145.615 1.78 2.803l.822.526s-.527-1.285-.712-1.64c-.185-.355-.106-.433-.106-.433.587.636.991 1.427 1.168 2.286 0 0 1.605 1.175 1.686 1.08zM179.999 65.769s.279-11.194-7.116-9.617c0 0-1.324-.214-1.883 1.061 0 0 .559 0 .402 1.131-.05.404-.057.812-.016 1.217.05.549.27 1.065.628 1.469 0 0 1.333 3.097 6.253 4.148 0 0 1.092.867 1.366.82l-.838-1.857s-1.272.688-2.364.22c0 0 2.319-.143 2.255-.502 0-.073-.481-.966-.481-.966s-2.218 1.19-3.88.408c0 0 2.793.22 3.707-.746l-.78-1.302s-2.285 1.375-4.213.564c0 0 2.92.124 4.026-.837l-.93-1.175s-2.255 1.298-3.853.61c0 0 3.386-.214 3.632-.863 0 0-.916-1.02-1.285-1.175 0 0-1.637.881-2.531.405 0 0 2.235-.394 2.249-.655 0 0-1.528-.996-2.56-1.07.951.018 1.881.298 2.697.811-.127-.6-.419-1.149-.838-1.578 0 0 1.064.127 1.21 1.822 0 0 1.164.829 1.24 1.058 0 0 .08-1.695-.386-2.706 0 0 1.028.867.643 3.006l.958 1.157s.218-2.239-.131-3.17c0 0 .916 1.055.352 3.482l.774 1.266s.33-1.913.153-3.038c0 0 .648 1.175.056 3.411l.425.911s.215-1.402.243-1.81c.028-.408.134-.435.134-.435.168.877.101 1.785-.193 2.624 0 0 .752 1.94.875 1.901z"/>
        <ellipse cx="191.5" cy="197" fill="#D59D15" opacity=".1" rx="7.5" ry="1"/>
        <ellipse cx="164.5" cy="216" fill="#D59D15" opacity=".1" rx="7.5" ry="1"/>
        <ellipse cx="25.5" cy="206" fill="#D59D15" opacity=".1" rx="7.5" ry="1"/>
        <ellipse cx="220.5" cy="214" fill="#D59D15" opacity=".1" rx="7.5" ry="1"/>
        <ellipse cx="229" cy="199" fill="#D59D15" rx="11" ry="2"/>
        <path fill="#D59D15" d="M232.942 196.24c.49-.422.848-.993 1.024-1.635.133-.651-.129-1.43-.714-1.667-.657-.266-1.36.215-1.895.702-.535.487-1.141 1.044-1.839.942.728-.7 1.057-1.754.866-2.776-.03-.208-.113-.403-.24-.565-.367-.414-1.027-.235-1.465.09-1.39 1.036-1.778 3.033-1.786 4.833-.139-.648-.021-1.324-.024-1.98-.003-.657-.176-1.416-.708-1.76-.327-.193-.696-.291-1.07-.284-.625-.022-1.322.043-1.747.527-.535.6-.393 1.61.066 2.263.46.654 1.163 1.075 1.81 1.534.518.327.96.773 1.294 1.304.038.074.069.152.093.232h3.919c.877-.468 1.69-1.06 2.416-1.76z"/>
        <path fill="#A8A8A8" d="M20 200.287s4.296-.13 5.598-1.039c1.301-.91 6.613-1.993 6.935-.534.322 1.458 6.46 7.246 1.606 7.285-4.853.038-11.276-.745-12.569-1.522-1.293-.777-1.57-4.19-1.57-4.19z"/>
        <path fill="#000" d="M34.227 205.472c-4.855.04-11.281-.782-12.575-1.598-.986-.62-1.378-2.846-1.51-3.874H20s.28 3.587 1.565 4.4c1.285.814 7.72 1.64 12.575 1.599 1.4 0 1.884-.527 1.86-1.292-.197.466-.732.756-1.773.765z" opacity=".2"/>
    </g>
</svg>
