<svg xmlns="http://www.w3.org/2000/svg" width="257" height="214" viewBox="0 0 257 214">
    <defs>
        <linearGradient id="a" x1="50.002%" x2="50.002%" y1="100%" y2=".005%">
            <stop offset="0%" stop-color="gray" stop-opacity=".25"/>
            <stop offset="54%" stop-color="gray" stop-opacity=".12"/>
            <stop offset="100%" stop-color="gray" stop-opacity=".1"/>
        </linearGradient>
        <linearGradient id="b" x1="49.978%" x2="49.978%" y1="0%" y2="100.016%">
            <stop offset="0%" stop-color="#E0E0E0"/>
            <stop offset="31%" stop-color="#FCCC63"/>
            <stop offset="77%" stop-color="#F55F44"/>
        </linearGradient>
        <linearGradient id="c" x1="50.022%" x2="50.022%" y1="0%" y2="100.016%">
            <stop offset="0%" stop-color="#E0E0E0"/>
            <stop offset="31%" stop-color="#FCCC63"/>
            <stop offset="77%" stop-color="#F55F44"/>
        </linearGradient>
        <linearGradient id="d" x1="50.002%" x2="50.002%" y1="100.027%" y2=".009%">
            <stop offset="0%" stop-color="gray" stop-opacity=".25"/>
            <stop offset="54%" stop-color="gray" stop-opacity=".12"/>
            <stop offset="100%" stop-color="gray" stop-opacity=".1"/>
        </linearGradient>
        <linearGradient id="e" x1="50%" x2="50%" y1="0%" y2="100%">
            <stop offset="0%" stop-color="#F2F2F2"/>
            <stop offset="31%" stop-color="#E6E6E6"/>
            <stop offset="77%" stop-color="#CCC"/>
        </linearGradient>
        <linearGradient id="f" x1="50.026%" x2="50.026%" y1=".067%" y2="100%">
            <stop offset="0%" stop-color="#F2F2F2"/>
            <stop offset="31%" stop-color="#E6E6E6"/>
            <stop offset="77%" stop-color="#CCC"/>
        </linearGradient>
        <linearGradient id="g" x1="50.002%" x2="50.002%" y1="-.053%" y2="100.011%">
            <stop offset="0%" stop-color="#F2F2F2"/>
            <stop offset="31%" stop-color="#E6E6E6"/>
            <stop offset="77%" stop-color="#CCC"/>
        </linearGradient>
        <linearGradient id="h" x1="49.997%" x2="49.997%" y1="-.025%" y2="100%">
            <stop offset="0%" stop-color="#F2F2F2"/>
            <stop offset="31%" stop-color="#E6E6E6"/>
            <stop offset="77%" stop-color="#CCC"/>
        </linearGradient>
        <linearGradient id="i" x1="49.989%" x2="49.989%" y1="-.011%" y2="100.011%">
            <stop offset="0%" stop-color="#F2F2F2"/>
            <stop offset="31%" stop-color="#E6E6E6"/>
            <stop offset="77%" stop-color="#CCC"/>
        </linearGradient>
        <linearGradient id="j" x1="49.992%" x2="49.992%" y1=".039%" y2="100%">
            <stop offset="0%" stop-color="#F2F2F2"/>
            <stop offset="31%" stop-color="#E6E6E6"/>
            <stop offset="77%" stop-color="#CCC"/>
        </linearGradient>
        <linearGradient id="k" x1="50%" x2="50%" y1="100%" y2="0%">
            <stop offset="0%" stop-color="gray" stop-opacity=".25"/>
            <stop offset="54%" stop-color="gray" stop-opacity=".12"/>
            <stop offset="100%" stop-color="gray" stop-opacity=".1"/>
        </linearGradient>
        <linearGradient id="l" x1="50%" x2="50%" y1="100%" y2=".034%">
            <stop offset="0%" stop-color="gray" stop-opacity=".25"/>
            <stop offset="54%" stop-color="gray" stop-opacity=".12"/>
            <stop offset="100%" stop-color="gray" stop-opacity=".1"/>
        </linearGradient>
        <linearGradient id="m" x1="50%" x2="50%" y1="0%" y2="100%">
            <stop offset="0%" stop-color="#F2F2F2"/>
            <stop offset="31%" stop-color="#E0E0E0"/>
            <stop offset="77%" stop-color="#B3B3B3"/>
        </linearGradient>
        <linearGradient id="n" x1="50%" x2="50%" y1="100%" y2="0%">
            <stop offset="0%" stop-color="gray" stop-opacity=".25"/>
            <stop offset="54%" stop-color="gray" stop-opacity=".12"/>
            <stop offset="100%" stop-color="gray" stop-opacity=".1"/>
        </linearGradient>
        <linearGradient id="o" x1="50%" x2="50%" y1="0%" y2="100.033%">
            <stop offset="0%" stop-color="#F2F2F2"/>
            <stop offset="31%" stop-color="#E6E6E6"/>
            <stop offset="77%" stop-color="#CCC"/>
        </linearGradient>
        <linearGradient id="p" x1="49.954%" x2="49.954%" y1="99.943%" y2="-.057%">
            <stop offset="0%" stop-color="gray" stop-opacity=".25"/>
            <stop offset="54%" stop-color="gray" stop-opacity=".12"/>
            <stop offset="100%" stop-color="gray" stop-opacity=".1"/>
        </linearGradient>
        <linearGradient id="q" x1="50.072%" x2="50.072%" y1="100.095%" y2=".096%">
            <stop offset="0%" stop-color="gray" stop-opacity=".25"/>
            <stop offset="54%" stop-color="gray" stop-opacity=".12"/>
            <stop offset="100%" stop-color="gray" stop-opacity=".1"/>
        </linearGradient>
    </defs>
    <g fill="none" fill-rule="nonzero">
        <path fill="url(#a)" d="M78.886 83.081a41.897 41.897 0 0 0-4.729-19.475c-1.485-2.823-2.84-4.579-3.894-5.655a2.781 2.781 0 0 0-3.171-.626 2.86 2.86 0 0 0-1.113.717c-1.41 1.46-2.684 3.392-3.797 5.448a42.056 42.056 0 0 0-4.971 20.008v4.19h-2.687V39.002c0-10.205-2.284-20.273-6.757-29.212-2.12-4.231-4.053-6.86-5.54-8.477a3.841 3.841 0 0 0-5.776 0c-2.014 2.19-3.83 5.083-5.418 8.16-4.704 9.122-7.094 19.474-7.094 29.982v48.233h-2.322v-4.39a42.056 42.056 0 0 0-4.971-20.009c-1.113-2.053-2.387-3.984-3.797-5.447a2.781 2.781 0 0 0-3.227-.59l.097.053c-.34.15-.648.366-.907.634-1.043 1.077-2.397 2.833-3.894 5.656A41.897 41.897 0 0 0 .188 83.07v72.79h8.29l-.903 5.984v17.892h6.776v-17.892l-.904-5.984h8.17V89.572h2.322v65.99h6.62l-.95 6.28v17.894h6.778v-17.892l-.951-6.279h8.92l-.95 6.28v17.89h6.778v-17.89l-.95-6.28h5.284V89.572h2.687v66.388h2.179v-.1h7.201l-.904 5.984v17.892h6.78v-17.892l-.905-5.984h7.33V83.081z" opacity=".7" transform="translate(83 13)"/>
        <path fill="#535461" d="M99 171h-6l1.072-8h3.856z"/>
        <path fill="#000" d="M94.094 166.847h4.759l-.32-1.74h-4.12z" opacity=".1"/>
        <path fill="#535461" d="M154 171h-6l1.072-8h3.856z"/>
        <path fill="#000" d="M148.028 166.847h4.758l-.32-1.74h-4.119z" opacity=".1"/>
        <path fill="#535461" d="M120 171h-6l1.071-8h3.858z"/>
        <path fill="#000" d="M114.089 166.847h4.761l-.32-1.74h-4.122z" opacity=".1"/>
        <path fill="#535461" d="M133 171h-6l1.072-8h3.856z"/>
        <path fill="#000" d="M127.08 166.847h4.762l-.323-1.74H127.4z" opacity=".1"/>
        <path fill="#535461" d="M99 99h46v2H99z"/>
        <path fill="#E0E0E0" d="M151.957 70.848a2.534 2.534 0 0 0-1.888-.848c-.72 0-1.406.308-1.888.848-1.317 1.418-2.504 3.295-3.543 5.29A42.222 42.222 0 0 0 140 95.573V166h20V95.28a42.063 42.063 0 0 0-4.418-18.936c-1.388-2.743-2.652-4.45-3.625-5.496zM94.047 70.848A2.533 2.533 0 0 1 95.934 70c.72 0 1.405.308 1.888.848 1.316 1.418 2.503 3.295 3.542 5.29A42.231 42.231 0 0 1 106 95.573V166H86V95.28a42.073 42.073 0 0 1 4.417-18.936c1.384-2.743 2.648-4.45 3.63-5.496z"/>
        <path fill="#535461" d="M86 96l5 .022V102h-5zM101 96l5 .022V102h-5zM140 96l5 .022V102h-5zM155 96l5 .022V102h-5z"/>
        <path fill="#000" d="M100.929 75.17c-1.08-1.994-2.32-3.87-3.692-5.288a2.702 2.702 0 0 0-3.143-.574c.298.144.567.339.795.574 1.371 1.418 2.608 3.294 3.691 5.289a40.806 40.806 0 0 1 4.831 19.422v70.382h2.355V94.601a40.807 40.807 0 0 0-4.837-19.43zM146.597 76.347c1.014-1.99 2.179-3.86 3.467-5.274.24-.267.532-.482.856-.63a2.435 2.435 0 0 0-2.844.63c-1.288 1.414-2.45 3.284-3.467 5.274a42.713 42.713 0 0 0-4.537 19.366v70.18h1.991v-70.17a42.714 42.714 0 0 1 4.534-19.376z" opacity=".1"/>
        <path fill="url(#b)" d="M93 172h6v17h-6z"/>
        <path fill="url(#c)" d="M114 172h6v17h-6zM127 172h6v17h-6zM148 172h6v17h-6z"/>
        <path fill="#EEE" d="M125.338 15.267A3.586 3.586 0 0 0 122.6 14a3.586 3.586 0 0 0-2.737 1.267c-1.908 2.121-3.622 4.927-5.137 7.913C110.268 32.026 108 42.066 108 52.248V165h29V51.794c0-9.894-2.165-19.665-6.408-28.31-2.009-4.101-3.842-6.65-5.254-8.217z"/>
        <rect width="15" height="7" x="115" y="28" fill="#D59D15" rx="3.5"/>
        <path fill="url(#d)" d="M152.535 25.032c-1.97-11.751-12.736-20.03-24.73-19.017-11.993 1.012-21.186 10.977-21.115 22.888v.335c-.854.128-1.698.307-2.53.537-2.183-8.603-9.624-14.9-18.551-15.7-8.927-.8-17.39 4.073-21.099 12.148a21.04 21.04 0 0 0-5.817-1.315 22.49 22.49 0 0 0-1.587-5.187C56.388 8.861 47.35.372 36.353.228 25.355.084 16.094 8.333 15.087 19.171a22.502 22.502 0 0 0-2.063 7.255C3.025 30.543-2.2 41.481.93 51.74h168.937a20.685 20.685 0 0 0-2.446-17.307c-3.334-5.137-8.774-8.573-14.887-9.4z" opacity=".7" transform="translate(38 162)"/>
        <circle cx="76" cy="183" r="20" fill="url(#e)"/>
        <circle cx="76" cy="191" r="22" fill="url(#e)"/>
        <circle cx="166" cy="191" r="22" fill="url(#e)"/>
        <circle cx="164" cy="193" r="20" fill="url(#e)"/>
        <path fill="url(#f)" d="M141 196.452c.007 6.553-3.07 12.71-8.267 16.548h-23.448c-7.659-5.657-10.397-16.02-6.566-24.848 3.832-8.827 13.187-13.71 22.431-11.705 9.244 2.004 15.854 10.348 15.847 20.005H141z"/>
        <path fill="url(#g)" d="M116 207.152a20.23 20.23 0 0 1-.857 5.848H76.855a20.303 20.303 0 0 1 3.051-17.807A19.947 19.947 0 0 1 95.88 187h.123c.56 0 1.116.023 1.667.07 1.89.154 3.748.582 5.517 1.27 7.717 2.998 12.809 10.474 12.813 18.812z"/>
        <path fill="url(#h)" d="M166 211.182c0 .604-.027 1.202-.08 1.793a.05.05 0 0 1 0 .025h-39.838a19.897 19.897 0 0 1-.082-1.816c-.007-9.983 7.223-18.47 17.003-19.957a20.071 20.071 0 0 1 4.509-.172c7.301.564 13.715 5.108 16.722 11.847a20.259 20.259 0 0 1 1.766 8.28z"/>
        <path fill="url(#i)" d="M205 207.155c.002 1.98-.287 3.95-.857 5.845h-38.289a20.434 20.434 0 0 1-.514-9.56c.033-.174.066-.351.105-.523 1.986-9.286 10.134-15.916 19.562-15.917.629 0 1.247.028 1.86.089.274.022.549.055.823.09 9.916 1.36 17.31 9.892 17.31 19.976z"/>
        <path fill="url(#j)" d="M80.14 213c.065-.21.123-.42.18-.633 1.853-6.982-.145-14.429-5.238-19.519a19.908 19.908 0 0 0-19.415-5.121c-.795.22-1.575.491-2.336.813-9.487 3.976-14.444 14.543-11.471 24.452h38.28V213z"/>
        <ellipse cx="3.482" cy="4.077" fill="url(#k)" opacity=".7" rx="3.464" ry="3.817" transform="translate(194 163)"/>
        <circle cx="197.5" cy="167.5" r="3.5" fill="url(#e)"/>
        <circle cx="3.896" cy="4.048" r="3.885" fill="url(#l)" opacity=".7" transform="translate(210 199)"/>
        <circle cx="214" cy="203" r="4" fill="url(#m)"/>
        <circle cx="4.41" cy="4.405" r="4.366" fill="url(#n)" opacity=".7" transform="translate(37 176)"/>
        <circle cx="41" cy="180" r="4" fill="url(#o)"/>
        <path fill="url(#p)" d="M22.28 4.765a12.343 12.343 0 0 0-3.673-3.159C14.116-.899 8.49-.414 4.525 2.82.56 6.054-.904 11.349.862 16.076c1.766 4.728 6.386 7.88 11.565 7.894.261 0 .522 0 .78-.025 4.531-.277 8.538-2.948 10.433-6.953 1.894-4.005 1.37-8.696-1.365-12.214l.006-.013z" opacity=".4" transform="translate(186)"/>
        <path fill="#D59D15" d="M210 12.497c0 6.069-4.716 11.094-10.774 11.478a11.503 11.503 0 0 1-11.532-7.544 11.498 11.498 0 0 1 3.414-12.74 11.506 11.506 0 0 1 13.142-1.153 11.61 11.61 0 0 1 3.428 3.033A11.44 11.44 0 0 1 210 12.497z" opacity=".2"/>
        <path fill="#F55F44" d="M195.608 5.11c-.55.29-1.081.633-1.588 1.024-.339.23-.63.553-.85.944-.22.4-.227.92-.02 1.33.256.434.77.503 1.198.531.802.209 1.633-.128 2.176-.88l.916-1.02c.318-.351.667-.839.529-1.336-.105-.38-.454-.566-.77-.628-.787-.19-1.604-.014-2.291.493" opacity=".05"/>
        <circle cx="191.5" cy="16.5" r="1" fill="#F55F44" opacity=".05"/>
        <circle cx="204" cy="13" r="2" fill="#F55F44" opacity=".05"/>
        <path fill="#F55F44" d="M208 5.032a3.007 3.007 0 0 1-2.898 2.966 3.005 3.005 0 0 1-3.091-2.761A3.01 3.01 0 0 1 204.605 2 11.517 11.517 0 0 1 208 5.032zM208 19.086c-2.074 2.887-5.377 4.695-8.977 4.914a5.445 5.445 0 0 1-.023-.485c0-2.084 1.202-3.99 3.105-4.927a5.744 5.744 0 0 1 5.895.498z" opacity=".05"/>
        <circle cx="200.5" cy="95.5" r="1.5" fill="#535461" opacity=".25"/>
        <circle cx="11.5" cy="132.5" r="1.5" fill="#535461" opacity=".25"/>
        <circle cx="255.5" cy="140.5" r="1.5" fill="#535461" opacity=".25"/>
        <circle cx="80.5" cy="73.5" r="1.5" fill="#535461" opacity=".25"/>
        <circle cx="75.5" cy="41.5" r="1.5" fill="#535461" opacity=".25"/>
        <circle cx="35.5" cy="105.5" r="1.5" fill="#535461" opacity=".25"/>
        <path fill="#535461" d="M236 107.245h-1.246V106h-.508v1.245H233v.51h1.246V109h.508v-1.245H236zM257 64.245h-1.246V63h-.508v1.245H254v.51h1.246V66h.508v-1.245H257zM167 39.246h-1.246V38h-.508v1.246H164v.508h1.246V41h.508v-1.246H167zM222 100.245h-1.247V99h-.508v1.245H219v.51h1.245V102h.508v-1.245H222zM176 142.245h-1.245V141h-.508v1.245H173v.51h1.247V144h.508v-1.245H176zM47 56.245h-1.246V55h-.508v1.245H44v.508h1.246V58h.508v-1.247H47zM3 72.245H1.754V71h-.508v1.245H0v.508h1.246V74h.508v-1.247H3zM64 124.246h-1.247V123h-.508v1.246H61v.508h1.245V126h.508v-1.246H64z" opacity=".25"/>
        <circle cx="214" cy="203" r="4" fill="url(#e)"/>
        <path fill="url(#q)" d="M10.593 2.6a5.891 5.891 0 0 0-1.738-1.54 5.838 5.838 0 1 0-2.92 10.884h.37a5.838 5.838 0 0 0 4.288-9.34V2.6z" opacity=".4" transform="translate(64 94)"/>
        <path fill="#D59D15" d="M76 100.511A5.501 5.501 0 0 1 70.845 106h-.348a5.498 5.498 0 1 1-3.532-9.712 5.505 5.505 0 0 1 6.285-.554c.637.37 1.194.863 1.64 1.45A5.47 5.47 0 0 1 76 100.51z" opacity=".2"/>
        <path fill="#F55F44" d="M68.578 96.073a6.926 6.926 0 0 0-.972.511 1.522 1.522 0 0 0-.512.465.622.622 0 0 0 0 .659c.191.19.454.287.72.264.477.1.97-.068 1.295-.439l.55-.507c.192-.178.402-.419.324-.66a.58.58 0 0 0-.466-.33 1.915 1.915 0 0 0-1.376.248" opacity=".1"/>
        <circle cx="66.5" cy="102.5" r="1" fill="#F55F44" opacity=".1"/>
        <circle cx="73" cy="101" r="1" fill="#F55F44" opacity=".1"/>
        <path fill="#F55F44" d="M74 96.512A1.504 1.504 0 0 1 72.554 98a1.502 1.502 0 0 1-1.549-1.378A1.505 1.505 0 0 1 72.301 95c.66.386 1.238.9 1.699 1.512zM73.976 103.551c-.918 1.438-2.381 2.34-3.976 2.449v-.243c-.003-1.043.531-1.998 1.379-2.466.848-.467 1.863-.366 2.621.26h-.024z" opacity=".1"/>
        <path fill="#000" d="M108.165 56.01h28.721v1h-28.721z" opacity=".1"/>
    </g>
</svg>
