<svg xmlns="http://www.w3.org/2000/svg" width="32" height="32" viewBox="0 0 32 32">
    <g fill="#FFF" fill-rule="nonzero" opacity=".8">
        <path d="M11.2 10.667a4.25 4.25 0 0 0-1.204-2.964 3.193 3.193 0 0 1 3.443.678l.747-.762a4.251 4.251 0 0 0-5.12-.64 4.26 4.26 0 0 0-6.4 3.688V12.8H.534a.533.533 0 0 0-.533.533v18.134c0 .294.239.533.533.533h11.2v-1.067h-6.4V13.867h1.6V16H8v-2.133h3.733V12.8H11.2v-2.133zM3.11 27.97a.554.554 0 0 0-.887 0l-1.156 1.736V15.093l1.156 1.735a.533.533 0 0 0 .887 0l1.157-1.735v14.614L3.11 27.97zm.694 2.962H1.53l1.137-1.706 1.137 1.706zm-1.137-15.36L1.53 13.867h2.274l-1.137 1.706zM3.733 12.8v-2.133a3.196 3.196 0 0 1 4.404-2.964 4.25 4.25 0 0 0-1.204 2.964V12.8h-3.2zM8 10.667c0-.909.389-1.774 1.067-2.378a3.189 3.189 0 0 1 1.066 2.378V12.8H8v-2.133z"/>
        <path d="M17.013 7.172a.535.535 0 0 0 .054-.239V3.2H19.2v3.733c0 .083.017.164.053.239l3.2 6.4.955-.477-3.141-6.287V.533A.533.533 0 0 0 19.733 0h-3.2A.533.533 0 0 0 16 .533v6.275l-3.144 6.287a.532.532 0 0 0-.056.238v18.134c0 .294.239.533.533.533h3.734v-1.067h-3.2V13.46l3.146-6.287zM19.2 1.067v1.066h-2.133V1.067H19.2z"/>
        <path d="M31.925 20.527l-2.058-3.602v-1.992a.533.533 0 0 0-.534-.533H20.8a.533.533 0 0 0-.533.533v1.992l-2.063 3.608a.53.53 0 0 0-.07.267v10.667c0 .294.238.533.533.533h12.8a.533.533 0 0 0 .533-.533V20.8a.529.529 0 0 0-.075-.273zm-1.377-.26h-2.429l1.214-2.125 1.215 2.125zm-9.215-4.8H28.8v1.066h-7.467v-1.066zM21.11 17.6h7.307l-1.525 2.667h-7.307L21.11 17.6zm5.558 13.333H19.2v-9.6h7.467v9.6zm4.266 0h-3.2v-9.6h3.2v9.6z"/>
    </g>
</svg>
