<svg xmlns="http://www.w3.org/2000/svg" width="32" height="33" viewBox="0 0 32 33">
    <g fill="#30384C" opacity=".8" transform="translate(-.5 .428)">
        <path d="M23.563 23.166a7.747 7.747 0 01-6.227 7.593l-5.965 1.193a1.549 1.549 0 01-1.394-.418l-1.1-1.085a3.1 3.1 0 010-4.385l2.23-2.247a20.405 20.405 0 01-2.2-2.185l-2.23 2.231a3.098 3.098 0 01-4.384 0L1.208 22.78a1.55 1.55 0 01-.433-1.395l1.192-5.981a7.746 7.746 0 017.592-6.23h1.332A20.246 20.246 0 0130.75.697a1.55 1.55 0 011.287 1.286 20.116 20.116 0 01-8.49 19.866v1.317h.015zm-6.832 4.556a4.648 4.648 0 003.734-4.556v-2.17a1.55 1.55 0 01.728-1.3A17.109 17.109 0 0029.125 3.61a17.009 17.009 0 00-16.08 7.933 1.55 1.55 0 01-1.318.729H9.56a4.648 4.648 0 00-4.555 3.719L3.98 21.167l.512.512 3.47-3.472a1.549 1.549 0 012.355.186 17.167 17.167 0 004.028 4.03 1.55 1.55 0 01.186 2.355l-3.47 3.47.51.512 5.16-1.038z"/>
        <ellipse cx="21.689" cy="10.847" rx="1.549" ry="1.55"/>
    </g>
</svg>
