<svg xmlns="http://www.w3.org/2000/svg" width="647" height="372" viewBox="0 0 647 372">
    <g fill="none">
        <circle cx="140.5" cy="296.5" r="33.5" fill="#F2F2F2"/>
        <circle cx="146.5" cy="290.5" r="33.5" fill="#D59D15"/>
        <path fill="#3F3D56" d="M173 254H589V255H173zM388.982 11.04h-148.1V8h-67.154v3.04H25.018c-2.657 0-5.205 1.052-7.084 2.923C16.055 15.835 15 18.373 15 21.02v202.002c0 5.511 4.485 9.979 10.018 9.979h363.964c5.533 0 10.018-4.468 10.018-9.979V21.02c0-2.646-1.055-5.184-2.934-7.056-1.879-1.871-4.427-2.922-7.084-2.922z"/>
        <path fill="#D59D15" d="M29 29H386V229H29z"/>
        <circle cx="206.5" cy="18.5" r="3.5" fill="#D59D15"/>
        <path fill="#000" d="M284 229L29 229 29 29z" opacity=".1"/>
        <circle cx="84" cy="180" r="34" fill="#F2F2F2"/>
        <path fill="#3F3D56" d="M290 137H324V144H290zM249 83H363V86H249zM249 92H363V95H249zM249 101H363V104H249zM249 110H363V113H249zM249 121H363V124H249z"/>
        <path fill="#F2F2F2" d="M350 32H364V46H350z"/>
        <path fill="#3F3D56" d="M370 53h-17V36h17v17zm-16.26-.74h15.52V36.74h-15.52v15.52zM409.057 225.98h-34.835v-2.487c0-.13-.052-.256-.146-.349-.093-.092-.22-.144-.351-.144H361.78c-.132 0-.258.052-.352.144-.093.093-.145.218-.145.35v2.486h-7.465v-2.487c0-.13-.052-.256-.146-.349-.093-.092-.22-.144-.351-.144h-11.944c-.132 0-.258.052-.352.144-.093.093-.145.218-.145.35v2.486h-7.465v-2.487c0-.13-.052-.256-.146-.349-.093-.092-.22-.144-.352-.144h-11.943c-.132 0-.258.052-.352.144-.093.093-.145.218-.145.35v2.486h-7.465v-2.487c0-.13-.052-.256-.146-.349-.093-.092-.22-.144-.352-.144h-11.943c-.132 0-.258.052-.352.144-.093.093-.146.218-.146.35v2.486h-7.464v-2.487c0-.13-.052-.256-.146-.349-.093-.092-.22-.144-.352-.144H280.17c-.132 0-.259.052-.352.144-.093.093-.146.218-.146.35v2.486h-7.464v-2.487c0-.13-.053-.256-.146-.349-.093-.092-.22-.144-.352-.144h-11.943c-.132 0-.259.052-.352.144-.093.093-.146.218-.146.35v2.486h-7.464v-2.487c0-.13-.053-.256-.146-.349-.093-.092-.22-.144-.352-.144h-93.555c-.132 0-.259.052-.352.144-.094.093-.146.218-.146.35v2.486h-7.465v-2.487c0-.13-.052-.256-.145-.349-.094-.092-.22-.144-.352-.144h-11.943c-.132 0-.259.052-.352.144-.094.093-.146.218-.146.35v2.486h-7.465v-2.487c0-.13-.052-.256-.145-.349-.094-.092-.22-.144-.352-.144h-11.944c-.132 0-.258.052-.351.144-.094.093-.146.218-.146.35v2.486h-7.465v-2.487c0-.13-.052-.256-.145-.349-.094-.092-.22-.144-.352-.144H96.54c-.132 0-.258.052-.352.144-.093.093-.145.218-.145.35v2.486h-7.465v-2.487c0-.13-.052-.256-.146-.349-.093-.092-.22-.144-.351-.144H76.138c-.132 0-.258.052-.352.144-.093.093-.145.218-.145.35v2.486h-7.465v-2.487c0-.13-.052-.256-.146-.349-.093-.092-.22-.144-.352-.144H55.735c-.132 0-.258.052-.352.144-.093.093-.145.218-.145.35v2.486h-7.465v-2.487c0-.13-.052-.256-.146-.349-.093-.092-.22-.144-.352-.144H35.332c-.132 0-.258.052-.352.144-.093.093-.145.218-.145.35v2.486H11.943C5.347 225.98 0 231.278 0 237.814v5.352C0 249.702 5.347 255 11.943 255h397.114c6.596 0 11.943-5.298 11.943-11.834v-5.352c0-6.536-5.347-11.834-11.943-11.834zM93.5 202C69.476 202 50 182.748 50 159s19.476-43 43.5-43 43.5 19.252 43.5 43c-.027 23.737-19.487 42.973-43.5 43zm0-84.868c-23.392 0-42.355 18.745-42.355 41.868s18.963 41.868 42.355 41.868c23.392 0 42.355-18.745 42.355-41.868-.026-23.112-18.974-41.842-42.355-41.868zM333 19H478V20H333zM231 319H647V320H231zM109 371H254V372H109z"/>
        <path fill="#D59D15" d="M268 312H284V328H268z"/>
        <path fill="#3F3D56" d="M293 320h-20v-20h20v20zm-19.13-.87h18.26v-18.26h-18.26v18.26z"/>
        <path fill="#D59D15" d="M452 13H468V29H452z"/>
        <path fill="#3F3D56" d="M479 20h-20V0h20v20zm-19.13-.87h18.26V.87h-18.26v18.26z"/>
        <path fill="#D59D15" d="M612 312H628V328H612z"/>
        <path fill="#3F3D56" d="M639 320h-20v-20h20v20zm-19.13-.87h18.26v-18.26h-18.26v18.26zM601 131.459h-1.355V94.43c0-5.684-2.264-11.135-6.295-15.154-4.03-4.02-9.496-6.277-15.195-6.277H499.49c-5.7 0-11.166 2.258-15.196 6.277-4.03 4.019-6.294 9.47-6.294 15.154v203.138c0 5.684 2.264 11.135 6.294 15.154 4.03 4.02 9.496 6.277 15.196 6.277h78.665c5.7 0 11.165-2.258 15.195-6.277 4.03-4.019 6.295-9.47 6.295-15.154V157.816H601v-26.357z"/>
        <path fill="#D59D15" d="M595 96.012v202.97c.001 8.845-7.174 16.018-16.026 16.018h-78.948c-8.852 0-16.028-7.173-16.026-16.018V96.012C484 87.169 491.176 80 500.026 80h9.578c-.957 2.346-.682 5.014.732 7.116 1.415 2.103 3.784 3.364 6.32 3.363h45.011c2.536 0 4.905-1.26 6.32-3.363 1.414-2.102 1.689-4.77.731-7.116h10.256C587.824 80 595 87.17 595 96.012z"/>
        <path fill="#3F3D56" d="M528 213H551V220H528zM500 159H580V162H500zM500 169H580V172H500zM500 179H580V182H500zM500 188H580V191H500zM500 197H580V200H500z"/>
        <path fill="#F2F2F2" d="M529 119H543V133H529z"/>
        <path fill="#3F3D56" d="M534 123v17h17v-17h-17zm16.263 16.263h-15.526v-15.526h15.526v15.526z"/>
        <path fill="#000" d="M595 277.4v21.622c.001 8.823-7.174 15.976-16.026 15.978h-78.948c-8.852-.002-16.028-7.155-16.026-15.978V190l66.512 52.37 1.139.896 12.372 9.739 1.155.913L595 277.4z" opacity=".1"/>
        <circle cx="533" cy="283" r="25" fill="#F2F2F2"/>
        <path fill="#3F3D56" d="M181.5 372c-27.338 0-49.5-22.162-49.5-49.5s22.162-49.5 49.5-49.5 49.5 22.162 49.5 49.5c-.03 27.325-22.175 49.47-49.5 49.5zm0-97.862c-26.71 0-48.362 21.652-48.362 48.362s21.652 48.362 48.362 48.362 48.362-21.652 48.362-48.362c-.03-26.697-21.665-48.332-48.362-48.362zM540.5 303c-17.397 0-31.5-14.103-31.5-31.5s14.103-31.5 31.5-31.5 31.5 14.103 31.5 31.5c-.02 17.389-14.111 31.48-31.5 31.5zm0-61.855c-16.764 0-30.355 13.59-30.355 30.355 0 16.764 13.59 30.355 30.355 30.355 16.764 0 30.355-13.59 30.355-30.355-.02-16.757-13.598-30.336-30.355-30.355z"/>
    </g>
</svg>
