<svg xmlns="http://www.w3.org/2000/svg" width="518" height="316" viewBox="0 0 518 316">
    <g fill="none">
        <path fill="#3F3D56" d="M79.732 274.285c4.236 15.657 18.744 25.354 18.744 25.354s7.64-15.688 3.405-31.346c-4.236-15.657-18.744-25.355-18.744-25.355s-7.64 15.69-3.405 31.347z"/>
        <path fill="#D59D15" d="M85.956 270.92C97.58 282.234 99 299.626 99 299.626s-17.425-.95-29.048-12.265C58.33 276.047 56.91 258.654 56.91 258.654s17.425.952 29.047 12.266z"/>
        <path fill="#2F2E41" d="M56.115 314.531H465.384V315.794H56.115z"/>
        <path fill="#3F3D56" d="M104.212 315.163H87.791V298.74h16.421v16.422zm-15.158-1.264h13.895v-13.895H89.054V313.9zM0 12.522H139.168V151.69H0z"/>
        <path fill="#D59D15" d="M139.168 47.147v3.194c-2.12-1.405-3.833-3.346-4.963-5.626-1.852-3.789-1.794-8.157-1.735-12.382.067-5.022.134-9.759-3.052-12.844-3.504-3.387-9.113-2.91-14.537-2.448-.637.05-1.274.109-1.903.16-5.441.41-11.502-.965-14.445-4.679h3.672c2.691 1.811 6.808 2.448 10.589 2.163.612-.042 1.24-.1 1.87-.15 5.708-.487 12.18-1.04 16.498 3.143 3.974 3.84 3.898 9.356 3.823 14.688-.059 3.932-.109 7.99 1.484 11.243.66 1.344 1.578 2.545 2.7 3.538zM139.168 69.238v3.739c-.61-.798-1.295-1.537-2.045-2.205-4.326-3.815-10.538-4.653-16.541-5.475-.78-.1-1.543-.21-2.306-.318-9.733-1.4-15.77-4.745-18.444-10.203-1.852-3.79-1.794-8.158-1.735-12.383.067-5.022.134-9.758-3.052-12.844-3.504-3.387-9.113-2.909-14.537-2.448-.637.05-1.274.11-1.903.16-6.992.528-15.015-1.895-16.113-8.443-.378-2.247.184-4.309 1.014-6.296h2.75c-.922 1.996-1.61 3.924-1.283 5.877.83 4.997 7.554 6.79 13.448 6.347.612-.042 1.24-.101 1.87-.151 5.708-.487 12.18-1.04 16.498 3.144 3.974 3.84 3.899 9.356 3.823 14.688-.059 3.932-.109 7.99 1.484 11.242 2.28 4.661 7.688 7.545 16.54 8.82.755.109 1.518.218 2.281.318 6.372.864 12.97 1.76 17.874 6.078.126.11.252.227.377.353zM139.168 132.266v5.164c-3.026-3.22-5.558-7.637-7.495-13.162-.41-1.174-.804-2.373-1.198-3.572-2.172-6.564-4.419-13.346-9.767-17.68-5.718-4.629-13.909-5.651-21.831-6.64-1.015-.126-2.03-.252-3.035-.386-12.844-1.702-20.8-5.751-24.33-12.374-2.448-4.603-2.372-9.902-2.297-15.024.093-6.086.185-11.838-4.024-15.577-4.62-4.108-12.022-3.53-19.173-2.968-.847.067-1.685.135-2.507.193-9.23.637-19.819-2.297-21.26-10.236-.713-3.89 1.106-7.336 2.858-10.673 1.006-1.911 1.962-3.73 2.448-5.6 1.023-3.848-.243-8.182-3.052-11.209h4.108c2.398 3.483 3.189 7.826 2.172 11.93-.579 2.188-1.652 4.234-2.691 6.212-1.602 3.035-3.102 5.903-2.574 8.837 1.106 6.053 9.968 8.233 17.74 7.696.813-.059 1.643-.126 2.473-.184 7.528-.596 16.063-1.258 21.764 3.814 5.24 4.653 5.139 11.343 5.038 17.807-.067 4.77-.142 9.691 1.954 13.64 3.01 5.642 10.152 9.147 21.83 10.698.99.134 1.996.26 3.002.385 8.417 1.048 17.111 2.13 23.575 7.37 6.061 4.912 8.45 12.114 10.748 19.08.394 1.191.788 2.365 1.19 3.53 1.066 3.146 2.522 6.145 4.334 8.929zM0 68.718c3.823 4.628 11.93 6.338 19.199 5.835.821-.059 1.66-.126 2.506-.193 7.151-.562 14.554-1.14 19.174 2.968 4.208 3.739 4.116 9.49 4.024 15.577-.076 5.122-.151 10.42 2.297 15.023 3.53 6.623 11.485 10.672 24.33 12.374 1.005.134 2.02.26 3.034.386 7.923.99 16.113 2.012 21.831 6.64 5.349 4.334 7.596 11.117 9.767 17.68.394 1.2.788 2.399 1.199 3.572.377 1.082.78 2.113 1.199 3.11h3.588c-.629-1.366-1.165-2.732-1.626-4.04-.403-1.166-.797-2.34-1.19-3.53-2.298-6.967-4.687-14.168-10.749-19.08-6.464-5.24-15.157-6.322-23.575-7.37-1.006-.126-2.012-.252-3-.386-11.68-1.55-18.822-5.055-21.832-10.697-2.096-3.949-2.02-8.87-1.953-13.64.1-6.464.2-13.154-5.039-17.807-5.7-5.072-14.235-4.41-21.764-3.815-.83.059-1.66.126-2.473.185-7.772.536-16.633-1.644-17.74-7.697-.528-2.934.973-5.801 2.574-8.836 1.04-1.978 2.113-4.024 2.691-6.212C8.048 42.779 5.391 36.147 0 32.525v4.109c2.943 3.035 4.284 7.47 3.244 11.41-.486 1.87-1.441 3.689-2.448 5.6-.268.511-.536 1.014-.796 1.534v13.54zM61.561 151.69h-3.48c-.184-.544-.36-1.098-.544-1.65-2.171-6.565-4.418-13.348-9.767-17.682-5.718-4.628-13.908-5.65-21.831-6.64-1.014-.126-2.029-.251-3.035-.385C11.57 123.832 4.033 120.495 0 115.18v-8.342c.26 1.666.783 3.279 1.551 4.779 3.01 5.642 10.153 9.146 21.831 10.697.99.135 1.995.26 3.001.386 8.418 1.048 17.111 2.13 23.575 7.37 6.062 4.912 8.45 12.114 10.748 19.08.285.856.562 1.702.855 2.54z"/>
        <path fill="#3F3D56" d="M188.632 12.522H327.8V151.69H188.632z"/>
        <path fill="#D59D15" d="M255.701 22.583c-.001 15.96-8.562 30.695-22.428 38.6-13.865 7.905-30.906 7.767-44.641-.363V12.522h65.92c.768 3.299 1.153 6.674 1.15 10.06z"/>
        <circle cx="291.751" cy="50.249" r="26.828" fill="#D59D15"/>
        <circle cx="231.389" cy="107.257" r="19.282" fill="#D59D15"/>
        <path fill="#D59D15" d="M327.8 128.887v22.804h-27.59c-2.397-7.505.012-15.713 6.084-20.731 6.073-5.02 14.587-5.84 21.506-2.073z"/>
        <circle cx="280.014" cy="106.419" r="5.03" fill="#D59D15"/>
        <path fill="#3F3D56" d="M378.102 12.522H517.27V151.69H378.102z"/>
        <path fill="#D59D15" d="M446.01 12.522L446.01 69.531 378.102 69.531 378.102 72.884 449.363 72.884 449.363 12.522zM511.511 151.69l5.76-8.19v-5.827l-9.86 14.018h4.1zm-23.39-60.01l-30.86 43.889 22.929 16.122h5.826l-24.086-16.935 27.004-38.406 28.337 19.928v-4.1l-29.15-20.497zM436.788 86.122l-17.782 17.782 17.782 17.782 17.781-17.782-17.781-17.782zm-13.045 17.782l13.045-13.045 13.045 13.045-13.045 13.045-13.045-13.045z"/>
        <circle cx="68.212" cy="12.632" r="12.632" fill="#F2F2F2"/>
        <circle cx="263.372" cy="12.632" r="12.632" fill="#F2F2F2"/>
        <circle cx="449.691" cy="12.632" r="12.632" fill="#F2F2F2"/>
        <circle cx="250.425" cy="74.212" r="12" fill="#FFB8B8"/>
        <path fill="#FFB8B8" d="M244.109 79.896s3.158 16.421 1.895 19.58c-1.264 3.157 17.684-1.264 17.684-1.264s-3.79-16.421-3.158-20.21c.632-3.79-16.421 1.894-16.421 1.894zM223.267 136.739L224.53 153.792 230.799 180.573 232.74 187.897 235.898 176.529 232.74 150.634 231.668 138.975zM289.583 134.212v17.685s-1.895 22.737-5.684 28.421c-3.79 5.685-5.053-22.737-5.053-22.737l2.97-20.842 7.767-2.527z"/>
        <path fill="#2F2E41" d="M233.372 189.16s-3.158 3.79-.632 42.317c2.527 38.527-1.263 66.317 6.948 66.317 0 0-2.527 8.21 4.42 8.842 6.948.632 10.106 1.263 10.738-.632.631-1.894 1.895-10.737 0-10.737 0 0 0 2.527 1.263-7.579 1.263-10.105 1.263-58.106 4.421-64.422l10.106 23.37s0 10.736 1.894 15.789c1.895 5.053 5.053 34.106 5.053 34.106l-.632 4.42s15.159 2.527 15.79 0c.632-2.526.632-6.315 0-7.578-.631-1.263-.631-1.263.632-3.79 1.263-2.526 1.263-4.42.631-6.316-.631-1.894-.631-42.948-.631-42.948s-1.263-49.895-8.843-52.422c-7.579-2.526-51.158 1.264-51.158 1.264z"/>
        <path fill="#2F2E41" d="M241.582 301.583l-5.052 8.843s-7.895-2.843-6.316 4.42c13.579.948 23.053-.315 23.053-.315s3.158 1.263 3.79-.632c.631-1.894-1.58-8.526-3.474-8.526-1.895 0-12-3.79-12-3.79zM278.215 299.057s-5.053 11.369-3.158 12c1.894.632 18.947 3.158 20.21 3.79 1.264.631 7.58 1.263 8.211-2.527.632-3.79-3.158-5.052-3.158-5.052s-6.947-1.264-8.842-7.58c-1.895-6.315-13.263-.631-13.263-.631z"/>
        <path fill="#8985A8" d="M264.951 96.317s-17.053-3.158-20.842 0c-3.79 3.158-19.58 9.474-19.58 12.632 0 3.158 8.211 34.106 8.211 34.106s-4.42 46.737 0 48c4.421 1.264 12-2.526 20.843 1.895 8.842 4.421 34.105-3.79 34.105-3.79s-9.473-40.421-6.947-48c2.526-7.58 4.421-33.474 4.421-33.474s-10.737-11.369-20.21-11.369z"/>
        <path fill="#8985A8" d="M228.95 107.054l-4.42 1.263s-9.474 29.685-5.685 30.948c3.79 1.263 14.527 3.79 15.79 3.79s-5.684-36-5.684-36zM275.057 103.896l10.105 3.79s13.263 24.632 10.105 27.79c-3.157 3.158-17.052 6.316-17.052 6.316l-3.158-37.896z"/>
        <path fill="#2F2E41" d="M250.06 59.39c-.998-.181-2.023-.136-3.002.132-.782.347-1.503.82-2.133 1.4-1.143.91-2.363 1.719-3.647 2.416-1.024.556-2.124 1.07-2.839 1.99-.337.464-.607.975-.8 1.516-1.231 3.143-1.562 6.567-.956 9.888.068.472.21.93.42 1.358.657 1.21 2.107 1.686 3.328 2.32 2.32 1.204 4.077 3.23 5.979 5.022.706.705 1.5 1.317 2.362 1.82 2.713 1.48 6.03.997 9.076.474.435 0 .853-.176 1.16-.486.306-.31.476-.73.472-1.165l2.404-10.813c.436-1.602.643-3.258.616-4.918-.168-2.625-1.589-6.26-3.515-8.125-2.245-2.173-5.99-2.519-8.925-2.83z"/>
        <circle cx="168.786" cy="300.654" r="4.984" fill="#D59D15"/>
        <path fill="#2F2E41" d="M168.786 315.053c-7.952 0-14.399-6.446-14.399-14.399 0-7.952 6.447-14.398 14.399-14.398 7.952 0 14.398 6.446 14.398 14.398-.009 7.949-6.45 14.39-14.398 14.399zm0-27.69c-5.376 0-10.222 3.239-12.28 8.205-2.057 4.967-.92 10.683 2.881 14.485 3.802 3.8 9.518 4.938 14.485 2.88 4.966-2.057 8.205-6.903 8.205-12.279-.009-7.336-5.955-13.282-13.291-13.29z"/>
        <circle cx="411.315" cy="301.286" r="4.984" fill="#D59D15"/>
        <path fill="#2F2E41" d="M411.315 315.685c-5.823 0-11.073-3.509-13.302-8.889-2.229-5.38-.997-11.573 3.121-15.691s10.311-5.35 15.692-3.121c5.38 2.228 8.888 7.478 8.888 13.302-.009 7.948-6.45 14.39-14.399 14.399zm0-27.69c-7.34 0-13.29 5.95-13.29 13.291 0 7.34 5.95 13.29 13.29 13.29 7.34 0 13.291-5.95 13.291-13.29-.008-7.337-5.954-13.283-13.29-13.29z"/>
        <circle cx="411.315" cy="273.496" r="4.984" fill="#D59D15"/>
        <path fill="#2F2E41" d="M411.315 287.895c-5.823 0-11.073-3.508-13.302-8.889-2.229-5.38-.997-11.573 3.121-15.691s10.311-5.35 15.692-3.121c5.38 2.228 8.888 7.478 8.888 13.302-.009 7.949-6.45 14.39-14.399 14.399zm0-27.69c-7.34 0-13.29 5.95-13.29 13.291 0 7.34 5.95 13.291 13.29 13.291 7.34 0 13.291-5.95 13.291-13.29-.008-7.338-5.954-13.283-13.29-13.292z"/>
    </g>
</svg>
