<svg xmlns="http://www.w3.org/2000/svg" width="34" height="34" viewBox="0 0 34 34">
    <path fill="#30384C" d="M29.78 16.266v13.895a3.254 3.254 0 01-3.253 3.254h-4.88a3.254 3.254 0 01-3.254-3.254v-6.508H15.14v6.508a3.254 3.254 0 01-3.253 3.254h-4.88a3.254 3.254 0 01-3.254-3.254V16.266A6.509 6.509 0 01.5 10.636V9.01a1.63 1.63 0 01.163-.733L3.916 1.77c.278-.552.846-.899 1.464-.895h22.773a1.627 1.627 0 011.464.895l3.254 6.508c.097.228.162.489.162.733v1.627a6.508 6.508 0 01-3.253 5.63zm-3.253.879a6.465 6.465 0 01-4.88-2.197 6.49 6.49 0 01-9.76 0 6.49 6.49 0 01-4.88 2.197V30.16h4.88v-6.508A3.263 3.263 0 0115.14 20.4h3.253a3.254 3.254 0 013.254 3.254v6.508h4.88V17.145zm3.253-6.508h-6.507a3.254 3.254 0 106.507 0zm-9.76 0h-6.507a3.254 3.254 0 106.507 0zm-9.76 0H3.753a3.254 3.254 0 106.507 0zm18.511-3.254l-1.626-3.254H6.389L4.762 7.383h24.01z" opacity=".8"/>
</svg>
