<svg xmlns="http://www.w3.org/2000/svg" width="32" height="30" viewBox="0 0 32 30">
    <g fill="#FFF" fill-rule="nonzero" opacity=".8">
        <path d="M24.932.31V.268L24.915.23l-.02-.037-.025-.037v-.02L24.8.089l-.03-.026-.046-.014-.035-.02-.04-.017H6.553L6.51.029l-.034.017-.037.023-.031.025-.032.032v.02L6.35.181 6.33.22l-.017.037V13.43l.017.037.02.037.025.037v.02l.04.037.026.023.048.028.026.014.066.023h.017c.029.003.059.003.088 0H24.52c.029.003.058.003.088 0h.017l.065-.023.026-.014.048-.028.026-.023.04-.037v-.02l.025-.037.02-.037.017-.037a.294.294 0 0 0 0-.043v-.037a.333.333 0 0 0 0-.046V.416.393a.336.336 0 0 0 0-.046s.043-.025.04-.037zm-1.574.533l-.937.794H8.804L7.868.843h15.49zm.734 11.515l-1.076-.925v-9.17l1.088-.922-.012 11.017zm-4.308-4.482c-.333.96-.646 1.865-1.45 2.079-1.386.384-2.05.1-3.251-.393a20.59 20.59 0 0 0-1.993-.732c-1.78-.535-3.172.513-4.027 1.583V2.492h13.099v2.742c-1.51.142-1.993 1.52-2.378 2.642zm2.378-1.782v5.1h-12.6c.538-.8 1.668-2.042 3.272-1.558.653.201 1.295.436 1.924.703 1.236.507 2.13.875 3.793.433 1.242-.33 1.663-1.549 2.04-2.625.406-1.168.717-1.928 1.57-2.053zM7.144 12.358V1.338l1.065.926v9.169l-1.065.925zm.735.496l.925-.806h13.617l.937.794-15.48.012zM.427 29.232h30.371a.427.427 0 0 0 0-.854h-2.041v-9.966a2.024 2.024 0 1 0-2.509 0v1.284a11.213 11.213 0 0 1-9.414-.111v-1.162a2.025 2.025 0 1 0-2.508 0v1.227a11.214 11.214 0 0 1-9.346-.139v-1.088a2.025 2.025 0 1 0-2.508 0v9.966H.427a.427.427 0 0 0 0 .855v-.012zm2.896-.854v-9.556c.264.053.536.053.8 0v9.556h-.8zm11.857 0v-9.556c.264.053.536.053.8 0v9.556h-.8zm11.922 0v-9.556c.264.053.536.053.8 0v9.556h-.8zm.402-12.714a1.17 1.17 0 1 1-.003 0h.003zm-10.67 4.875a12.072 12.072 0 0 0 9.414.1v.495a11.213 11.213 0 0 1-9.414-.111v-.484zm0 1.424a12.073 12.073 0 0 0 9.414.1v6.312h-9.414v-6.412zm-1.255-6.299a1.17 1.17 0 1 1 0 2.34 1.17 1.17 0 0 1 0-2.34zM4.977 20.456a12.086 12.086 0 0 0 9.349.134v.496a11.214 11.214 0 0 1-9.346-.14l-.003-.49zm0 1.424a12.087 12.087 0 0 0 9.349.134v6.367H4.977v-6.5zm-1.253-6.216a1.17 1.17 0 1 1 0 2.34 1.17 1.17 0 0 1 0-2.34z"/>
        <path d="M16.373 3.673a2.147 2.147 0 1 0 0 4.295 2.147 2.147 0 0 0 0-4.295zm0 3.44a1.293 1.293 0 1 1 1.293-1.293c0 .715-.579 1.294-1.293 1.296v-.003z"/>
    </g>
</svg>
