<svg xmlns="http://www.w3.org/2000/svg" width="32" height="32" viewBox="0 0 32 32">
    <g fill="#FFF" fill-rule="nonzero" opacity=".8">
        <path d="M27.154.317A.533.533 0 0 0 26.667 0H5.333a.533.533 0 0 0-.487.317l-2.133 4.8a.53.53 0 0 0-.046.216V8c0 .84.396 1.63 1.068 2.133h-.002v14.4H4.8v-13.92a2.666 2.666 0 0 0 2.667-1.015 2.664 2.664 0 0 0 4.266 0 2.664 2.664 0 0 0 4.267 0 2.664 2.664 0 0 0 4.267 0 2.664 2.664 0 0 0 4.266 0 2.662 2.662 0 0 0 3.2.845v14.09H28.8V9.6h-.001c.347-.46.535-1.023.534-1.6V5.333a.53.53 0 0 0-.046-.216l-2.133-4.8zm.825 4.483h-2.625l1.313-2.953L27.979 4.8zm-16.592 0h-3.1l1.66-3.733h3.099L11.386 4.8zm2.826-3.733h3.1L15.653 4.8h-3.099l1.66-3.733zm4.267 0h3.1L19.92 4.8h-3.1l1.66-3.733zm4.267 0h3.099L24.186 4.8h-3.099l1.66-3.733zm-17.067 0h3.1L7.12 4.8h-3.1l1.66-3.733zM5.333 9.6a1.602 1.602 0 0 1-1.6-1.6V5.867h3.2V8a1.602 1.602 0 0 1-1.6 1.6zm4.267 0A1.602 1.602 0 0 1 8 8V5.867h3.2V8a1.602 1.602 0 0 1-1.6 1.6zm4.267 0a1.602 1.602 0 0 1-1.6-1.6V5.867h3.2V8a1.602 1.602 0 0 1-1.6 1.6zm4.266 0a1.602 1.602 0 0 1-1.6-1.6V5.867h3.2V8a1.602 1.602 0 0 1-1.6 1.6zm4.267 0A1.602 1.602 0 0 1 20.8 8V5.867H24V8a1.602 1.602 0 0 1-1.6 1.6zM25.067 8V5.867h3.2V8a1.6 1.6 0 1 1-3.2 0z"/>
        <path d="M15.467 19.733A.533.533 0 0 0 16 19.2v-6.4a.533.533 0 0 0-.533-.533H6.933a.533.533 0 0 0-.533.533v6.4c0 .295.239.533.533.533h8.534zm-8-6.4h7.466v5.334H7.467v-5.334zM31.908 25.834a.533.533 0 0 0-.441-.234h-5.334v-2.667a1.602 1.602 0 0 0-1.6-1.6H7.467a1.602 1.602 0 0 0-1.6 1.6V25.6H.533a.533.533 0 0 0-.457.808L1.511 28.8.076 31.192A.533.533 0 0 0 .533 32h8a1.602 1.602 0 0 0 1.6-1.6v-2.667h11.734V30.4a1.602 1.602 0 0 0 1.6 1.6h8a.533.533 0 0 0 .495-.731l-.988-2.469.988-2.469a.533.533 0 0 0-.054-.497zM7.467 22.4h17.066c.295 0 .533.239.534.533v3.825a1.592 1.592 0 0 0-.534-.091H7.467c-.182 0-.362.03-.534.091v-3.825c0-.294.24-.533.534-.533zm1.066 8.533H1.475l1.116-1.859a.533.533 0 0 0 0-.548l-1.116-1.86h4.392v1.6a1.602 1.602 0 0 0 1.6 1.6h1.066a.533.533 0 1 1 0 1.067zm.534-2.041a1.592 1.592 0 0 0-.534-.092H7.467a.533.533 0 0 1 0-1.067h1.6v1.159zm15.466-1.159a.533.533 0 0 1 0 1.067h-1.066c-.182 0-.362.031-.534.092v-1.159h1.6zm5.372 1.265l.774 1.935h-7.212a.533.533 0 1 1 0-1.066h1.066a1.602 1.602 0 0 0 1.6-1.6v-1.6h4.546l-.774 1.935a.533.533 0 0 0 0 .396zM25.067 20.267V12.8a.533.533 0 0 0-.534-.533h-5.866a.533.533 0 0 0-.534.533v7.467H19.2v-6.934H24v6.934h1.067z"/>
    </g>
</svg>
