<svg xmlns="http://www.w3.org/2000/svg" width="32" height="21" viewBox="0 0 32 21">
    <g fill="#FFF" fill-rule="nonzero" opacity=".8">
        <path d="M29.76 8.585L28.93 5.27a.501.501 0 0 0 .397-.49v-.534c0-1.16-.944-2.104-2.105-2.104H23.45V1.039c0-.57-.465-1.035-1.036-1.035H3.173c-.57 0-1.035.464-1.035 1.035v9.086a.501.501 0 0 0 1.002 0V1.039c0-.018.015-.033.033-.033h19.24c.019 0 .034.015.034.033v9.086a.501.501 0 0 0 1.002 0v-.568h5.913a1.64 1.64 0 0 1 1.557 1.136h-1.558a.501.501 0 0 0-.501.5v1.07c0 .866.704 1.57 1.57 1.57h.568v2.204h-1.31a3.178 3.178 0 0 0-3-2.137 3.178 3.178 0 0 0-2.998 2.137h-.241v-3.774a.501.501 0 0 0-1.002 0v3.774H12.05A3.178 3.178 0 0 0 9.052 13.9a3.178 3.178 0 0 0-2.999 2.138h-2.88a.033.033 0 0 1-.033-.033V14.9H5.31a.501.501 0 0 0 0-1.002H.501a.501.501 0 0 0 0 1.003h1.637v1.102c0 .57.464 1.035 1.035 1.035H5.88l-.001.034a3.177 3.177 0 0 0 3.173 3.173 3.177 3.177 0 0 0 3.173-3.173v-.034h11.291v.034a3.177 3.177 0 0 0 3.173 3.173 3.177 3.177 0 0 0 3.173-3.173v-.034h1.637a.501.501 0 0 0 .5-.5v-5.345c0-1.32-.973-2.416-2.24-2.609zm-6.311-5.441h3.774c.608 0 1.103.494 1.103 1.102v.033h-4.877V3.144zm0 5.411V5.282H27.9l.818 3.273h-5.27zM9.052 19.244a2.174 2.174 0 0 1-2.171-2.171c0-1.197.974-2.171 2.171-2.171 1.197 0 2.171.974 2.171 2.17a2.174 2.174 0 0 1-2.17 2.172zm17.637 0a2.174 2.174 0 0 1-2.171-2.171c0-1.197.974-2.171 2.17-2.171 1.198 0 2.172.974 2.172 2.17a2.174 2.174 0 0 1-2.171 2.172zm4.309-6.413h-.568a.569.569 0 0 1-.568-.568v-.568h1.136v1.136z"/>
        <path d="M9.052 16.037a1.037 1.037 0 0 0 0 2.071 1.037 1.037 0 0 0 0-2.07zM26.689 16.037a1.037 1.037 0 0 0 0 2.071 1.037 1.037 0 0 0 0-2.07zM20.81 13.9h-7.482a.501.501 0 0 0 0 1.002h7.482a.501.501 0 0 0 0-1.002zM7.983 11.762H1.57a.501.501 0 0 0 0 1.002h6.413a.501.501 0 0 0 0-1.002zM17.423 4.96a.501.501 0 0 0-.708 0l-4.456 4.456L9.94 7.098a.501.501 0 1 0-.709.709l2.673 2.672a.5.5 0 0 0 .708 0l4.81-4.81a.501.501 0 0 0 0-.708z"/>
    </g>
</svg>
