<svg xmlns="http://www.w3.org/2000/svg" width="277" height="175" viewBox="0 0 277 175">
    <g fill="none" fill-rule="nonzero">
        <path fill="#E6E6E6" d="M214.225 132.918c11.386-28.546 7.942-60.42-6.744-84.9L53.753 69.36l147.32-30.786C138.985-39.064 18.137 12.433 29.786 110.457l184.44 22.46z"/>
        <path fill="#D59D15" d="M25 100.918h195v61H25z"/>
        <path fill="#FFB8B8" d="M79.828 93.918c1.771 1.295 2.419 1.713 2.796 1.66 18.271 5.009 2.254 10.88-6.624.914l3.828-2.574zM19 148.88v12.038l9-.482-2.5-12.518zM69 148.88v12.038l-9-.482 2.5-12.518z"/>
        <path fill="#2F2E41" d="M41.946 85.41l13.175-.492c30.392 32.182 18.899 24.842 18.054 69l-16.102-4.929 3.416-30.557c.001-.001.9-.607.153-.62-4.675 1.622-8.086-18.47-18.208-16.137-11.518-.556-13.393 16.702-18.054 16.757l3.416 30.557-16.102 4.929c-1.803-48.525-10.64-37.563 18.054-69l12.198.493zM21.345 158.345s-1.99-3.792-4.479-1.896c-2.488 1.896-8.46 7.583-8.46 7.583s-14.433 6.162-5.475 9.954c8.958 3.792 16.424-5.214 16.424-5.214 8.532-1.694 13.454-2.78 8.929-11.643-2.57 1.059-6.205 2.284-6.939 1.216zM66.655 158.345s1.99-3.792 4.479-1.896c2.488 1.896 8.46 7.583 8.46 7.583s14.433 6.162 5.475 9.954c-8.958 3.792-16.424-5.214-16.424-5.214-8.532-1.694-13.454-2.78-8.929-11.643 2.57 1.059 6.205 2.284 6.939 1.216z"/>
        <path fill="#FFB8B8" d="M56 29.918c-.744 12.546-17.731 11.441-18 0 .744-12.546 17.731-11.441 18 0z"/>
        <path fill="#FFB8B8" d="M43 35.418c4.374 13.22-5.953 6.022 8.5 16.5l5.5-11s-4-1.5-3.5-7l-10.5 1.5z"/>
        <path fill="#575A89" d="M68.905 43.265l-14.708-3.347c.414 8.842-9.05 7.062-10.702 2.615l-14.061 8.11c5.902 21.917 4.406 22.821-3.454 36.894-3 2.731 1.486 4.297 5.392 2.802 2.979-1.833 4.491-3.462 7.683-3.047 15.082 3.13 27.638 3.87 29.625 2.646.71-1.014-.02-46.497.225-46.673z"/>
        <path fill="#575A89" d="M66 45.103c.469 0 2.883-1.185 2.883-1.185 7.025-.123 11.74 49.175 12.117 50.577l-4.687 3.423-7.5-20.05L66 45.103z"/>
        <path fill="#FFB8B8" d="M31 101.87c.242 1.797.653 21.979 7.828 12.552.942-6.878-2.259-8.931-3.102-13.504L31 101.87z"/>
        <path fill="#575A89" d="M32.978 50.758l-1.539-.839c-4.125-.133-2.825 10.603-4.57 18.465-1.426 9.16-1.02 19.26.653 32.762.146 4.955 9.173 1.833 10.478 1.454 0 0-3.013-20.243-1.507-23.7 1.507-3.455-3.515-28.142-3.515-28.142z"/>
        <path fill="#2F2E41" d="M53.931 20.975c-1.298-2.269-3.33-3.94-5.705-4.694l-1.744 1.502.678-1.751a8.59 8.59 0 0 0-1.724-.108l-1.57 2.172.65-2.097c-6.734.778-10.718 9.097-7.222 14.919.539-1.784 1.194-3.457 1.733-5.24.424.062.853.064 1.278.006l.656-1.647.183 1.578c2.034-.191 5.05-.61 6.978-.993l-.187-1.21 1.121 1.005c.591-.146.942-.279.913-.38 1.434 2.487 2.854 4.076 4.288 6.564.544-3.51 1.505-6.426-.326-9.626z"/>
        <path fill="#FFF" d="M165 107.918h43v20h-43z"/>
        <path fill="#E6E6E6" d="M173 112.918h27v2h-27zM173 116.918h27v2h-27zM173 121.918h27v2h-27z"/>
        <path fill="#FFF" d="M128 112.82l-1.5-2.45-1.5-2.452-1.5 2.451-1.5 2.451h1.612v7.098h2.776v-7.098z"/>
        <circle cx="223" cy="151.918" r="12" fill="#3F3D56"/>
        <circle cx="224.5" cy="151.418" r="5.5" fill="#E6E6E6"/>
        <path fill="#3F3D56" d="M215.695 158.918L241 169.423l-.79 2.495-14.564-1.642L201 159.377l13.707 1.576z"/>
        <path fill="#3F3D56" d="M237.884 168.918L269.211 66.61l7.629-13.488.027-.13c.024-.12.585-2.939-.793-4.98a4.494 4.494 0 0 0-3.034-1.903c-4.21-.786-13.63-1.173-14.028-1.19l-.076-.002-.074.01c-.258.035-6.277.911-7.638 6.144l-6.55 11.867-.025.084L215 160.064l1.632.495 29.623-96.957 6.57-11.907.027-.11c.963-3.937 5.563-4.859 6.175-4.964.962.04 9.815.433 13.699 1.158.78.106 1.479.532 1.928 1.175.85 1.252.637 3.095.562 3.58l-7.582 13.404-.027.089-31.354 102.396 1.631.495z"/>
        <path fill="#3F3D56" d="M241.965 74.68l.303-1.68 22.638 4.087-.304 1.679zM237.7 88.63l.34-1.67 22.476 4.584-.34 1.671zM230.043 113.563l.47-1.64 21.943 6.276-.47 1.64zM244.933 160.918l.629-1.602-21.534-8.41-1.058-11.417 20.1 7.486 6.51 9.396 1.42-.978-6.82-9.84-23.18-8.635 1.408 15.204z"/>
        <circle cx="253" cy="162.918" r="12" fill="#3F3D56"/>
        <circle cx="255.5" cy="163.418" r="5.5" fill="#E6E6E6"/>
    </g>
</svg>
