<svg xmlns="http://www.w3.org/2000/svg" width="277" height="214" viewBox="0 0 277 214">
    <g fill="none" fill-rule="nonzero">
        <path fill="#F2F2F2" d="M2.963 86.94C10.583 37.308 36.913 1.48 67.819.044c16.34-.76 33.533 8.216 46.05 39.625 22.378 56.147-1.375 94.947-17.934 113.384-8.007 8.915-15.2 19.664-21.417 31.884-11.186 21.985-32.704 49.305-58.331 6.5C-2.388 160.41-2.113 119.998 2.963 86.94z"/>
        <path fill="#3F3D56" d="M54 131h223v81H54z"/>
        <path fill="#000" d="M114 131l-60 41v-23.744L79.252 131zM174 131l-56.452 38.594-2.021 1.383L55.519 212H54v-22.86l38.667-26.43 1.294-.886L139.05 131z" opacity=".1"/>
        <path fill="#F2F2F2" d="M60.6 171l-.6-.74c.06-.047 6.077-4.718 15.689-7.39a50.4 50.4 0 0 1 17.145-1.745c7.162.512 14.283 2.593 21.166 6.183l-.45.837c-15.313-7.988-28.899-6.781-37.6-4.363-9.426 2.62-15.291 7.172-15.35 7.218z"/>
        <path fill="#F2F2F2" d="M119 171c-2.747-.49-6.382-.696-9-.174l3.568-3.09.83-4.736c.857 2.611 2.83 5.776 4.602 8zM159.289 181a50.723 50.723 0 0 1-13.6-1.872c-9.612-2.671-15.63-7.34-15.689-7.388l.6-.74c.059.046 5.953 4.613 15.39 7.227 8.693 2.409 22.265 3.605 37.56-4.373l.45.837c-6.883 3.59-14.004 5.67-21.166 6.182-1.18.085-2.362.127-3.545.127z"/>
        <path fill="#F2F2F2" d="M188 171c-1.773 2.225-3.745 5.389-4.602 8l-.83-4.736-3.568-3.09c2.618.523 6.254.318 9-.174zM202.6 171l-.6-.74c.06-.047 6.077-4.718 15.69-7.39a50.414 50.414 0 0 1 17.144-1.746c7.162.513 14.283 2.594 21.166 6.184l-.45.837c-15.312-7.987-28.898-6.782-37.6-4.363-9.426 2.62-15.291 7.172-15.35 7.218z"/>
        <path fill="#F2F2F2" d="M261 171c-2.747-.49-6.382-.696-9-.174l3.568-3.09.83-4.736c.857 2.611 2.83 5.776 4.602 8z"/>
        <path fill="#D59D15" d="M185 153h15v1h-15zM185 157h15v1h-15zM185 162h15v1h-15zM115 181h15v1h-15zM115 186h15v1h-15zM115 191h15v1h-15zM258 181h15v1h-15zM258 186h15v1h-15zM258 191h15v1h-15z"/>
        <circle cx="123" cy="174" r="3" fill="#D59D15"/>
        <circle cx="193" cy="170" r="3" fill="#D59D15"/>
        <circle cx="265" cy="174" r="3" fill="#D59D15"/>
        <path fill="#3F3D56" d="M91.826 109L87 103.826 92.174 99 97 104.174 91.826 109zm-4.057-5.147l4.084 4.378 4.378-4.084-4.084-4.378-4.378 4.084zM203.826 50L199 44.826 204.174 40 209 45.174 203.826 50zm-4.057-5.147l4.084 4.378 4.378-4.084-4.084-4.378-4.378 4.084zM261 131h-7v-7h7v7zm-6.462-.538h5.924v-5.924h-5.924v5.924z"/>
        <circle cx="160.5" cy="154.5" r="3.5" fill="#D59D15"/>
        <path fill="#F2F2F2" d="M160 165a10 10 0 1 1 10-10c-.006 5.52-4.48 9.994-10 10zm0-19.23a9.23 9.23 0 1 0 9.23 9.23 9.241 9.241 0 0 0-9.23-9.23zM141 70h29v34h-29z"/>
        <path fill="#3F3D56" d="M159.1 155l-.372-.396a21.256 21.256 0 0 0 3.811-7.27c1.265-4.15 1.883-10.703-2.357-18.36-4.338-7.832-4.533-14.195-3.933-18.153.653-4.306 2.319-6.72 2.39-6.821l.412.344c-.016.024-1.668 2.425-2.294 6.603-.579 3.858-.377 10.066 3.87 17.735 4.349 7.851 3.704 14.587 2.398 18.855-1.415 4.625-3.823 7.35-3.925 7.463z"/>
        <path fill="#3F3D56" d="M181 105h-41V64h41v41zm-40.43-.57h39.86V64.57h-39.86v39.86z"/>
        <path fill="#3F3D56" d="M148 76h25v1h-25zM148 82h25v1h-25zM148 88h25v1h-25z"/>
        <path fill="#FFB9B9" d="M40.947 187L40 197l5.368-.69.632-8.275z"/>
        <path fill="#2F2E41" d="M25.166 112s-29.733 28.62-10.936 37.478h5.81s12.645-20.783 18.796-20.443l1.709 19.761-1.025 39.863 7.518.341s4.443-20.102 4.102-31.345L59 116.088 25.166 112z"/>
        <path fill="#2F2E41" d="M16 148.588L20.039 150s15.82-3.882 16.83-3.53l3.131-.022-.103-8.448H26.434L16 148.588zM46.686 195.203s-5.974-2.706-6.97 0c-.995 2.706-.663 10.486-.663 10.486s1.328 2.368.664 5.074 2.655 4.06 6.969 2.706C51 212.116 51 208.733 51 208.733l-4.314-13.53zM51.508 136.892s4.819-2.732 4.474 1.367c-.344 4.099-2.065 7.856-2.065 7.856s4.475 11.614 0 12.638C49.442 159.778 46 157.387 46 155.68c0-1.708 5.508-18.787 5.508-18.787z"/>
        <path fill="#FFB9B9" d="M36 44.352l.684 13.37L42.5 63l6.5-9.5V44z"/>
        <path fill="#D0CDE1" d="M40.315 57.356L36.43 54.48l-2.562 3.889-11.535 6.76 6.785 17.575.34 17.237s-12.553 12.843-5.09 14.533c7.464 1.69 33.926 5.408 35.283 2.366 1.357-3.042-1.696-34.474-1.696-34.474l1.018-26.701L48.796 52l-8.481 5.356z"/>
        <path fill="#FFB9B9" d="M19.728 79.112S16.995 98 22.119 98c3.043.01 6.059-.556 8.881-1.667L26.901 86l1.708-7-8.881.112z"/>
        <path fill="#FFB9B9" d="M27.45 95.333l3.793.667s11.038-6.667 11.728-7c.69-.333-11.038-6-11.038-6L24 86l3.45 9.333z"/>
        <path fill="#000" d="M32.033 83.333l-4.936 1.884L28.615 79l-8.887.112S16.994 98 22.121 98c3.045.01 6.063-.556 8.887-1.667l-.026-.065.368.065s10.937-6.666 11.621-7c.684-.333-10.938-6-10.938-6z" opacity=".1"/>
        <circle cx="44.5" cy="40.5" r="9.5" fill="#FFB9B9"/>
        <path fill="#2F2E41" d="M36.631 29.73l-1.873-.759s3.917-4.36 9.367-3.981l-1.533-1.706s3.747-1.517 7.154 2.464c1.79 2.093 3.862 4.553 5.154 7.324h2.006l-.837 1.864L59 36.801l-3.008-.335c.285 1.61.187 3.264-.285 4.828l.08 1.473s-3.486-5.454-3.486-6.213v1.896s-1.874-1.706-1.874-2.844l-1.022 1.327-.51-2.085-6.303 2.085 1.022-1.706-3.917.569 1.533-2.085s-4.428 2.464-4.599 4.55C36.461 40.345 34.247 43 34.247 43l-1.022-1.896s-1.533-8.53 3.406-11.375z"/>
        <path fill="#FFB9B9" d="M52 72.765s-2.667 3.072-2.667 7.51l-17.666-.683S27 78.91 27 82.323v3.414s2.333-1.024 3.667 0c1.333 1.024 15.666 9.9 22.666 6.486 7-3.414 8.667-16.727 8.667-16.727s-6.333-5.462-10-2.731z"/>
        <path fill="#D0CDE1" d="M56.642 56.333L59.297 56s5.31.667 4.646 11c-.664 10.333-.996 11-.996 11S55.977 71.667 51 74.667l5.642-18.334zM23.413 65h-1.397a12.59 12.59 0 0 0-2.794 7.899A37.422 37.422 0 0 1 18 82l11-1.889L23.413 65z"/>
        <path fill="#3F3D56" d="M193 108h1v14h-1z"/>
        <path fill="#3F3D56" d="M192.5 105c.554 1.661 1.499 3.722 2.5 5l-2.5-1.006L190 110c1.001-1.278 1.946-3.339 2.5-5zM130 96h1v14h-1z"/>
        <path fill="#3F3D56" d="M129.5 93c.554 1.661 1.499 3.722 2.5 5l-2.5-1.006L127 98c1.001-1.278 1.946-3.339 2.5-5zM217 86h1v14h-1z"/>
        <path fill="#3F3D56" d="M217.5 82c.554 1.661 1.499 3.722 2.5 5l-2.5-1.006L215 87c1.001-1.278 1.946-3.339 2.5-5z"/>
    </g>
</svg>
