<svg xmlns="http://www.w3.org/2000/svg" width="28" height="32" viewBox="0 0 28 32">
    <g fill="#30384C" fill-rule="nonzero" opacity=".8">
        <path d="M18.125 3.942A4.616 4.616 0 0 0 13.575 0c-1.462 0-2.85.705-3.713 1.888a.54.54 0 1 0 .872.637 3.53 3.53 0 0 1 2.84-1.443 3.53 3.53 0 0 1 3.48 3.013.541.541 0 0 0 1.07-.153zM25.935 9.995l-1.623-2.703a.54.54 0 0 0-.463-.263h-1.555a.54.54 0 0 0 0 1.082h1.249l.973 1.622H2.634l.973-1.622h.573a.54.54 0 0 0 0-1.082H3.3a.54.54 0 0 0-.464.263L1.215 9.995a.541.541 0 0 0 .464.82H25.47a.54.54 0 0 0 .464-.82z"/>
        <path d="M23.24 5.01a.54.54 0 0 0-.337-.242l-7.371-1.724a.542.542 0 0 0-.65.403l-.556 2.377a.54.54 0 1 0 1.053.246l.433-1.85 6.318 1.478-.993 4.245a.54.54 0 1 0 1.053.246l1.116-4.771a.539.539 0 0 0-.067-.408zM13.86 6.288l-.492-4.167a.54.54 0 0 0-.6-.474L3.724 2.716a.54.54 0 0 0-.474.6l.822 6.95a.54.54 0 1 0 1.074-.126l-.758-6.414 7.97-.942.429 3.63a.541.541 0 0 0 1.074-.126z"/>
        <path d="M18.137 10.068l-1.073-4.463a.542.542 0 0 0-.652-.399l-8.71 2.095a.54.54 0 0 0-.4.652l.536 2.23a.54.54 0 1 0 1.052-.252l-.41-1.705 7.659-1.842.947 3.937a.54.54 0 1 0 1.051-.253z"/>
        <path d="M26.011 10.246a.54.54 0 0 0-.54-.513H1.68a.54.54 0 0 0-.54.513L.058 31.334a.541.541 0 0 0 .54.569h25.954a.543.543 0 0 0 .54-.569l-1.08-21.088zM1.167 30.821l1.026-20.006h22.764l1.026 20.006H1.167z"/>
        <path d="M17.63 11.896c-.894 0-1.622.728-1.622 1.622 0 .895.728 1.622 1.622 1.622.895 0 1.623-.727 1.623-1.622 0-.894-.728-1.622-1.623-1.622zm0 2.163a.541.541 0 1 1 .001-1.082.541.541 0 0 1 0 1.082zM9.52 11.896c-.895 0-1.623.728-1.623 1.622 0 .895.728 1.622 1.623 1.622.894 0 1.622-.727 1.622-1.622 0-.894-.728-1.622-1.622-1.622zm0 2.163a.541.541 0 1 1 0-1.083.541.541 0 0 1 0 1.083z"/>
        <path d="M17.63 13.518h-.041a.54.54 0 0 0-.5.75v2.765a3.519 3.519 0 0 1-3.514 3.514 3.519 3.519 0 0 1-3.515-3.514v-2.974a.54.54 0 0 0-1.081 0v2.974a4.601 4.601 0 0 0 4.596 4.596 4.601 4.601 0 0 0 4.596-4.596v-2.974a.541.541 0 0 0-.54-.54z"/>
    </g>
</svg>
