<svg xmlns="http://www.w3.org/2000/svg" width="32" height="21" viewBox="0 0 32 21">
    <g fill="#30384C" fill-rule="nonzero" opacity=".8">
        <path d="M30.4 0H1.6A1.6 1.6 0 0 0 0 1.6v17.067a1.6 1.6 0 0 0 1.6 1.6h28.8a1.6 1.6 0 0 0 1.6-1.6V1.6A1.6 1.6 0 0 0 30.4 0zm.533 18.667a.533.533 0 0 1-.533.533H1.6a.533.533 0 0 1-.533-.533V1.6c0-.295.238-.533.533-.533h28.8c.295 0 .533.238.533.533v17.067z"/>
        <path d="M20.8 12.267a2.67 2.67 0 0 0 2.667 2.666c.466-.002.924-.13 1.325-.367A2.667 2.667 0 1 0 26.133 9.6c-.469.003-.93.13-1.333.37a2.638 2.638 0 0 0-1.333-.37 2.67 2.67 0 0 0-2.667 2.667zm6.933 0a1.594 1.594 0 0 1-2.083 1.522 2.643 2.643 0 0 0 .003-3.04 1.58 1.58 0 0 1 2.08 1.518zm-4.266-1.6a1.6 1.6 0 1 1 0 3.2 1.6 1.6 0 0 1 0-3.2zM29.333 16h-9.066a.533.533 0 0 0 0 1.067h9.066a.533.533 0 0 0 0-1.067zM3.733 10.667h6.4a.533.533 0 0 0 .534-.534v-6.4a.533.533 0 0 0-.534-.533h-6.4a.533.533 0 0 0-.533.533v6.4c0 .295.239.534.533.534zm.534-6.4H9.6V9.6H4.267V4.267zM3.733 13.867H11.2a.533.533 0 0 0 0-1.067H3.733a.533.533 0 0 0 0 1.067zM18.133 12.8H14.4a.533.533 0 0 0 0 1.067h3.733a.533.533 0 0 0 0-1.067zM6.933 16h-3.2a.533.533 0 0 0 0 1.067h3.2a.533.533 0 0 0 0-1.067zM13.333 16h-3.2a.533.533 0 0 0 0 1.067h3.2a.533.533 0 0 0 0-1.067zM29.333 4.267H14.4a.533.533 0 0 0 0 1.066h14.933a.533.533 0 0 0 0-1.066zM21.867 6.4H14.4a.533.533 0 0 0 0 1.067h7.467a.533.533 0 0 0 0-1.067zM13.867 9.6h1.066v1.067h-1.066zM16 9.6h1.067v1.067H16zM18.133 9.6H19.2v1.067h-1.067z"/>
    </g>
</svg>
