<svg xmlns="http://www.w3.org/2000/svg" width="454" height="316" viewBox="0 0 454 316">
    <defs>
        <linearGradient id="prefix__a" x1="49.988%" x2="49.988%" y1="100%" y2="-.007%">
            <stop offset="0%" stop-color="gray" stop-opacity=".25"/>
            <stop offset="54%" stop-color="gray" stop-opacity=".12"/>
            <stop offset="100%" stop-color="gray" stop-opacity=".1"/>
        </linearGradient>
    </defs>
    <g fill="none" fill-rule="evenodd">
        <path fill="#D59D15" fill-rule="nonzero" d="M265.457 49.606c-28.85-1.003-56.325-10.309-82.566-20.493-26.242-10.184-52.224-21.468-80.382-26.84-18.11-3.47-38.82-3.96-53.414 5.742-14.041 9.355-18.579 25.46-21.022 40.414-1.832 11.258-2.915 23.099 2.118 33.634 3.49 7.315 9.69 13.463 13.978 20.47 14.915 24.377 4.373 54.439-11.794 78.24-7.578 11.165-16.377 21.83-22.23 33.706-5.852 11.877-8.558 25.504-3.44 37.63 5.076 12.028 17.17 21.045 30.265 27.393 26.607 12.892 57.948 16.585 88.535 18.675 67.673 4.628 135.712 2.624 203.564.619 25.114-.744 50.334-1.497 75.038-5.377 13.72-2.156 27.886-5.578 37.844-13.81 12.64-10.482 15.775-28.235 7.305-41.377-14.21-22.047-53.49-27.526-63.434-51.186-5.47-13.021.147-27.53 8.09-39.608 17.046-25.914 45.614-48.642 47.12-78.262 1.034-20.341-12.7-40.713-33.935-50.34-22.26-10.09-53.124-8.82-69.536 7.88-16.92 17.156-46.634 23.772-72.104 22.89z" opacity=".1"/>
        <path fill="#D59D15" fill-rule="nonzero" d="M38.709 146.255S5.204 131.964.798 157.732c0 0-2.29 4.018.896 7.336 0 0 .686-1.782 3.923.06 1.156.648 2.384 1.154 3.658 1.508 1.72.482 3.549.383 5.209-.281 0 0 11.023-.605 20.293-15.228 0 0 3.976-2.49 4.174-3.427l-6.644.455s.511 4.931-2.241 7.89c0 0 2.438-7.654 1.268-7.868-.237-.045-3.51.391-3.51.391s.848 8.577-3.586 13.014c0 0 4.115-8.723 2.327-12.86l-4.904.96s1.345 9.023-3.506 14.268c0 0 3.99-9.273 2.448-13.982l-4.694 1.6s1.13 8.823-2.927 13.182c0 0 3.541-11.186 1.874-12.727 0 0-4.223 1.736-5.124 2.727 0 0 .668 6.364-1.91 8.66 0 0 1.583-7.728.798-8.046 0 0-4.904 3.745-6.401 6.977 0 0 1.865-4.936 5.787-7.727 0 0-3.295-.564-5.827.831 0 0 1.694-3.277 7.015-1.722 0 0 3.94-2.768 4.73-2.728 0 0-5.035-2.272-8.67-1.99 0 0 3.9-2.273 9.898 1.522l4.684-1.713s-6.5-3.378-9.754-3.364c0 0 4.33-1.7 10.969 3.027l4.797-.99s-5.38-3.342-9.006-4.119c0 0 4.348-.7 10.39 3.887l3.278-.278s-3.968-2.372-5.169-2.95c-1.201-.577-1.148-.95-1.148-.95 2.858.504 5.522 1.804 7.693 3.755 0 0 6.796-.155 6.823-.577zM36.826 121.222S25.004 93.992 8.005 106.48c0 0-3.595 1.04-3.568 4.756 0 0 1.4-.65 2.288 2.253.325 1.03.774 2.016 1.338 2.938.744 1.253 1.88 2.228 3.233 2.777 0 0 6.854 5.876 20.513 2.618 0 0 3.746.796 4.384.37l-4.174-3.499S29.562 121.85 26.27 122c0 0 5.721-3.067 5.15-3.853-.116-.16-2.296-1.751-2.296-1.751s-4.29 5.457-9.365 5.542c0 0 7.309-2.747 8.562-6.156l-3.434-2.222s-4.254 5.996-10.047 6.307c0 0 7.54-3.134 9.262-6.743l-3.67-1.72s-4.263 5.778-9.084 5.996c0 0 8.348-4.498 8.219-6.333 0 0-3.465-1.378-4.567-1.298 0 0-3.152 4.067-5.966 3.951 0 0 5.257-3.596 4.972-4.222 0 0-4.995-.596-7.684.444 0 0 3.862-1.813 7.738-1.218 0 0-1.633-2.19-3.902-2.8 0 0 2.836-.946 5.11 2.956 0 0 3.87.622 4.326 1.084 0 0-1.7-4.173-4.014-6.053 0 0 3.568.889 4.995 6.476l3.728 1.649s-1.953-5.636-3.889-7.463c0 0 3.51 1.458 4.794 7.956l3.39 2.129s-1.312-4.978-3.02-7.48c0 0 2.961 2.053 3.965 8.129l2.096 1.689s-1.021-3.618-1.41-4.632c-.387-1.013-.147-1.2-.147-1.2 1.41 1.906 2.257 4.166 2.449 6.525 0 0 4.031 3.76 4.294 3.533z" opacity=".1"/>
        <path fill="url(#prefix__a)" fill-rule="nonzero" d="M416.725 297.663c-.446-1.614-.893-3.25-1.786-4.653-.828-1.191-1.813-2.266-2.929-3.195-3.237-2.937-7.215-5.919-11.506-5.174-1.331.29-2.617.757-3.822 1.39-.625.29-1.255.58-1.898.824-1.811.756-3.813.93-5.728.5-.983-.263-1.898-.736-2.867-1.03-.462-.137-.933-.239-1.411-.303.935-.423 1.845-.9 2.724-1.43 4.817-2.973 8.662-8.32 8.122-13.98-.18-1.917-.84-3.748-1.492-5.553-.571-1.578-1.144-3.157-1.719-4.738-.741-2.054-1.505-4.144-2.862-5.851-1.51-1.898-3.652-3.186-5.867-4.149-4.76-2.063-9.961-2.79-15.096-3.494l-.357-.049V191.41c.006-.95-.368-1.862-1.039-2.535-.67-.673-1.582-1.052-2.533-1.052h-6.756l-.893-5.45c-.853-5.174-1.732-10.451-4.121-15.113-1.563-3.052-4.054-5.958-7.408-6.56-.66-.061-1.308-.21-1.928-.445-.983-.481-1.518-1.551-2.278-2.344-1.946-2.037-5.112-2.068-7.724-3.12-2.304-.913-4.188-2.638-6.287-3.962-2.098-1.323-4.71-2.268-7.037-1.403 0 .169-.03.334-.049.503l-1.491-.668c-1.607-.74-3.25-1.507-4.54-2.728-1.662-1.564-2.546-3.627-3.234-5.829-.071-.232-.138-.446-.205-.69 2.853-2.91 4.785-6.595 5.554-10.594.121.388.246.78.367 1.172.11.399.259.786.446 1.155.062.121.132.24.21.352.147.218.332.41.545.566.211.153.459.25.719.28.124.018.25.018.375 0 .685-.144 1.25-.626 1.5-1.279.071-.175.123-.357.156-.543.017-.113.028-.226.031-.34v-.106-.232-.125-.338c0-.09-.026-.179-.044-.263-.018-.085 0-.05 0-.071-.023-.116-.05-.228-.072-.344-.002-.025-.002-.05 0-.075l-.067-.281-.04-.17v-.044c-.044-.174-.085-.352-.125-.53-.324-1.549-.407-3.137-.245-4.71.269-2.309.695-4.596 1.277-6.846l.093-.406.107-.472c.072-.32.139-.642.206-.963.058-.272.111-.548.16-.824.05-.276.085-.486.121-.731v-.09c.273-1.66.346-3.348.219-5.026-.21-2.33-.933-4.537-2.523-6.297-1.12-1.243-2.594-2.162-3.634-3.467-.978-1.226-1.527-2.732-2.536-3.93-2.791-3.325-9.948-5.888-14.342-6.334-5.032-.508-13.163.776-17.217 3.744-1.5 1.096-2.527 2.674-3.572 4.176-1.92 2.79-4.103 5.57-7.18 7.13-1.165.588-2.496 1.034-3.268 2.059-.467.695-.772 1.485-.893 2.313-.594 2.904-.902 5.86-.92 8.824-.067 1.296.1 2.594.491 3.832.063.17.139.343.219.508.071.147.152.295.237.446l.053.094c.54.772 1.018 1.584 1.433 2.428.099.238.17.487.215.74.076.655.034 1.317-.125 1.957 0 .098-.036.191-.058.285l-.04.205c0 .062 0 .13-.036.191-.036.194-.067.385-.094.575 0 .134-.027.272-.031.41-.032.552.074 1.104.308 1.605.059.12.129.233.21.338.16.214.366.39.602.513.532.2 1.088.331 1.653.392 1.67.374 2.714 1.649 3.393 3.213.15.351.283.71.397 1.074.279.915.488 1.849.625 2.794.76-.04 1.202-.708 1.47-1.439.083-.241.153-.486.21-.735.102-.468.205-.936.312-1.404 1.762 3.732 4.601 6.855 8.153 8.966.125.366.245.736.357 1.11.585 2.019.866 4.136-.147 5.9-.724 1.253-1.943 2.028-3.3 2.563-.195-.262-.447-.477-.737-.628-1.178-.589-2.59.129-3.572 1.007-1.786 1.613-3.241 3.926-5.594 4.456-.849.196-1.786.156-2.496.673-.468.44-.859.953-1.157 1.52-1.037 1.485-2.76 2.341-4.572 2.273-.817-.04-1.786-.228-2.344.37-.415.445-.446 1.154-.893 1.577-.603.588-1.58.299-2.42.263-1.226.003-2.396.51-3.237 1.4-.053-1.799-.743-3.52-1.947-4.858-1.205-1.239-2.88-1.876-4.309-2.848-3.572-2.424-5.358-6.685-7.22-10.588-1.861-3.904-4.317-8.022-8.38-9.444-.933-.33-2.233-.356-2.653.548-.142.378-.166.79-.066 1.181.392 2.077 1.875 3.744 3.156 5.415 2.157 2.816 3.965 6.261 3.443 9.782-.612 4.167-4.331 7.402-4.778 11.587-.196 1.845.273 3.699.268 5.553 0 1.158-.183 2.33.067 3.458.266.857.58 1.697.942 2.518.403 1.347.61 2.744.616 4.149.316 5.906.63 11.814.943 17.723.236 4.408-.728 8.758-1.702 13.094-1.207 2.57-2.143 5.258-2.795 8.021-1.098 4.827-1.13 9.97.447 14.667.844 2.553 2.138 4.947 2.83 7.545 0 .058.027.111.04.165.068.552.144 1.105.246 1.653.127.633.293 1.258.496 1.872.203 1.056.532 2.084.982 3.061.626 1.242 1.546 2.312 2.68 3.12-.644 1.257-1.684 2.268-2.376 3.498-1.206 2.13-1.255 4.746-.817 7.162.844 4.661 3.366 8.828 6.697 12.215-.148-.008-.298-.008-.446 0-1.09.12-2.136.494-3.054 1.092-7.05 4.113-11.082 12.924-9.609 20.99.29 1.578.795 3.173 1.849 4.372.877.954 2.004 1.645 3.255 1.992.78.235 1.584.384 2.397.446 5.497.445 10.819-2.1 16.329-2.313 1.826-.029 3.653.056 5.47.254 2.652.22 5.31.36 7.974.419 4.326.102 6.764-1.048 9.528-4.279.68-.801 1.246-1.692 1.684-2.647 2.348-.133 4.942-.338 6.822-.494l.027.263c.103.89.259 1.916.973 2.482.404.273.86.458 1.34.544 4.514 1.11 9.082 2.228 13.725 2.228 2.18-.045 4.357-.214 6.52-.504l8.17-.94c2.378.305 4.725.815 7.015 1.524 2.357.802 4.563 1.992 6.867 2.928 5.358 2.17 11.127 2.946 16.837 3.703.974.13 2.09.219 2.813-.445.929-.892.616-2.385.357-3.632-.107-.508-.187-1.025-.254-1.542 3.855 1.01 7.625 2.318 11.279 3.908l.642.28c.184.972 1.085 1.752 1.947 2.8.283.44.614.848.987 1.216.425.28.91.455 1.415.513 6.035 1.121 12.196 1.398 18.307.824 1.25-.17 2.514-.213 3.773-.13.924.126 1.835.332 2.724.616l5.17 1.475c3.809 1.092 7.716 2.193 11.667 1.947.803-.052 1.6-.167 2.384-.343 3.126-.722 6.042-2.469 7.542-5.276 2.013-3.82 1.036-8.512-.112-12.683zm-151.658-69.705c-.16 1.933-.665 3.82-1.492 5.575-.553 1.119-1.268 2.148-1.786 3.271-.49 1.016-.857 2.937-1.076 5.045-.268-.044-.54-.085-.808-.116.398-1.39.697-2.816 1.094-4.211.942-3.316 2.492-6.449 4.068-9.564z"/>
        <path fill="#FBBEBE" fill-rule="nonzero" d="M271.323 295.747c-.964-2.092-1.877-4.498-.913-6.59.629-1.232 1.709-2.202 3.036-2.724 1.314-.512 2.698-.838 4.11-.968 4.431-.555 8.915-.613 13.36-.174.325 2.45-.36 4.934-.95 7.3-.533 2.18-.84 2.502-3.196 2.616-1.525.078-15.086 1.312-15.447.54z"/>
        <ellipse cx="311" cy="264" fill="#464353" fill-rule="nonzero" rx="64" ry="18"/>
        <ellipse cx="311" cy="264" fill="#000" fill-rule="nonzero" opacity=".1" rx="64" ry="18"/>
        <path fill="#FBBEBE" fill-rule="nonzero" d="M322.496 170.17c-2.196 4.206-5.843 7.49-10.277 9.254-2.61.944-5.358 1.462-8.136 1.537-3.042.138-6.147-.058-9.005-1.088-3.835-1.377-7.02-4.192-9.408-7.474s-4.032-7.03-5.461-10.809c-.753-1.967-1.47-4.063-1.116-6.141 2.307-.52 4.834-1.284 6.026-3.313 1.017-1.74.735-3.828.148-5.817-.166-.564-.359-1.124-.551-1.661-.448-1.288-1.994-3.735-.919-4.836.686-.697 3.557-1.053 4.547-1.506 3.051-1.394 5.865-3.41 9.216-4.072 2.899-.573 5.891-.035 8.785.56.384.055.753.187 1.085.386.378.316.657.732.806 1.2.824 1.989 1.308 4.187 1.971 6.26.69 2.172 1.577 4.21 3.24 5.751 1.294 1.204 2.943 1.959 4.556 2.691l3.969 1.803c.706.262 1.347.673 1.877 1.204.52.707.83 1.544.896 2.416.711 4.673-.075 9.449-2.249 13.655z"/>
        <path fill="#000" fill-rule="nonzero" d="M311 141.696c-6.555 6.735-16.887 8.25-25.141 3.687-.167-.567-.362-1.13-.556-1.67-.452-1.294-2.011-3.754-.927-4.86.692-.702 3.589-1.059 4.588-1.514 3.077-1.402 5.915-3.428 9.296-4.093 2.924-.576 5.943-.036 8.862.562.388.056.76.188 1.094.388.381.318.664.736.814 1.206.813 2 1.301 4.21 1.97 6.294z" opacity=".1"/>
        <circle cx="295.5" cy="127.5" r="20.5" fill="#FBBEBE" fill-rule="nonzero"/>
        <path fill="#F86D70" fill-rule="nonzero" d="M357.95 193.133l-1.693-10.21c-.856-5.122-1.738-10.342-4.13-14.956-1.572-3.023-4.067-5.903-7.431-6.5-.663-.059-1.314-.209-1.935-.446-.985-.473-1.523-1.534-2.28-2.318-1.953-2.015-5.133-2.046-7.749-3.072-2.311-.891-4.201-2.608-6.307-3.918-2.105-1.311-4.725-2.23-7.054-1.391-.376 3.99-.775 8.069-2.477 11.702-2.244 4.79-6.541 8.316-11.694 9.594-5.153 1.277-10.61.17-14.85-3.014-3.99-2.991-6.548-7.605-7.74-12.433-.29-1.177-.622-2.528-1.71-3.068-1.179-.588-2.594.125-3.584.99-1.814 1.6-3.256 3.892-5.612 4.432-.851.196-1.792.156-2.5.668-.47.432-.864.94-1.164 1.503-1.048 1.473-2.77 2.32-4.582 2.255-.82-.04-1.792-.227-2.352.366-.416.446-.448 1.141-.896 1.556-.604.584-1.585.299-2.427.267-1.595-.067-3.078.95-3.991 2.23-.914 1.279-1.344 2.861-1.792 4.395 4.896 10.851 9.375 21.715 14.27 32.566.23.41.352.87.354 1.338-.098.486-.306.943-.609 1.337-2.4 3.839-2.324 8.667-2.06 13.178.264 4.512.587 9.278-1.438 13.321-.55 1.11-1.268 2.127-1.792 3.237-1.227 2.514-1.67 10.556-.954 13.258H361c-1.93-5.283-1.196-15.884-.793-21.492.282-3.924-.448-7.842-.761-11.765-.659-8.012-.166-15.613-1.496-23.61z"/>
        <path fill="#464353" fill-rule="nonzero" d="M363.281 247.364c1.483-.563 3.118-.359 4.708-.146 5.117.696 10.31 1.41 15.053 3.445 2.226.949 4.346 2.217 5.851 4.083 1.336 1.68 2.116 3.738 2.855 5.764l1.71 4.65c.65 1.774 1.31 3.582 1.492 5.467.535 5.581-3.3 10.844-8.123 13.743-4.823 2.9-10.501 3.933-16.033 5.014-5.53 1.082-11.084 2.28-16.593 3.547-2.57.664-5.177 1.175-7.807 1.53-5.897.665-12.06-.315-17.663 1.627-2.226.776-4.413 1.928-6.724 2.465-1.533.335-3.084.583-4.645.745l-10.604 1.205c-2.156.288-4.327.453-6.502.497-4.632 0-9.188-1.09-13.686-2.181-.478-.084-.933-.267-1.336-.537-.712-.558-.868-1.547-.97-2.442-.455-3.964-.853-7.932-1.194-11.904-.107-1.29-.187-2.687.52-3.773.892-1.33 2.628-1.747 4.214-2.004 6.723-1.095 13.533-1.565 20.343-1.405 2.588-2.576 6.854-2.59 10.243-3.99 1.247-.57 2.454-1.224 3.612-1.956 6.06-3.52 12.832-5.65 19.823-6.237 1.37-.042 2.73-.235 4.057-.577 2.623-.811 5.014-3.019 7.709-2.478.334-.918.565-2.146 1.336-2.775.383-.324.855-.541 1.207-.887.743-.75.81-1.929.699-2.975-.112-1.046-.36-2.119-.09-3.139.114-.386.28-.754.495-1.095 1.34-2.332 3.358-3.502 6.043-3.28z"/>
        <path fill="#000" fill-rule="nonzero" d="M363.281 247.364c1.483-.563 3.118-.359 4.708-.146 5.117.696 10.31 1.41 15.053 3.445 2.226.949 4.346 2.217 5.851 4.083 1.336 1.68 2.116 3.738 2.855 5.764l1.71 4.65c.65 1.774 1.31 3.582 1.492 5.467.535 5.581-3.3 10.844-8.123 13.743-4.823 2.9-10.501 3.933-16.033 5.014-5.53 1.082-11.084 2.28-16.593 3.547-2.57.664-5.177 1.175-7.807 1.53-5.897.665-12.06-.315-17.663 1.627-2.226.776-4.413 1.928-6.724 2.465-1.533.335-3.084.583-4.645.745l-10.604 1.205c-2.156.288-4.327.453-6.502.497-4.632 0-9.188-1.09-13.686-2.181-.478-.084-.933-.267-1.336-.537-.712-.558-.868-1.547-.97-2.442-.455-3.964-.853-7.932-1.194-11.904-.107-1.29-.187-2.687.52-3.773.892-1.33 2.628-1.747 4.214-2.004 6.723-1.095 13.533-1.565 20.343-1.405 2.588-2.576 6.854-2.59 10.243-3.99 1.247-.57 2.454-1.224 3.612-1.956 6.06-3.52 12.832-5.65 19.823-6.237 1.37-.042 2.73-.235 4.057-.577 2.623-.811 5.014-3.019 7.709-2.478.334-.918.565-2.146 1.336-2.775.383-.324.855-.541 1.207-.887.743-.75.81-1.929.699-2.975-.112-1.046-.36-2.119-.09-3.139.114-.386.28-.754.495-1.095 1.34-2.332 3.358-3.502 6.043-3.28z" opacity=".05"/>
        <path fill="#3F3D56" fill-rule="nonzero" d="M276.209 299.02c-2.772 3.234-5.213 4.39-9.552 4.285-2.669-.063-5.335-.203-7.998-.42-1.82-.198-3.65-.283-5.48-.256-5.527.216-10.86 2.765-16.372 2.319-.815-.065-1.621-.216-2.405-.452-1.244-.348-2.367-1.037-3.247-1.99-1.056-1.204-1.562-2.801-1.853-4.38-1.474-8.094 2.565-16.91 9.636-21.03.923-.6 1.971-.975 3.063-1.096 1.07-.004 2.129.23 3.099.686l.067.027c2.873 1.19 5.482 2.945 7.675 5.161.333.384.73.707 1.174.952.442.169.91.257 1.383.262l5.884.375c.997.03 1.988.167 2.956.41 1.067.375 2.105.828 3.108 1.354 3.166 1.425 6.676 1.804 10.098 2.355.33.018.644.145.895.36.137.172.232.373.278.587.97 3.683.068 7.61-2.41 10.49z"/>
        <path fill="#000" fill-rule="nonzero" d="M245 276.7c-2.262 2.158-4.224 4.609-5.834 7.287-2.584 4.42-4.208 9.335-4.765 14.424-.212 1.856-.228 3.73-.049 5.589-1.233-.344-2.346-1.022-3.217-1.96-1.047-1.183-1.548-2.752-1.836-4.303-1.46-7.952 2.542-16.613 9.547-20.66.914-.59 1.953-.958 3.035-1.077 1.06-.004 2.11.226 3.07.674l.049.026z" opacity=".1"/>
        <path fill="#FBBEBE" fill-rule="nonzero" d="M358.683 287.846c3.276-.09 6.953-.256 9.36 1.97 2.296 2.106 2.599 5.579 2.75 8.706l.174 3.63c.054 1.107.098 2.25-.343 3.275-.785 1.8-2.937 2.668-4.903 2.565-1.966-.104-3.77-.972-5.567-1.755-4.876-2.12-9.954-3.735-15.154-4.818.17-2.51.452-5.009.847-7.495.272-1.723.316-4.607 1.457-6.037 1.208-1.512 2.782-.693 4.422-.414 2.301.354 4.632.48 6.957.373z"/>
        <path fill="#464353" fill-rule="nonzero" d="M271.536 251.846c0 .446-.7 0-.763-.477-.49-3.606-3.356-6.578-6.694-8.022s-7.14-1.52-10.756-1.177c-5.467.517-11.58 2.607-13.602 7.71-.473 1.195-.688 2.487-1.268 3.633-.642 1.256-1.691 2.26-2.387 3.48-1.2 2.113-1.25 4.702-.817 7.091 1.165 6.373 5.53 11.824 10.818 15.599 5.288 3.775 11.47 6.03 17.632 8.062 16.297 5.368 33.017 9.356 49.984 11.922 2.75.415 5.525.798 8.158 1.68 2.356.79 4.561 1.97 6.864 2.897 5.355 2.148 11.117 2.915 16.825 3.668.973.125 2.088.214 2.807-.445.928-.86.62-2.358.357-3.593-.97-4.69-.16-9.572 2.272-13.7.955-1.604 2.195-3.249 2.017-5.107-.215-2.166-2.375-3.7-4.526-4.047-2.15-.348-4.337.165-6.497.446-.746.098-1.558.16-2.232-.219-.32-.216-.612-.474-.866-.766-3.052-2.941-7.655-3.584-11.398-1.591-.799.445-2.008-.549-2.838-.923l-9.376-4.247c-10.783-4.872-21.618-9.765-33.025-12.85-.91-.178-1.776-.537-2.544-1.055-.567-.446-.973-1.052-1.495-1.547-1.138-1.074-2.723-1.502-4.088-2.264-1.366-.762-2.883-2.63-2.562-4.158z"/>
        <path fill="#3F3D56" fill-rule="nonzero" d="M415.817 310.436c-1.497 2.762-4.402 4.483-7.52 5.192-.783.176-1.579.289-2.38.337-3.942.244-7.836-.842-11.636-1.915l-5.16-1.455c-.886-.277-1.796-.48-2.717-.603-1.255-.083-2.515-.04-3.76.129-6.098.565-12.244.29-18.267-.816-.503-.054-.987-.226-1.412-.5-.372-.364-.702-.767-.984-1.203-1.404-1.68-2.914-2.66-1.252-4.877.958-1.286 2.735-1.929 3.48-3.405.743-1.477.266-3.574-.175-5.1-.601-2.106-2.58-3.015-3.288-4.948-.53-1.459.361-3.153 1.702-3.946 1.341-.794 2.999-.856 4.545-.652 1.546.204 3.06.638 4.615.758 4.571.364 9.245-1.982 13.633-.66.967.292 1.88.758 2.86 1.015 1.911.425 3.907.253 5.716-.492.642-.24 1.27-.528 1.894-.812 1.203-.623 2.484-1.084 3.809-1.37 4.281-.732 8.25 2.217 11.48 5.095 1.11.916 2.09 1.974 2.919 3.148.891 1.383 1.363 2.993 1.782 4.58 1.18 4.11 2.156 8.731.116 12.5z"/>
        <path fill="#000" fill-rule="nonzero" d="M415.83 309.748c-1.477 2.794-4.345 4.534-7.423 5.252 1.197-2.373 1.737-5.034 1.561-7.697-.264-4.265-2.102-8.284-4.446-11.827-1.442-2.182-3.083-4.22-4.9-6.087-1.398-1.435-3.118-2.574-4.622-3.889 1.187-.63 2.452-1.096 3.76-1.386 4.227-.74 8.145 2.243 11.334 5.154 1.095.926 2.063 1.997 2.88 3.185.88 1.399 1.347 3.027 1.76 4.633 1.148 4.176 2.111 8.85.097 12.662z" opacity=".1"/>
        <path fill="#3F3D56" fill-rule="nonzero" d="M281.783 93.753c-1.498 1.074-2.523 2.617-3.566 4.097-1.92 2.737-4.096 5.468-7.167 6.993-1.163.58-2.492 1.017-3.263 2.025-.457.682-.754 1.457-.869 2.268-.588 2.851-.896 5.753-.918 8.664 0 1.45.062 2.944.709 4.261.61 1.238 1.711 2.285 1.939 3.634.173 1.052-.219 2.1-.357 3.156-.138 1.056.103 2.307 1.088 2.811.53.198 1.085.327 1.649.385 2.964.654 3.958 4.102 4.408 6.953 1.007-.057 1.462-1.202 1.671-2.135l3.09-13.62c.333-1.476.89-3.186 2.375-3.704.994-.34 2.081-.022 3.12.067 4.078.331 7.528-2.794 11.517-3.656 1.277-.254 2.583-.339 3.882-.252 3.147.155 6.807 1.437 7.475 4.35.112.473.178 1.038.624 1.273.446.234.892.035 1.382 0 1.997-.2 3.173 2.029 3.748 3.85l2.095 6.63c.312 1.004.838 2.184 1.935 2.312 1.011.124 1.872-.826 2.023-1.768.152-.941-.178-1.918-.396-2.864-.985-4.354.521-8.81 1.44-13.173.917-4.363 1.082-9.376-1.998-12.735-1.118-1.216-2.59-2.122-3.632-3.404-.972-1.202-1.52-2.679-2.527-3.859-2.786-3.258-9.931-5.773-14.312-6.189-4.988-.543-13.118.717-17.165 3.63z"/>
        <g fill="#000" fill-rule="nonzero" opacity=".1">
            <path d="M53.127 21.85c-1.104-.134-1.634-1.343-1.948-2.341-.703-2.242-1.406-4.48-2.11-6.716-.579-1.85-1.763-4.106-3.774-3.9-.449.049-.979.232-1.392 0-.412-.233-.516-.81-.628-1.29-.673-2.955-4.358-4.25-7.527-4.406-1.308-.086-2.622 0-3.909.255-4.04.896-7.49 4.03-11.597 3.703-1.06-.085-2.155-.407-3.142-.062-1.513.519-2.056 2.238-2.392 3.752l-3.11 13.79c-.211.95-.67 2.11-1.684 2.164-.448-2.884-1.454-6.377-4.438-7.04-.568-.062-1.125-.192-1.661-.389-.39-.213-.696-.552-.866-.963-.081.417-.175.833-.23 1.25-.134 1.065.104 2.337 1.096 2.847.534.201 1.093.332 1.66.39 2.985.663 3.986 4.155 4.44 7.043 1.014-.058 1.472-1.218 1.682-2.162l3.11-13.796c.337-1.495.898-3.228 2.393-3.752 1-.345 2.096-.023 3.142.067 4.106.336 7.58-2.83 11.597-3.703 1.28-.256 2.589-.342 3.891-.255 3.17.157 6.854 1.455 7.527 4.406.112.479.18 1.052.629 1.29.448.237.897.035 1.39 0 2.012-.202 3.196 2.055 3.775 3.9.7 2.241 1.404 4.48 2.11 6.716.314 1.016.844 2.212 1.948 2.342 1.019.125 1.885-.838 2.037-1.791.07-.803-.022-1.611-.269-2.378-.326.66-1.013 1.065-1.75 1.03zM3.065 13.325C2.837 11.96 1.72 10.9 1.113 9.645.723 8.799.498 7.888.45 6.958c0 .502-.045 1.003-.05 1.51 0 1.468.063 2.981.714 4.316.498 1.016 1.32 1.912 1.733 2.946.217-.782.292-1.596.22-2.405zM56.215 3.797c-.817 3.904-2.092 7.88-1.697 11.794.256-2.888 1.1-5.794 1.697-8.66.497-2.174.672-4.41.52-6.635-.097 1.177-.271 2.346-.52 3.501z" transform="translate(265 110)"/>
        </g>
        <path fill="#FBBEBE" fill-rule="nonzero" d="M269.928 213.07c-.538 8.857-7.014 16.175-9.48 24.692-.614 2.132-.983 4.344-1.863 6.373-1.778 4.08-5.436 7.041-9.334 9.128-1.422.825-2.978 1.393-4.596 1.677-3.642.427-7.166-1.454-8.85-4.722-1.017-2.074-1.16-4.46-1.777-6.69-.689-2.573-1.978-4.945-2.818-7.474-1.547-4.65-1.516-9.743-.444-14.524 1.015-4.157 2.62-8.146 4.769-11.844.31-.548.626-1.092.95-1.632.918-1.56 1.947-3.05 3.081-4.46 2.667-3.224 6.094-5.703 9.485-8.147.259-.214.563-.366.889-.446h.053c.383-.013.762.076 1.098.259 4.703 2.04 9.217 4.493 13.49 7.331 1.529 1.021 3.942 2.163 4.742 3.902.8 1.74.72 4.687.605 6.578z"/>
        <path fill="#F86D70" fill-rule="nonzero" d="M252.675 172.819c-.428.45-.76.984-.975 1.568-3.553 8.05-5.65 16.672-6.197 25.461.01.429-.088.853-.285 1.233-.195.253-.41.488-.646.703-.433.515-.634 1.187-.555 1.857.078.67.428 1.277.968 1.678.725-1.375 2.46-1.82 4.003-1.94 7.387-.588 14.603 2.868 22.012 2.607-.523-1.816-1.274-3.562-1.7-5.4-1.886-8.161 2.816-17.047-.067-24.908-.575-1.573-1.538-3.12-3.054-3.81-.627-.254-1.284-.43-1.955-.52-1.872-.341-5.599-1.795-7.41-1.211-.667.216-.931.848-1.485 1.228-.821.543-1.938.733-2.654 1.454z"/>
        <path fill="#000" fill-rule="nonzero" d="M254.995 246.548c-2.3 3.942-6.47 6.386-11 6.449-1.205.032-2.404-.19-3.52-.653-2.81-1.254-4.399-4.356-4.989-7.405-.59-3.049-.404-6.195-.822-9.275-.335-2.454-1.047-4.836-1.417-7.285-.906-6.057.88-12.04 2.151-18.07.308-.547.62-1.09.942-1.627.908-1.555 1.927-3.04 3.049-4.445 2.64-3.213 6.032-5.684 9.389-8.12h-3.52c.173-.128.401-.153.598-.066.196.087.332.273.357.489.347 3.11 4.69 6.222 5.636 9.244.585 1.858 1.289 3.68 1.76 5.573.37 1.613.653 3.245.845 4.89.624 4.6 1.246 9.193 1.865 13.777.779 5.595 1.447 11.644-1.324 16.524z" opacity=".1"/>
        <path fill="#FBBEBE" fill-rule="nonzero" d="M249.268 188.29l4.376-13.457c.653-2.014 1.315-4.059 1.392-6.175.077-2.116-.49-4.334-2-5.846-1.224-1.223-2.92-1.854-4.371-2.81-3.628-2.396-5.442-6.593-7.333-10.456-1.891-3.863-4.38-7.904-8.507-9.336-.953-.329-2.268-.355-2.694.538-.147.372-.171.78-.068 1.165.4 2.054 1.9 3.694 3.206 5.335 2.19 2.778 4.022 6.18 3.496 9.656-.625 4.116-4.398 7.308-4.852 11.447-.2 1.823.277 3.65.272 5.486 0 1.138-.19 2.299.068 3.41.269.86.588 1.703.957 2.525.404 1.33.615 2.708.626 4.095l.957 17.498c.517 9.465-4.72 18.672-3.279 28.007.381 2.45 1.116 4.833 1.46 7.287.454 3.08.24 6.224.848 9.278.608 3.054 2.268 6.153 5.143 7.406 1.15.463 2.385.686 3.628.654 4.668-.063 8.965-2.508 11.336-6.45 2.857-4.89 2.168-10.933 1.388-16.507l-1.923-13.782c-.197-1.645-.488-3.277-.87-4.89-.481-1.894-1.207-3.717-1.814-5.575-1.946-6.077-3.401-12.466-1.442-18.503z"/>
        <rect width="99" height="63" x="269" y="189" fill="#3F3D56" fill-rule="nonzero" rx="7.97"/>
        <rect width="99" height="63" x="269" y="189" fill="#000" fill-rule="nonzero" opacity=".2" rx="7.97"/>
        <circle cx="317.5" cy="220.5" r="2.5" fill="#FFF" fill-rule="nonzero"/>
        <path fill="#3F3D56" fill-rule="nonzero" d="M200.27 272h5.46c6.224 0 11.27 5.046 11.27 11.27V300h-28v-16.73c0-6.224 5.046-11.27 11.27-11.27z"/>
        <path fill="#000" fill-rule="nonzero" d="M200.27 272h5.46c6.224 0 11.27 5.046 11.27 11.27V300h-28v-16.73c0-6.224 5.046-11.27 11.27-11.27z" opacity=".1"/>
        <circle cx="202" cy="276" r="2" fill="#3F3D56" fill-rule="nonzero"/>
        <circle cx="202" cy="273" r="2" fill="#3F3D56" fill-rule="nonzero"/>
        <circle cx="202" cy="271" r="2" fill="#3F3D56" fill-rule="nonzero"/>
        <circle cx="202" cy="268" r="2" fill="#3F3D56" fill-rule="nonzero"/>
        <circle cx="202" cy="265" r="2" fill="#3F3D56" fill-rule="nonzero"/>
        <circle cx="202" cy="262" r="2" fill="#3F3D56" fill-rule="nonzero"/>
        <circle cx="202" cy="260" r="2" fill="#3F3D56" fill-rule="nonzero"/>
        <circle cx="205" cy="261" r="2" fill="#3F3D56" fill-rule="nonzero"/>
        <circle cx="208" cy="260" r="2" fill="#3F3D56" fill-rule="nonzero"/>
        <circle cx="210" cy="258" r="2" fill="#3F3D56" fill-rule="nonzero"/>
        <circle cx="202" cy="257" r="2" fill="#3F3D56" fill-rule="nonzero"/>
        <circle cx="202" cy="254" r="2" fill="#3F3D56" fill-rule="nonzero"/>
        <circle cx="202" cy="251" r="2" fill="#3F3D56" fill-rule="nonzero"/>
        <circle cx="202" cy="249" r="2" fill="#3F3D56" fill-rule="nonzero"/>
        <path fill="#D59D15" fill-rule="nonzero" d="M211.766 240.866c-.554.081-1.112.14-1.67.176.519-.453 1-.947 1.44-1.477-.311-.94-.767-1.825-1.35-2.625-.555.312-1.168.505-1.801.568-.554.08-1.112.144-1.67.18.75-.714 1.463-1.466 2.138-2.251-3.336-3-8.316-3.258-11.943-.618-3.627 2.64-4.913 7.458-3.083 11.555 1.83 4.096 6.275 6.354 10.662 5.414 4.387-.939 7.52-4.82 7.511-9.306 0-.548-.048-1.094-.144-1.634l-.09.018zM218.749 252.076c-.561.344-1.193.555-1.848.62-.544.079-1.092.136-1.64.171.583-.522 1.126-1.086 1.627-1.688-2.745-.716-5.584.774-6.555 3.44-.97 2.665.245 5.631 2.808 6.848 2.562 1.217 5.63.286 7.082-2.15 1.453-2.437.815-5.578-1.474-7.254v.013z"/>
        <circle cx="199" cy="261" r="2" fill="#3F3D56" fill-rule="nonzero"/>
        <circle cx="196" cy="260" r="2" fill="#3F3D56" fill-rule="nonzero"/>
        <circle cx="194" cy="258" r="2" fill="#3F3D56" fill-rule="nonzero"/>
        <path fill="#D59D15" fill-rule="nonzero" d="M185.251 252.076c.561.344 1.193.556 1.848.62.544.079 1.092.136 1.64.171-.584-.52-1.127-1.085-1.627-1.688 2.745-.716 5.584.774 6.555 3.44.97 2.665-.245 5.631-2.808 6.848-2.562 1.217-5.63.286-7.082-2.15-1.453-2.437-.815-5.578 1.474-7.254v.013z"/>
        <path fill="#3F3D56" fill-rule="nonzero" d="M200.27 274h5.46c6.224 0 11.27 5.046 11.27 11.27v14.819c0 1.055-.856 1.911-1.911 1.911H190.91c-1.055 0-1.911-.856-1.911-1.911V285.27c0-6.224 5.046-11.27 11.27-11.27z"/>
        <g fill="#000" fill-rule="nonzero" opacity=".1">
            <path d="M18.554 8.464c-.223.24-.459.468-.707.68.252 0 .499-.04.75-.067-.008-.206-.021-.411-.043-.613zM14.55 5.807c.553-.036 1.096-.094 1.644-.175.492-.063.972-.195 1.427-.393-.223-.448-.48-.877-.768-1.284-.275.17-.573.297-.884.38-.433.528-.908 1.02-1.419 1.472zM1.052 10.58c-.007-3.455 1.853-6.637 4.847-8.294C8.894.63 12.544.763 15.412 2.635l.141-.152C13.053.23 9.552-.492 6.38.589 3.208 1.671.852 4.392.207 7.717c-.644 3.325.521 6.745 3.054 8.96-1.43-1.701-2.212-3.863-2.21-6.097z" transform="translate(193 234)"/>
        </g>
        <g fill="#000" fill-rule="nonzero" opacity=".1">
            <path d="M5.69 3.51c.573-.038 1.145-.099 1.713-.183.684-.065 1.344-.288 1.93-.653 1.31.976 2.149 2.469 2.307 4.107.022-.203.033-.407.032-.612.01-1.838-.848-3.57-2.307-4.666-.586.362-1.246.586-1.93.653l-.461.056c-.394.465-.823.9-1.283 1.297zM5.922 1.53c.191.003.382.017.572.043.3-.322.595-.668.895-1.004C5.67.105 3.834.476 2.423 1.573 1.012 2.671.186 4.37.189 6.17c0 .196 0 .388.028.579.294-2.962 2.76-5.218 5.705-5.217z" transform="translate(209 251)"/>
        </g>
        <g fill="#000" fill-rule="nonzero" opacity=".1">
            <path d="M6.323 3.51c-.572-.038-1.145-.099-1.712-.183-.685-.064-1.345-.288-1.93-.653C1.372 3.65.533 5.143.375 6.781.35 6.578.34 6.374.342 6.169c-.01-1.838.848-3.57 2.307-4.666.586.363 1.246.587 1.93.653l.461.056c.391.468.82.902 1.283 1.297zM6.092 1.53c-.193.003-.385.017-.577.043-.295-.322-.59-.668-.89-1.004C6.345.105 8.18.476 9.59 1.573c1.41 1.098 2.236 2.796 2.234 4.596 0 .196 0 .388-.028.579-.294-2.962-2.76-5.218-5.705-5.217z" transform="translate(183 251)"/>
        </g>
        <path fill="#D59D15" fill-rule="nonzero" d="M70 80H171V119H70z"/>
        <rect width="165" height="39" x="71" y="80" stroke="#3F3D56" stroke-width="9" rx="12"/>
        <path fill="#FFF" fill-rule="nonzero" d="M160.964 97.408c-.671-3.317-3.405-5.855-6.817-6.33-3.412-.473-6.757 1.22-8.34 4.224-3.436.356-5.985 3.292-5.797 6.677.187 3.386 3.046 6.033 6.5 6.021h14.078c2.994-.007 5.417-2.394 5.412-5.333.012-2.788-2.2-5.098-5.036-5.259zm-6.223 3.135v4.036h-3.468v-4.036h-3.678l5.412-5.316 5.412 5.316h-3.678z"/>
    </g>
</svg>
